<?xml version="1.0" encoding="utf-8"?>
<svg width="2000px" height="2000px" viewBox="0 0 2000 2000" version="1.1" xmlns:xlink="http://www.w3.org/1999/xlink" xmlns="http://www.w3.org/2000/svg">
  <desc>Created with Lunacy</desc>
  <defs>
    <rect width="2000" height="2000" id="artboard_1" />
    <clipPath id="clip_1">
      <use xlink:href="#artboard_1" clip-rule="evenodd" />
    </clipPath>
  </defs>
  <g id="Full-HD" clip-path="url(#clip_1)">
    <use xlink:href="#artboard_1" stroke="none" fill="#000000" />
    <g id="UNAUTHORIZED" fill="#FFFFFF" transform="translate(0 847.0001)">
      <path d="M1174.65 136.335Q1174.65 149.865 1169.95 161.168Q1165.25 172.47 1157 180.637Q1148.75 188.805 1137.36 193.342Q1125.98 197.88 1112.61 197.88Q1099.25 197.88 1087.94 193.342Q1076.64 188.805 1068.39 180.637Q1060.14 172.47 1055.52 161.168Q1050.9 149.865 1050.9 136.335Q1050.9 122.64 1055.52 111.338Q1060.14 100.035 1068.39 92.0325Q1076.64 84.03 1087.94 79.575Q1099.25 75.12 1112.61 75.12Q1125.98 75.12 1137.36 79.575Q1148.75 84.03 1157 92.0325Q1165.25 100.035 1169.95 111.338Q1174.65 122.64 1174.65 136.335ZM387.438 194.003Q396.018 197.88 407.568 197.88Q419.118 197.88 427.698 194.003Q436.278 190.125 441.888 183.69Q447.497 177.255 450.22 168.923Q452.943 160.59 452.943 151.68L452.943 78.09L436.608 78.09L436.608 150.69Q436.608 156.63 435.122 162.488Q433.638 168.345 430.255 172.965Q426.872 177.585 421.263 180.39Q415.653 183.195 407.568 183.195Q399.318 183.195 393.79 180.39Q388.263 177.585 384.88 172.965Q381.498 168.345 380.013 162.488Q378.528 156.63 378.528 150.69L378.528 78.09L362.193 78.09L362.193 151.68Q362.193 160.59 364.915 168.923Q367.638 177.255 373.248 183.69Q378.858 190.125 387.438 194.003ZM563.163 171.48L562.833 171.48L501.783 78.09L480.498 78.09L480.498 194.91L496.833 194.91L496.833 99.54L497.163 99.54L558.873 194.91L579.498 194.91L579.498 78.09L563.163 78.09L563.163 171.48ZM612.662 194.91L594.513 194.91L645.167 78.09L660.018 78.09L710.177 194.91L691.698 194.91L679.818 166.2L624.378 166.2L612.662 194.91ZM749.612 194.003Q758.193 197.88 769.742 197.88Q781.292 197.88 789.872 194.003Q798.453 190.125 804.063 183.69Q809.672 177.255 812.395 168.923Q815.117 160.59 815.117 151.68L815.117 78.09L798.782 78.09L798.782 150.69Q798.782 156.63 797.297 162.488Q795.813 168.345 792.43 172.965Q789.047 177.585 783.438 180.39Q777.828 183.195 769.742 183.195Q761.492 183.195 755.965 180.39Q750.438 177.585 747.055 172.965Q743.672 168.345 742.188 162.488Q740.703 156.63 740.703 150.69L740.703 78.09L724.367 78.09L724.367 151.68Q724.367 160.59 727.09 168.923Q729.813 177.255 735.422 183.69Q741.033 190.125 749.612 194.003ZM883.593 194.91L867.258 194.91L867.258 92.445L829.803 92.445L829.803 78.09L921.048 78.09L921.048 92.445L883.593 92.445L883.593 194.91ZM952.893 78.09L936.557 78.09L936.557 194.91L952.893 194.91L952.893 141.45L1011.96 141.45L1011.96 194.91L1028.46 194.91L1028.46 78.09L1011.96 78.09L1011.96 126.93L952.893 126.93L952.893 78.09ZM1196.93 194.91L1213.26 194.91L1213.26 142.935L1230.75 142.935L1260.45 194.91L1280.25 194.91L1247.58 141.285Q1260.12 139.14 1268.04 131.22Q1275.96 123.3 1275.96 110.43Q1275.96 101.52 1272.66 95.3325Q1269.36 89.145 1263.67 85.35Q1257.98 81.555 1250.39 79.8225Q1242.8 78.09 1234.38 78.09L1196.93 78.09L1196.93 194.91ZM1314.57 194.91L1298.24 194.91L1298.24 78.09L1314.57 78.09L1314.57 194.91ZM1354.01 180.39L1420.01 92.445L1420.01 78.09L1335.53 78.09L1335.53 92.445L1400.04 92.445L1334.21 180.555L1334.21 194.91L1421 194.91L1421 180.39L1354.01 180.39ZM1456.97 180.39L1518.02 180.39L1518.02 194.91L1440.63 194.91L1440.63 78.09L1515.54 78.09L1515.54 92.445L1456.97 92.445L1456.97 127.425L1512.08 127.425L1512.08 141.45L1456.97 141.45L1456.97 180.39ZM1579.89 78.09L1539.8 78.09L1539.8 194.91L1579.89 194.91Q1591.11 194.91 1602.33 191.363Q1613.55 187.815 1622.63 180.637Q1631.7 173.46 1637.31 162.488Q1642.92 151.515 1642.92 136.5Q1642.92 120.99 1637.31 109.935Q1631.7 98.88 1622.63 91.785Q1613.55 84.69 1602.33 81.39Q1591.11 78.09 1579.89 78.09ZM1157 136.335Q1157 126.765 1153.86 118.268Q1150.73 109.77 1144.95 103.335Q1139.18 96.9 1131.01 93.1875Q1122.84 89.475 1112.61 89.475Q1102.55 89.475 1094.38 93.1875Q1086.21 96.9 1080.52 103.335Q1074.83 109.77 1071.69 118.268Q1068.56 126.765 1068.56 136.335Q1068.56 146.07 1071.69 154.65Q1074.83 163.23 1080.6 169.583Q1086.38 175.935 1094.46 179.565Q1102.55 183.195 1112.61 183.195Q1122.68 183.195 1130.93 179.565Q1139.18 175.935 1144.95 169.583Q1150.73 163.23 1153.86 154.65Q1157 146.07 1157 136.335ZM1232.07 129.24L1213.26 129.24L1213.26 91.95L1233.23 91.95Q1238.51 91.95 1243.29 92.8575Q1248.08 93.765 1251.63 95.91Q1255.17 98.055 1257.32 101.603Q1259.46 105.15 1259.46 110.43Q1259.46 115.71 1257.32 119.257Q1255.17 122.805 1251.46 125.033Q1247.75 127.26 1242.8 128.25Q1237.85 129.24 1232.07 129.24ZM1576.59 180.555L1556.13 180.555L1556.13 92.28L1576.59 92.28Q1587.15 92.28 1596.15 95.1675Q1605.14 98.055 1611.66 103.583Q1618.17 109.11 1621.8 117.36Q1625.43 125.61 1625.43 136.5Q1625.43 146.895 1621.8 155.145Q1618.17 163.395 1611.66 169.005Q1605.14 174.615 1596.15 177.585Q1587.15 180.555 1576.59 180.555ZM630.153 151.845L673.878 151.845L652.097 97.065L630.153 151.845Z" />
    </g>
    <g id="TECHTOREHAB" transform="translate(361 1119)">
      <g id="TECH" fill="#FFFFFF">
        <path d="M384.584 173.364Q377.816 181.14 367.88 185.676Q357.944 190.212 344.984 190.212Q333.176 190.212 323.168 186.324Q313.16 182.436 305.816 175.308Q298.472 168.18 294.296 158.244Q290.12 148.308 290.12 136.356Q290.12 124.116 294.368 114.18Q298.616 104.244 306.104 97.26Q313.592 90.276 323.672 86.532Q333.752 82.788 345.416 82.788Q356.216 82.788 366.656 86.604Q377.096 90.42 383.576 97.764L366.872 114.468Q363.416 109.716 357.8 107.412Q352.184 105.108 346.28 105.108Q339.8 105.108 334.4 107.484Q329 109.86 325.112 114.036Q321.224 118.212 319.064 123.9Q316.904 129.588 316.904 136.356Q316.904 143.268 319.064 149.028Q321.224 154.788 325.04 158.892Q328.856 162.996 334.184 165.3Q339.512 167.604 345.848 167.604Q353.192 167.604 358.664 164.724Q364.136 161.844 367.448 157.236L384.584 173.364ZM167.432 187.476L167.432 106.548L196.232 106.548L196.232 85.524L114.008 85.524L114.008 106.548L142.808 106.548L142.808 187.476L167.432 187.476ZM207.464 85.524L207.464 187.476L278.6 187.476L278.6 166.452L231.224 166.452L231.224 145.284L273.56 145.284L273.56 125.556L231.224 125.556L231.224 106.26L276.008 106.26L276.008 85.524L207.464 85.524ZM459.464 144.852L459.464 187.476L484.088 187.476L484.088 85.524L459.464 85.524L459.464 124.116L419.72 124.116L419.72 85.524L395.096 85.524L395.096 187.476L419.72 187.476L419.72 144.852L459.464 144.852Z" />
      </g>
      <g id="TO" fill="#FFFFFF">
        <path d="M686.984 157.956Q691.016 148.164 691.016 136.5Q691.016 124.836 686.984 115.044Q682.952 105.252 675.824 98.124Q668.696 90.996 658.976 86.964Q649.256 82.932 637.88 82.932Q626.504 82.932 616.784 86.964Q607.064 90.996 599.936 98.124Q592.808 105.252 588.776 115.044Q584.744 124.836 584.744 136.5Q584.744 148.164 588.776 157.956Q592.808 167.748 599.936 174.876Q607.064 182.004 616.784 186.036Q626.504 190.068 637.88 190.068Q649.256 190.068 658.976 186.036Q668.696 182.004 675.824 174.876Q682.952 167.748 686.984 157.956ZM530.456 187.476L540.824 187.476L540.824 94.74L574.952 94.74L574.952 85.524L496.328 85.524L496.328 94.74L530.456 94.74L530.456 187.476ZM677.192 119.607Q680.072 127.658 680.072 136.572Q680.072 145.486 677.192 153.537Q674.312 161.587 668.84 167.625Q663.368 173.663 655.52 177.258Q647.672 180.852 637.88 180.852Q628.088 180.852 620.24 177.258Q612.392 173.663 606.92 167.625Q601.448 161.587 598.568 153.537Q595.688 145.486 595.688 136.572Q595.688 127.658 598.568 119.607Q601.448 111.557 606.92 105.447Q612.392 99.3368 620.24 95.7424Q628.088 92.148 637.88 92.148Q647.672 92.148 655.52 95.7424Q663.368 99.3368 668.84 105.447Q674.312 111.557 677.192 119.607Z" />
      </g>
      <g id="REHAB" fill="#FFFFFF">
        <path d="M764.168 187.476L742.033 147.012L733.64 147.012L733.64 187.476L709.592 187.476L709.592 85.524L748.472 85.524Q755.816 85.524 762.8 87.036Q769.784 88.548 775.328 92.148Q780.872 95.748 784.184 101.652Q787.496 107.556 787.496 116.34Q787.496 126.708 781.88 133.764Q776.264 140.82 766.328 143.844L792.968 187.476L764.168 187.476ZM805.064 187.476L805.064 85.524L873.608 85.524L873.608 106.26L828.824 106.26L828.824 125.556L871.16 125.556L871.16 145.284L828.824 145.284L828.824 166.452L876.2 166.452L876.2 187.476L805.064 187.476ZM956.84 144.852L956.84 187.476L981.464 187.476L981.464 85.524L956.84 85.524L956.84 124.116L917.096 124.116L917.096 85.524L892.472 85.524L892.472 187.476L917.096 187.476L917.096 144.852L956.84 144.852ZM1071.61 187.476L1063.69 167.46L1024.23 167.46L1016.74 187.476L989.96 187.476L1032.73 85.524L1056.63 85.524L1098.97 187.476L1071.61 187.476ZM1183.64 171.852Q1186.95 166.164 1186.95 157.812Q1186.95 152.772 1185.3 148.74Q1183.64 144.708 1180.83 141.684Q1178.02 138.66 1174.21 136.716Q1170.39 134.772 1166.07 134.052L1166.07 133.764Q1173.56 131.316 1178.17 125.772Q1182.78 120.228 1182.78 111.732Q1182.78 103.956 1179.61 98.916Q1176.44 93.876 1171.4 90.924Q1166.36 87.972 1160.17 86.748Q1153.98 85.524 1148.07 85.524L1107.46 85.524L1107.46 187.476L1148.07 187.476Q1155.42 187.476 1162.4 185.964Q1169.38 184.452 1174.86 180.996Q1180.33 177.54 1183.64 171.852ZM1155.06 107.484Q1159.02 109.86 1159.02 115.044Q1159.02 120.516 1155.2 123.324Q1151.38 126.132 1144.47 126.132L1131.22 126.132L1131.22 105.108L1143.32 105.108Q1151.1 105.108 1155.06 107.484ZM763.16 116.772Q763.16 113.172 761.64 110.94Q760.12 108.708 757.733 107.484Q755.346 106.26 752.379 105.828Q749.413 105.396 746.663 105.396L733.496 105.396L733.496 129.156L745.216 129.156Q748.256 129.156 751.44 128.652Q754.624 128.148 757.228 126.852Q759.832 125.556 761.496 123.108Q763.16 120.66 763.16 116.772ZM1044.25 112.74L1031.29 147.732L1056.92 147.732L1044.25 112.74ZM1157.58 146.724Q1162.33 149.172 1162.33 155.508Q1162.33 159.252 1160.74 161.628Q1159.16 164.004 1156.64 165.3Q1154.12 166.596 1151.02 167.1Q1147.93 167.604 1145.05 167.604L1131.22 167.604L1131.22 144.276L1144.9 144.276Q1152.82 144.276 1157.58 146.724Z" />
      </g>
    </g>
    <g id="401" fill="#1890FF" transform="translate(432 606.0001)">
      <path d="M553.455 101.52Q559.382 101.52 563.379 104.445Q567.375 107.37 569.8 112.095Q572.224 116.82 573.257 122.85Q574.29 128.88 574.29 135.09Q574.29 141.3 573.257 147.285Q572.224 153.27 569.8 157.995Q567.375 162.72 563.379 165.6Q559.382 168.48 553.455 168.48Q547.438 168.48 543.442 165.6Q539.446 162.72 537.021 157.995Q534.596 153.27 533.608 147.285Q532.62 141.3 532.62 135.09Q532.62 128.88 533.608 122.85Q534.596 116.82 537.021 112.095Q539.446 107.37 543.442 104.445Q547.438 101.52 553.455 101.52ZM514.44 145.71L523.8 145.71L523.8 151.47L514.44 151.47L514.44 166.86L508.14 166.86L508.14 151.47L478.98 151.47L478.98 145.17L505.98 103.14L514.44 103.14L514.44 145.71ZM605.34 166.86L611.82 166.86L611.82 103.14L606.06 103.14L589.86 116.46L593.82 120.96L605.34 111.15L605.34 166.86ZM553.455 107.01Q549.212 107.01 546.413 109.62Q543.614 112.23 541.989 116.28Q540.364 120.33 539.732 125.325Q539.1 130.32 539.1 135.09Q539.1 139.86 539.732 144.81Q540.364 149.76 541.989 153.765Q543.614 157.77 546.413 160.335Q549.212 162.9 553.455 162.9Q557.608 162.9 560.407 160.335Q563.206 157.77 564.831 153.765Q566.456 149.76 567.133 144.81Q567.81 139.86 567.81 135.09Q567.81 130.32 567.133 125.325Q566.456 120.33 564.831 116.28Q563.206 112.23 560.407 109.62Q557.608 107.01 553.455 107.01ZM508.14 110.43L507.96 110.43L485.73 145.71L508.14 145.71L508.14 110.43Z" />
    </g>
    <path d="M0 1L1047 1" transform="translate(485 1082)" id="Line" fill="none" stroke="#39FF81" stroke-width="3" />
  </g>
</svg>