<?xml version="1.0" encoding="utf-8"?>
<svg width="2000px" height="2000px" viewBox="0 0 2000 2000" version="1.1" xmlns:xlink="http://www.w3.org/1999/xlink" xmlns="http://www.w3.org/2000/svg">
  <desc>Created with Lunacy</desc>
  <defs>
    <rect width="2000" height="2000" id="artboard_1" />
    <clipPath id="clip_1">
      <use xlink:href="#artboard_1" clip-rule="evenodd" />
    </clipPath>
  </defs>
  <g id="Full-HD" clip-path="url(#clip_1)">
    <use xlink:href="#artboard_1" stroke="none" fill="#000000" />
    <g id="PAGE-NOT-FOUND" fill="#FFFFFF" transform="translate(0 847.0001)">
      <path d="M572.237 102.18Q566.958 96.405 558.79 92.94Q550.622 89.475 540.557 89.475Q530.328 89.475 522.078 93.1875Q513.828 96.9 508.052 103.335Q502.277 109.77 499.142 118.268Q496.008 126.765 496.008 136.335Q496.008 146.07 499.142 154.65Q502.277 163.23 508.052 169.583Q513.828 175.935 522.242 179.565Q530.658 183.195 541.052 183.195Q549.302 183.195 556.232 181.71Q563.162 180.225 568.278 177.42L568.278 144.915L542.372 144.915L542.372 131.055L584.448 131.055L584.448 187.65Q575.208 192.6 564.318 195.24Q553.427 197.88 540.557 197.88Q526.862 197.88 515.395 193.342Q503.927 188.805 495.677 180.637Q487.427 172.47 482.807 161.168Q478.188 149.865 478.188 136.335Q478.188 122.64 482.89 111.338Q487.592 100.035 495.925 92.0325Q504.258 84.03 515.643 79.575Q527.028 75.12 540.393 75.12Q554.417 75.12 565.39 79.245Q576.362 83.37 583.622 90.3L572.237 102.18ZM993.4 161.168Q998.102 149.865 998.102 136.335Q998.102 122.64 993.4 111.338Q988.697 100.035 980.448 92.0325Q972.198 84.03 960.813 79.575Q949.427 75.12 936.063 75.12Q922.697 75.12 911.395 79.575Q900.092 84.03 891.842 92.0325Q883.592 100.035 878.972 111.338Q874.352 122.64 874.352 136.335Q874.352 149.865 878.972 161.168Q883.592 172.47 891.842 180.637Q900.092 188.805 911.395 193.342Q922.697 197.88 936.063 197.88Q949.427 197.88 960.813 193.342Q972.198 188.805 980.448 180.637Q988.697 172.47 993.4 161.168ZM1367.04 136.335Q1367.04 149.865 1362.34 161.168Q1357.64 172.47 1349.39 180.637Q1341.14 188.805 1329.75 193.342Q1318.37 197.88 1305 197.88Q1291.64 197.88 1280.33 193.342Q1269.03 188.805 1260.78 180.637Q1252.53 172.47 1247.91 161.168Q1243.29 149.865 1243.29 136.335Q1243.29 122.64 1247.91 111.338Q1252.53 100.035 1260.78 92.0325Q1269.03 84.03 1280.33 79.575Q1291.64 75.12 1305 75.12Q1318.37 75.12 1329.75 79.575Q1341.14 84.03 1349.39 92.0325Q1357.64 100.035 1362.34 111.338Q1367.04 122.64 1367.04 136.335ZM304.278 78.09L268.638 78.09L268.638 194.91L284.973 194.91L284.973 143.595L303.453 143.595Q312.527 143.595 320.365 141.698Q328.203 139.8 333.895 135.84Q339.588 131.88 342.805 125.61Q346.022 119.34 346.023 110.595Q346.022 102.015 343.053 95.91Q340.083 89.805 334.638 85.845Q329.193 81.885 321.438 79.9875Q313.682 78.09 304.278 78.09ZM353.448 194.91L371.598 194.91L383.313 166.2L438.753 166.2L450.633 194.91L469.112 194.91L418.953 78.09L404.103 78.09L353.448 194.91ZM689.883 180.39L628.833 180.39L628.833 141.45L683.943 141.45L683.943 127.425L628.833 127.425L628.833 92.445L687.407 92.445L687.407 78.09L612.497 78.09L612.497 194.91L689.883 194.91L689.883 180.39ZM835.248 171.48L835.578 171.48L835.578 78.09L851.913 78.09L851.913 194.91L831.288 194.91L769.578 99.54L769.248 99.54L769.248 194.91L752.913 194.91L752.913 78.09L774.198 78.09L835.248 171.48ZM1061.3 194.91L1044.96 194.91L1044.96 92.445L1007.51 92.445L1007.51 78.09L1098.75 78.09L1098.75 92.445L1061.3 92.445L1061.3 194.91ZM1155.51 194.91L1171.85 194.91L1171.85 142.77L1224.81 142.77L1224.81 128.745L1171.85 128.745L1171.85 92.445L1228.44 92.445L1228.44 78.09L1155.51 78.09L1155.51 194.91ZM1413.74 194.003Q1422.32 197.88 1433.87 197.88Q1445.42 197.88 1454 194.003Q1462.58 190.125 1468.19 183.69Q1473.8 177.255 1476.52 168.923Q1479.24 160.59 1479.24 151.68L1479.24 78.09L1462.91 78.09L1462.91 150.69Q1462.91 156.63 1461.42 162.488Q1459.94 168.345 1456.55 172.965Q1453.17 177.585 1447.56 180.39Q1441.95 183.195 1433.87 183.195Q1425.62 183.195 1420.09 180.39Q1414.56 177.585 1411.18 172.965Q1407.8 168.345 1406.31 162.488Q1404.83 156.63 1404.83 150.69L1404.83 78.09L1388.49 78.09L1388.49 151.68Q1388.49 160.59 1391.21 168.923Q1393.94 177.255 1399.55 183.69Q1405.16 190.125 1413.74 194.003ZM1589.13 171.48L1589.46 171.48L1589.46 78.09L1605.8 78.09L1605.8 194.91L1585.17 194.91L1523.46 99.54L1523.13 99.54L1523.13 194.91L1506.8 194.91L1506.8 78.09L1528.08 78.09L1589.13 171.48ZM1674.27 78.09L1634.18 78.09L1634.18 194.91L1674.27 194.91Q1685.49 194.91 1696.71 191.363Q1707.93 187.815 1717.01 180.637Q1726.08 173.46 1731.69 162.488Q1737.3 151.515 1737.3 136.5Q1737.3 120.99 1731.69 109.935Q1726.08 98.88 1717.01 91.785Q1707.93 84.69 1696.71 81.39Q1685.49 78.09 1674.27 78.09ZM977.313 118.268Q980.447 126.765 980.448 136.335Q980.447 146.07 977.313 154.65Q974.177 163.23 968.402 169.583Q962.628 175.935 954.378 179.565Q946.127 183.195 936.063 183.195Q925.997 183.195 917.912 179.565Q909.827 175.935 904.052 169.583Q898.277 163.23 895.142 154.65Q892.008 146.07 892.008 136.335Q892.008 126.765 895.142 118.268Q898.277 109.77 903.97 103.335Q909.662 96.9 917.83 93.1875Q925.997 89.475 936.063 89.475Q946.292 89.475 954.46 93.1875Q962.628 96.9 968.402 103.335Q974.177 109.77 977.313 118.268ZM1349.39 136.335Q1349.39 126.765 1346.25 118.268Q1343.12 109.77 1337.34 103.335Q1331.57 96.9 1323.4 93.1875Q1315.23 89.475 1305 89.475Q1294.94 89.475 1286.77 93.1875Q1278.6 96.9 1272.91 103.335Q1267.22 109.77 1264.08 118.268Q1260.95 126.765 1260.95 136.335Q1260.95 146.07 1264.08 154.65Q1267.22 163.23 1272.99 169.583Q1278.77 175.935 1286.85 179.565Q1294.94 183.195 1305 183.195Q1315.07 183.195 1323.32 179.565Q1331.57 175.935 1337.34 169.583Q1343.12 163.23 1346.25 154.65Q1349.39 146.07 1349.39 136.335ZM302.298 129.735L284.973 129.735L284.973 91.95L302.628 91.95Q308.403 91.95 313.353 92.8575Q318.302 93.765 321.85 95.9925Q325.398 98.22 327.46 101.768Q329.523 105.315 329.523 110.595Q329.522 115.875 327.543 119.505Q325.563 123.135 321.932 125.362Q318.302 127.59 313.27 128.663Q308.238 129.735 302.298 129.735ZM1670.97 180.555L1650.51 180.555L1650.51 92.28L1670.97 92.28Q1681.53 92.28 1690.52 95.1675Q1699.52 98.055 1706.03 103.583Q1712.55 109.11 1716.18 117.36Q1719.81 125.61 1719.81 136.5Q1719.81 146.895 1716.18 155.145Q1712.55 163.395 1706.03 169.005Q1699.52 174.615 1690.52 177.585Q1681.53 180.555 1670.97 180.555ZM432.813 151.845L389.087 151.845L411.033 97.065L432.813 151.845Z" />
    </g>
    <g id="TECHTOREHAB" transform="translate(347 1120)">
      <g id="TECH" fill="#FFFFFF">
        <path d="M384.584 173.364Q377.816 181.14 367.88 185.676Q357.944 190.212 344.984 190.212Q333.176 190.212 323.168 186.324Q313.16 182.436 305.816 175.308Q298.472 168.18 294.296 158.244Q290.12 148.308 290.12 136.356Q290.12 124.116 294.368 114.18Q298.616 104.244 306.104 97.26Q313.592 90.276 323.672 86.532Q333.752 82.788 345.416 82.788Q356.216 82.788 366.656 86.604Q377.096 90.42 383.576 97.764L366.872 114.468Q363.416 109.716 357.8 107.412Q352.184 105.108 346.28 105.108Q339.8 105.108 334.4 107.484Q329 109.86 325.112 114.036Q321.224 118.212 319.064 123.9Q316.904 129.588 316.904 136.356Q316.904 143.268 319.064 149.028Q321.224 154.788 325.04 158.892Q328.856 162.996 334.184 165.3Q339.512 167.604 345.848 167.604Q353.192 167.604 358.664 164.724Q364.136 161.844 367.448 157.236L384.584 173.364ZM167.432 187.476L167.432 106.548L196.232 106.548L196.232 85.524L114.008 85.524L114.008 106.548L142.808 106.548L142.808 187.476L167.432 187.476ZM207.464 85.524L207.464 187.476L278.6 187.476L278.6 166.452L231.224 166.452L231.224 145.284L273.56 145.284L273.56 125.556L231.224 125.556L231.224 106.26L276.008 106.26L276.008 85.524L207.464 85.524ZM459.464 144.852L459.464 187.476L484.088 187.476L484.088 85.524L459.464 85.524L459.464 124.116L419.72 124.116L419.72 85.524L395.096 85.524L395.096 187.476L419.72 187.476L419.72 144.852L459.464 144.852Z" />
      </g>
      <g id="TO" fill="#FFFFFF">
        <path d="M686.984 157.956Q691.016 148.164 691.016 136.5Q691.016 124.836 686.984 115.044Q682.952 105.252 675.824 98.124Q668.696 90.996 658.976 86.964Q649.256 82.932 637.88 82.932Q626.504 82.932 616.784 86.964Q607.064 90.996 599.936 98.124Q592.808 105.252 588.776 115.044Q584.744 124.836 584.744 136.5Q584.744 148.164 588.776 157.956Q592.808 167.748 599.936 174.876Q607.064 182.004 616.784 186.036Q626.504 190.068 637.88 190.068Q649.256 190.068 658.976 186.036Q668.696 182.004 675.824 174.876Q682.952 167.748 686.984 157.956ZM530.456 187.476L540.824 187.476L540.824 94.74L574.952 94.74L574.952 85.524L496.328 85.524L496.328 94.74L530.456 94.74L530.456 187.476ZM677.192 119.607Q680.072 127.658 680.072 136.572Q680.072 145.486 677.192 153.537Q674.312 161.587 668.84 167.625Q663.368 173.663 655.52 177.258Q647.672 180.852 637.88 180.852Q628.088 180.852 620.24 177.258Q612.392 173.663 606.92 167.625Q601.448 161.587 598.568 153.537Q595.688 145.486 595.688 136.572Q595.688 127.658 598.568 119.607Q601.448 111.557 606.92 105.447Q612.392 99.3368 620.24 95.7424Q628.088 92.148 637.88 92.148Q647.672 92.148 655.52 95.7424Q663.368 99.3368 668.84 105.447Q674.312 111.557 677.192 119.607Z" />
      </g>
      <g id="REHAB" fill="#FFFFFF">
        <path d="M764.168 187.476L742.033 147.012L733.64 147.012L733.64 187.476L709.592 187.476L709.592 85.524L748.472 85.524Q755.816 85.524 762.8 87.036Q769.784 88.548 775.328 92.148Q780.872 95.748 784.184 101.652Q787.496 107.556 787.496 116.34Q787.496 126.708 781.88 133.764Q776.264 140.82 766.328 143.844L792.968 187.476L764.168 187.476ZM805.064 187.476L805.064 85.524L873.608 85.524L873.608 106.26L828.824 106.26L828.824 125.556L871.16 125.556L871.16 145.284L828.824 145.284L828.824 166.452L876.2 166.452L876.2 187.476L805.064 187.476ZM956.84 144.852L956.84 187.476L981.464 187.476L981.464 85.524L956.84 85.524L956.84 124.116L917.096 124.116L917.096 85.524L892.472 85.524L892.472 187.476L917.096 187.476L917.096 144.852L956.84 144.852ZM1071.61 187.476L1063.69 167.46L1024.23 167.46L1016.74 187.476L989.96 187.476L1032.73 85.524L1056.63 85.524L1098.97 187.476L1071.61 187.476ZM1183.64 171.852Q1186.95 166.164 1186.95 157.812Q1186.95 152.772 1185.3 148.74Q1183.64 144.708 1180.83 141.684Q1178.02 138.66 1174.21 136.716Q1170.39 134.772 1166.07 134.052L1166.07 133.764Q1173.56 131.316 1178.17 125.772Q1182.78 120.228 1182.78 111.732Q1182.78 103.956 1179.61 98.916Q1176.44 93.876 1171.4 90.924Q1166.36 87.972 1160.17 86.748Q1153.98 85.524 1148.07 85.524L1107.46 85.524L1107.46 187.476L1148.07 187.476Q1155.42 187.476 1162.4 185.964Q1169.38 184.452 1174.86 180.996Q1180.33 177.54 1183.64 171.852ZM1155.06 107.484Q1159.02 109.86 1159.02 115.044Q1159.02 120.516 1155.2 123.324Q1151.38 126.132 1144.47 126.132L1131.22 126.132L1131.22 105.108L1143.32 105.108Q1151.1 105.108 1155.06 107.484ZM763.16 116.772Q763.16 113.172 761.64 110.94Q760.12 108.708 757.733 107.484Q755.346 106.26 752.379 105.828Q749.413 105.396 746.663 105.396L733.496 105.396L733.496 129.156L745.216 129.156Q748.256 129.156 751.44 128.652Q754.624 128.148 757.228 126.852Q759.832 125.556 761.496 123.108Q763.16 120.66 763.16 116.772ZM1044.25 112.74L1031.29 147.732L1056.92 147.732L1044.25 112.74ZM1157.58 146.724Q1162.33 149.172 1162.33 155.508Q1162.33 159.252 1160.74 161.628Q1159.16 164.004 1156.64 165.3Q1154.12 166.596 1151.02 167.1Q1147.93 167.604 1145.05 167.604L1131.22 167.604L1131.22 144.276L1144.9 144.276Q1152.82 144.276 1157.58 146.724Z" />
      </g>
    </g>
    <g id="404" fill="#1890FF" transform="translate(432 606.0001)">
      <path d="M553.455 101.52Q559.382 101.52 563.379 104.445Q567.375 107.37 569.8 112.095Q572.224 116.82 573.257 122.85Q574.29 128.88 574.29 135.09Q574.29 141.3 573.257 147.285Q572.224 153.27 569.8 157.995Q567.375 162.72 563.379 165.6Q559.382 168.48 553.455 168.48Q547.438 168.48 543.442 165.6Q539.446 162.72 537.021 157.995Q534.596 153.27 533.608 147.285Q532.62 141.3 532.62 135.09Q532.62 128.88 533.608 122.85Q534.596 116.82 537.021 112.095Q539.446 107.37 543.442 104.445Q547.438 101.52 553.455 101.52ZM514.44 145.71L523.8 145.71L523.8 151.47L514.44 151.47L514.44 166.86L508.14 166.86L508.14 151.47L478.98 151.47L478.98 145.17L505.98 103.14L514.44 103.14L514.44 145.71ZM628.2 145.71L618.84 145.71L618.84 103.14L610.38 103.14L583.38 145.17L583.38 151.47L612.54 151.47L612.54 166.86L618.84 166.86L618.84 151.47L628.2 151.47L628.2 145.71ZM553.455 107.01Q549.212 107.01 546.413 109.62Q543.614 112.23 541.989 116.28Q540.364 120.33 539.732 125.325Q539.1 130.32 539.1 135.09Q539.1 139.86 539.732 144.81Q540.364 149.76 541.989 153.765Q543.614 157.77 546.413 160.335Q549.212 162.9 553.455 162.9Q557.608 162.9 560.407 160.335Q563.206 157.77 564.831 153.765Q566.456 149.76 567.133 144.81Q567.81 139.86 567.81 135.09Q567.81 130.32 567.133 125.325Q566.456 120.33 564.831 116.28Q563.206 112.23 560.407 109.62Q557.608 107.01 553.455 107.01ZM508.14 110.43L507.96 110.43L485.73 145.71L508.14 145.71L508.14 110.43ZM612.36 110.43L612.54 110.43L612.54 145.71L590.13 145.71L612.36 110.43Z" />
    </g>
    <path d="M0 1L1047 1" transform="translate(485 1082)" id="Line" fill="none" stroke="#39FF81" stroke-width="3" />
  </g>
</svg>