<?xml version="1.0" encoding="utf-8"?>
<svg width="2000px" height="2000px" viewBox="0 0 2000 2000" version="1.1" xmlns:xlink="http://www.w3.org/1999/xlink" xmlns="http://www.w3.org/2000/svg">
  <desc>Created with Lunacy</desc>
  <defs>
    <rect width="2000" height="2000" id="artboard_1" />
    <clipPath id="clip_1">
      <use xlink:href="#artboard_1" clip-rule="evenodd" />
    </clipPath>
  </defs>
  <g id="Full-HD" clip-path="url(#clip_1)">
    <use xlink:href="#artboard_1" stroke="none" fill="#000000" />
    <g id="SERVER-ERROR" fill="#FFFFFF" transform="translate(0 779.0001)">
      <path d="M479.673 99.705Q476.208 94.92 470.268 91.8675Q464.328 88.815 456.903 88.815Q452.943 88.815 448.9 89.8875Q444.858 90.96 441.558 93.3525Q438.258 95.745 436.195 99.2925Q434.133 102.84 434.133 107.79Q434.133 112.575 436.03 115.792Q437.928 119.01 441.145 121.237Q444.363 123.465 448.735 125.033Q453.108 126.6 458.058 128.25Q463.998 130.065 470.103 132.375Q476.208 134.685 481.158 138.48Q486.108 142.275 489.243 147.967Q492.378 153.66 492.378 162.405Q492.378 171.48 488.995 178.163Q485.613 184.845 480.003 189.217Q474.393 193.59 467.05 195.735Q459.708 197.88 451.953 197.88Q440.898 197.88 430.585 193.59Q420.273 189.3 413.508 180.885L426.213 170.16Q430.338 176.265 437.268 180.06Q444.198 183.855 452.283 183.855Q456.408 183.855 460.533 182.7Q464.658 181.545 468.04 179.07Q471.423 176.595 473.568 172.883Q475.713 169.17 475.713 163.89Q475.713 158.61 473.485 155.063Q471.258 151.515 467.463 149.04Q463.668 146.565 458.635 144.833Q453.603 143.1 447.993 141.285Q442.383 139.635 436.938 137.242Q431.493 134.85 427.203 131.137Q422.913 127.425 420.273 121.98Q417.633 116.535 417.633 108.45Q417.633 99.705 421.18 93.435Q424.728 87.165 430.42 83.04Q436.113 78.915 443.29 77.0175Q450.468 75.12 457.728 75.12Q467.958 75.12 476.868 78.75Q485.778 82.38 491.223 88.485L479.673 99.705ZM1483.2 136.335Q1483.2 149.865 1478.5 161.168Q1473.8 172.47 1465.55 180.637Q1457.3 188.805 1445.91 193.342Q1434.53 197.88 1421.16 197.88Q1407.8 197.88 1396.49 193.342Q1385.19 188.805 1376.94 180.637Q1368.69 172.47 1364.07 161.168Q1359.45 149.865 1359.45 136.335Q1359.45 122.64 1364.07 111.338Q1368.69 100.035 1376.94 92.0325Q1385.19 84.03 1396.49 79.575Q1407.8 75.12 1421.16 75.12Q1434.53 75.12 1445.91 79.575Q1457.3 84.03 1465.55 92.0325Q1473.8 100.035 1478.5 111.338Q1483.2 122.64 1483.2 136.335ZM531.813 180.39L592.863 180.39L592.863 194.91L515.478 194.91L515.478 78.09L590.388 78.09L590.388 92.445L531.813 92.445L531.813 127.425L586.923 127.425L586.923 141.45L531.813 141.45L531.813 180.39ZM614.643 194.91L630.978 194.91L630.978 142.935L648.468 142.935L678.168 194.91L697.968 194.91L665.297 141.285Q677.838 139.14 685.758 131.22Q693.677 123.3 693.677 110.43Q693.677 101.52 690.378 95.3325Q687.078 89.145 681.385 85.35Q675.693 81.555 668.103 79.8225Q660.513 78.09 652.098 78.09L614.643 78.09L614.643 194.91ZM754.728 173.79L755.223 173.79L790.367 78.09L808.023 78.09L762.153 194.91L746.973 194.91L701.432 78.09L719.583 78.09L754.728 173.79ZM899.268 180.39L838.218 180.39L838.218 141.45L893.328 141.45L893.328 127.425L838.218 127.425L838.218 92.445L896.792 92.445L896.792 78.09L821.883 78.09L821.883 194.91L899.268 194.91L899.268 180.39ZM937.383 194.91L921.048 194.91L921.048 78.09L958.503 78.09Q966.918 78.09 974.508 79.8225Q982.098 81.555 987.79 85.35Q993.483 89.145 996.783 95.3325Q1000.08 101.52 1000.08 110.43Q1000.08 123.3 992.163 131.22Q984.243 139.14 971.703 141.285L1004.37 194.91L984.573 194.91L954.873 142.935L937.383 142.935L937.383 194.91ZM1140.99 180.39L1079.94 180.39L1079.94 141.45L1135.05 141.45L1135.05 127.425L1079.94 127.425L1079.94 92.445L1138.52 92.445L1138.52 78.09L1063.61 78.09L1063.61 194.91L1140.99 194.91L1140.99 180.39ZM1179.11 194.91L1162.77 194.91L1162.77 78.09L1200.23 78.09Q1208.64 78.09 1216.23 79.8225Q1223.82 81.555 1229.52 85.35Q1235.21 89.145 1238.51 95.3325Q1241.81 101.52 1241.81 110.43Q1241.81 123.3 1233.89 131.22Q1225.97 139.14 1213.43 141.285L1246.1 194.91L1226.3 194.91L1196.6 142.935L1179.11 142.935L1179.11 194.91ZM1264.08 194.91L1280.42 194.91L1280.42 142.935L1297.91 142.935L1327.61 194.91L1347.41 194.91L1314.74 141.285Q1327.28 139.14 1335.2 131.22Q1343.12 123.3 1343.12 110.43Q1343.12 101.52 1339.82 95.3325Q1336.52 89.145 1330.83 85.35Q1325.13 81.555 1317.54 79.8225Q1309.95 78.09 1301.54 78.09L1264.08 78.09L1264.08 194.91ZM1505.48 194.91L1521.81 194.91L1521.81 142.935L1539.3 142.935L1569 194.91L1588.8 194.91L1556.13 141.285Q1568.67 139.14 1576.59 131.22Q1584.51 123.3 1584.51 110.43Q1584.51 101.52 1581.21 95.3325Q1577.91 89.145 1572.22 85.35Q1566.53 81.555 1558.94 79.8225Q1551.35 78.09 1542.93 78.09L1505.48 78.09L1505.48 194.91ZM1465.55 136.335Q1465.55 126.765 1462.41 118.268Q1459.28 109.77 1453.5 103.335Q1447.73 96.9 1439.56 93.1875Q1431.39 89.475 1421.16 89.475Q1411.1 89.475 1402.93 93.1875Q1394.76 96.9 1389.07 103.335Q1383.38 109.77 1380.24 118.268Q1377.11 126.765 1377.11 136.335Q1377.11 146.07 1380.24 154.65Q1383.38 163.23 1389.15 169.583Q1394.93 175.935 1403.01 179.565Q1411.1 183.195 1421.16 183.195Q1431.23 183.195 1439.48 179.565Q1447.73 175.935 1453.5 169.583Q1459.28 163.23 1462.41 154.65Q1465.55 146.07 1465.55 136.335ZM649.788 129.24L630.978 129.24L630.978 91.95L650.943 91.95Q656.223 91.95 661.008 92.8575Q665.793 93.765 669.34 95.91Q672.888 98.055 675.033 101.603Q677.177 105.15 677.177 110.43Q677.177 115.71 675.033 119.257Q672.888 122.805 669.175 125.033Q665.463 127.26 660.513 128.25Q655.563 129.24 649.788 129.24ZM937.383 129.24L956.193 129.24Q961.968 129.24 966.918 128.25Q971.868 127.26 975.58 125.033Q979.293 122.805 981.438 119.257Q983.583 115.71 983.583 110.43Q983.583 105.15 981.438 101.603Q979.293 98.055 975.745 95.91Q972.198 93.765 967.413 92.8575Q962.628 91.95 957.348 91.95L937.383 91.95L937.383 129.24ZM1179.11 129.24L1197.92 129.24Q1203.69 129.24 1208.64 128.25Q1213.59 127.26 1217.31 125.033Q1221.02 122.805 1223.16 119.257Q1225.31 115.71 1225.31 110.43Q1225.31 105.15 1223.16 101.603Q1221.02 98.055 1217.47 95.91Q1213.92 93.765 1209.14 92.8575Q1204.35 91.95 1199.07 91.95L1179.11 91.95L1179.11 129.24ZM1299.23 129.24L1280.42 129.24L1280.42 91.95L1300.38 91.95Q1305.66 91.95 1310.45 92.8575Q1315.23 93.765 1318.78 95.91Q1322.33 98.055 1324.47 101.603Q1326.62 105.15 1326.62 110.43Q1326.62 115.71 1324.47 119.257Q1322.33 122.805 1318.62 125.033Q1314.9 127.26 1309.95 128.25Q1305 129.24 1299.23 129.24ZM1540.62 129.24L1521.81 129.24L1521.81 91.95L1541.78 91.95Q1547.06 91.95 1551.84 92.8575Q1556.63 93.765 1560.18 95.91Q1563.72 98.055 1565.87 101.603Q1568.01 105.15 1568.01 110.43Q1568.01 115.71 1565.87 119.257Q1563.72 122.805 1560.01 125.033Q1556.3 127.26 1551.35 128.25Q1546.4 129.24 1540.62 129.24Z" />
    </g>
    <g id="TECHTOREHAB" transform="translate(347 1187)">
      <g id="TECH" fill="#FFFFFF">
        <path d="M384.584 173.364Q377.816 181.14 367.88 185.676Q357.944 190.212 344.984 190.212Q333.176 190.212 323.168 186.324Q313.16 182.436 305.816 175.308Q298.472 168.18 294.296 158.244Q290.12 148.308 290.12 136.356Q290.12 124.116 294.368 114.18Q298.616 104.244 306.104 97.26Q313.592 90.276 323.672 86.532Q333.752 82.788 345.416 82.788Q356.216 82.788 366.656 86.604Q377.096 90.42 383.576 97.764L366.872 114.468Q363.416 109.716 357.8 107.412Q352.184 105.108 346.28 105.108Q339.8 105.108 334.4 107.484Q329 109.86 325.112 114.036Q321.224 118.212 319.064 123.9Q316.904 129.588 316.904 136.356Q316.904 143.268 319.064 149.028Q321.224 154.788 325.04 158.892Q328.856 162.996 334.184 165.3Q339.512 167.604 345.848 167.604Q353.192 167.604 358.664 164.724Q364.136 161.844 367.448 157.236L384.584 173.364ZM167.432 187.476L167.432 106.548L196.232 106.548L196.232 85.524L114.008 85.524L114.008 106.548L142.808 106.548L142.808 187.476L167.432 187.476ZM207.464 85.524L207.464 187.476L278.6 187.476L278.6 166.452L231.224 166.452L231.224 145.284L273.56 145.284L273.56 125.556L231.224 125.556L231.224 106.26L276.008 106.26L276.008 85.524L207.464 85.524ZM459.464 144.852L459.464 187.476L484.088 187.476L484.088 85.524L459.464 85.524L459.464 124.116L419.72 124.116L419.72 85.524L395.096 85.524L395.096 187.476L419.72 187.476L419.72 144.852L459.464 144.852Z" />
      </g>
      <g id="TO" fill="#FFFFFF">
        <path d="M686.984 157.956Q691.016 148.164 691.016 136.5Q691.016 124.836 686.984 115.044Q682.952 105.252 675.824 98.124Q668.696 90.996 658.976 86.964Q649.256 82.932 637.88 82.932Q626.504 82.932 616.784 86.964Q607.064 90.996 599.936 98.124Q592.808 105.252 588.776 115.044Q584.744 124.836 584.744 136.5Q584.744 148.164 588.776 157.956Q592.808 167.748 599.936 174.876Q607.064 182.004 616.784 186.036Q626.504 190.068 637.88 190.068Q649.256 190.068 658.976 186.036Q668.696 182.004 675.824 174.876Q682.952 167.748 686.984 157.956ZM530.456 187.476L540.824 187.476L540.824 94.74L574.952 94.74L574.952 85.524L496.328 85.524L496.328 94.74L530.456 94.74L530.456 187.476ZM677.192 119.607Q680.072 127.658 680.072 136.572Q680.072 145.486 677.192 153.537Q674.312 161.587 668.84 167.625Q663.368 173.663 655.52 177.258Q647.672 180.852 637.88 180.852Q628.088 180.852 620.24 177.258Q612.392 173.663 606.92 167.625Q601.448 161.587 598.568 153.537Q595.688 145.486 595.688 136.572Q595.688 127.658 598.568 119.607Q601.448 111.557 606.92 105.447Q612.392 99.3368 620.24 95.7424Q628.088 92.148 637.88 92.148Q647.672 92.148 655.52 95.7424Q663.368 99.3368 668.84 105.447Q674.312 111.557 677.192 119.607Z" />
      </g>
      <g id="REHAB" fill="#FFFFFF">
        <path d="M764.168 187.476L742.033 147.012L733.64 147.012L733.64 187.476L709.592 187.476L709.592 85.524L748.472 85.524Q755.816 85.524 762.8 87.036Q769.784 88.548 775.328 92.148Q780.872 95.748 784.184 101.652Q787.496 107.556 787.496 116.34Q787.496 126.708 781.88 133.764Q776.264 140.82 766.328 143.844L792.968 187.476L764.168 187.476ZM805.064 187.476L805.064 85.524L873.608 85.524L873.608 106.26L828.824 106.26L828.824 125.556L871.16 125.556L871.16 145.284L828.824 145.284L828.824 166.452L876.2 166.452L876.2 187.476L805.064 187.476ZM956.84 144.852L956.84 187.476L981.464 187.476L981.464 85.524L956.84 85.524L956.84 124.116L917.096 124.116L917.096 85.524L892.472 85.524L892.472 187.476L917.096 187.476L917.096 144.852L956.84 144.852ZM1071.61 187.476L1063.69 167.46L1024.23 167.46L1016.74 187.476L989.96 187.476L1032.73 85.524L1056.63 85.524L1098.97 187.476L1071.61 187.476ZM1183.64 171.852Q1186.95 166.164 1186.95 157.812Q1186.95 152.772 1185.3 148.74Q1183.64 144.708 1180.83 141.684Q1178.02 138.66 1174.21 136.716Q1170.39 134.772 1166.07 134.052L1166.07 133.764Q1173.56 131.316 1178.17 125.772Q1182.78 120.228 1182.78 111.732Q1182.78 103.956 1179.61 98.916Q1176.44 93.876 1171.4 90.924Q1166.36 87.972 1160.17 86.748Q1153.98 85.524 1148.07 85.524L1107.46 85.524L1107.46 187.476L1148.07 187.476Q1155.42 187.476 1162.4 185.964Q1169.38 184.452 1174.86 180.996Q1180.33 177.54 1183.64 171.852ZM1155.06 107.484Q1159.02 109.86 1159.02 115.044Q1159.02 120.516 1155.2 123.324Q1151.38 126.132 1144.47 126.132L1131.22 126.132L1131.22 105.108L1143.32 105.108Q1151.1 105.108 1155.06 107.484ZM763.16 116.772Q763.16 113.172 761.64 110.94Q760.12 108.708 757.733 107.484Q755.346 106.26 752.379 105.828Q749.413 105.396 746.663 105.396L733.496 105.396L733.496 129.156L745.216 129.156Q748.256 129.156 751.44 128.652Q754.624 128.148 757.228 126.852Q759.832 125.556 761.496 123.108Q763.16 120.66 763.16 116.772ZM1044.25 112.74L1031.29 147.732L1056.92 147.732L1044.25 112.74ZM1157.58 146.724Q1162.33 149.172 1162.33 155.508Q1162.33 159.252 1160.74 161.628Q1159.16 164.004 1156.64 165.3Q1154.12 166.596 1151.02 167.1Q1147.93 167.604 1145.05 167.604L1131.22 167.604L1131.22 144.276L1144.9 144.276Q1152.82 144.276 1157.58 146.724Z" />
      </g>
    </g>
    <g id="PLEASE-TRY-LATER" fill="#FFFFFF" transform="translate(347 1052)">
      <path d="M521.036 47.34Q519.104 44.652 516.08 43.014Q513.056 41.376 508.772 41.376Q506.588 41.376 504.32 42.048Q502.052 42.72 500.204 44.106Q498.356 45.492 497.222 47.592Q496.088 49.692 496.088 52.548Q496.088 55.404 497.177 57.252Q498.265 59.1 500.067 60.402Q501.868 61.704 504.172 62.544Q506.475 63.384 508.989 64.224Q512.087 65.232 515.229 66.408Q518.37 67.584 520.884 69.474Q523.397 71.364 524.989 74.262Q526.58 77.16 526.58 81.612Q526.58 86.064 524.882 89.298Q523.183 92.532 520.472 94.632Q517.76 96.732 514.274 97.74Q510.788 98.748 507.26 98.748Q504.572 98.748 501.884 98.202Q499.196 97.656 496.76 96.564Q494.324 95.472 492.224 93.792Q490.124 92.112 488.528 89.928L493.736 86.064Q495.668 89.256 499.154 91.398Q502.64 93.54 507.344 93.54Q509.612 93.54 511.964 92.826Q514.316 92.112 516.206 90.642Q518.096 89.172 519.314 87.03Q520.532 84.888 520.532 82.032Q520.532 78.924 519.314 76.866Q518.096 74.808 516.08 73.422Q514.064 72.036 511.46 71.112Q508.856 70.188 506 69.264Q503.06 68.34 500.204 67.164Q497.348 65.988 495.08 64.098Q492.812 62.208 491.426 59.436Q490.04 56.664 490.04 52.632Q490.04 48.348 491.762 45.24Q493.484 42.132 496.256 40.116Q499.028 38.1 502.388 37.176Q505.748 36.252 509.024 36.252Q515.072 36.252 519.356 38.394Q523.64 40.536 525.824 43.476L521.036 47.34ZM308.936 37.764L292.136 37.764L292.136 97.236L298.184 97.236L298.184 69.6L308.768 69.6Q313.304 69.6 317.042 68.592Q320.78 67.584 323.426 65.61Q326.072 63.636 327.542 60.654Q329.012 57.672 329.012 53.64Q329.012 49.608 327.584 46.626Q326.156 43.644 323.51 41.67Q320.864 39.696 317.168 38.73Q313.472 37.764 308.936 37.764ZM374.624 91.86L346.904 91.86L346.904 37.764L340.856 37.764L340.856 97.236L374.624 97.236L374.624 91.86ZM389.744 91.86L421.58 91.86L421.58 97.236L383.696 97.236L383.696 37.764L420.572 37.764L420.572 43.14L389.744 43.14L389.744 63.552L418.556 63.552L418.556 68.928L389.744 68.928L389.744 91.86ZM426.368 97.236L433.004 97.236L439.472 81.612L470.216 81.612L476.768 97.236L483.488 97.236L457.952 37.764L452.072 37.764L426.368 97.236ZM577.484 91.86L545.648 91.86L545.648 68.928L574.46 68.928L574.46 63.552L545.648 63.552L545.648 43.14L576.476 43.14L576.476 37.764L539.6 37.764L539.6 97.236L577.484 97.236L577.484 91.86ZM629.396 97.236L623.348 97.236L623.348 43.14L603.44 43.14L603.44 37.764L649.304 37.764L649.304 43.14L629.396 43.14L629.396 97.236ZM658.208 97.236L664.256 97.236L664.256 69.432L674.336 69.432L690.8 97.236L698.192 97.236L680.804 68.928Q684.08 68.592 686.852 67.416Q689.624 66.24 691.64 64.266Q693.656 62.292 694.832 59.604Q696.008 56.916 696.008 53.64Q696.008 49.272 694.496 46.248Q692.984 43.224 690.254 41.334Q687.524 39.444 683.786 38.604Q680.048 37.764 675.68 37.764L658.208 37.764L658.208 97.236ZM728.936 97.236L722.888 97.236L722.888 71.616L700.628 37.764L708.188 37.764L726.08 66.576L744.14 37.764L751.196 37.764L728.936 71.616L728.936 97.236ZM813.86 91.86L786.14 91.86L786.14 37.764L780.092 37.764L780.092 97.236L813.86 97.236L813.86 91.86ZM822.512 97.236L815.876 97.236L841.58 37.764L847.46 37.764L872.996 97.236L866.276 97.236L859.724 81.612L828.98 81.612L822.512 97.236ZM894.752 97.236L900.8 97.236L900.8 43.14L920.708 43.14L920.708 37.764L874.844 37.764L874.844 43.14L894.752 43.14L894.752 97.236ZM935.66 91.86L967.496 91.86L967.496 97.236L929.612 97.236L929.612 37.764L966.488 37.764L966.488 43.14L935.66 43.14L935.66 63.552L964.472 63.552L964.472 68.928L935.66 68.928L935.66 91.86ZM979.34 97.236L985.388 97.236L985.388 69.432L995.468 69.432L1011.93 97.236L1019.32 97.236L1001.94 68.928Q1005.21 68.592 1007.98 67.416Q1010.76 66.24 1012.77 64.266Q1014.79 62.292 1015.96 59.604Q1017.14 56.916 1017.14 53.64Q1017.14 49.272 1015.63 46.248Q1014.12 43.224 1011.39 41.334Q1008.66 39.444 1004.92 38.604Q1001.18 37.764 996.812 37.764L979.34 37.764L979.34 97.236ZM308.432 64.476L298.184 64.476L298.184 42.972L308.432 42.972Q315.32 42.972 319.142 45.534Q322.964 48.096 322.964 53.64Q322.964 58.932 319.268 61.704Q315.572 64.476 308.432 64.476ZM674.756 64.224L664.256 64.224L664.256 42.972L675.008 42.972Q678.368 42.972 681.14 43.56Q683.912 44.148 685.844 45.408Q687.776 46.668 688.868 48.684Q689.96 50.7 689.96 53.64Q689.96 58.932 686.012 61.578Q682.064 64.224 674.756 64.224ZM995.888 64.224L985.388 64.224L985.388 42.972L996.14 42.972Q999.5 42.972 1002.27 43.56Q1005.04 44.148 1006.98 45.408Q1008.91 46.668 1010 48.684Q1011.09 50.7 1011.09 53.64Q1011.09 58.932 1007.14 61.578Q1003.2 64.224 995.888 64.224ZM454.844 44.484L467.948 76.068L441.74 76.068L454.844 44.484ZM857.456 76.068L844.352 44.484L831.248 76.068L857.456 76.068Z" />
    </g>
    <g id="500" fill="#1890FF" transform="translate(432 538.0001)">
      <path d="M553.455 101.52Q559.382 101.52 563.379 104.445Q567.375 107.37 569.8 112.095Q572.224 116.82 573.257 122.85Q574.29 128.88 574.29 135.09Q574.29 141.3 573.257 147.285Q572.224 153.27 569.8 157.995Q567.375 162.72 563.379 165.6Q559.382 168.48 553.455 168.48Q547.438 168.48 543.442 165.6Q539.446 162.72 537.021 157.995Q534.596 153.27 533.608 147.285Q532.62 141.3 532.62 135.09Q532.62 128.88 533.608 122.85Q534.596 116.82 537.021 112.095Q539.446 107.37 543.442 104.445Q547.438 101.52 553.455 101.52ZM615.579 104.445Q611.582 101.52 605.655 101.52Q599.638 101.52 595.642 104.445Q591.646 107.37 589.221 112.095Q586.796 116.82 585.808 122.85Q584.82 128.88 584.82 135.09Q584.82 141.3 585.808 147.285Q586.796 153.27 589.221 157.995Q591.646 162.72 595.642 165.6Q599.638 168.48 605.655 168.48Q611.582 168.48 615.579 165.6Q619.576 162.72 622 157.995Q624.424 153.27 625.457 147.285Q626.49 141.3 626.49 135.09Q626.49 128.88 625.457 122.85Q624.424 116.82 622 112.095Q619.576 107.37 615.579 104.445ZM517.95 108.9L491.4 108.9L490.95 128.61Q493.014 127.89 495.302 127.53Q497.59 127.17 499.743 127.17Q504.229 127.17 507.998 128.61Q511.767 130.05 514.548 132.705Q517.33 135.36 518.855 139.05Q520.38 142.74 520.38 147.15Q520.38 151.74 518.871 155.655Q517.362 159.57 514.596 162.405Q511.83 165.24 507.915 166.86Q504 168.48 499.32 168.48Q492.39 168.48 487.62 165.33Q482.85 162.18 480.24 156.87L486.09 154.26Q487.8 158.22 491.265 160.56Q494.73 162.9 498.96 162.9Q502.2 162.9 504.945 161.775Q507.69 160.65 509.67 158.625Q511.65 156.6 512.775 153.81Q513.9 151.02 513.9 147.78Q513.9 144.27 512.685 141.435Q511.47 138.6 509.355 136.62Q507.24 134.64 504.36 133.56Q501.48 132.48 498.06 132.48Q494.64 132.48 491.265 133.425Q487.89 134.37 484.83 135.99L485.46 103.14L517.95 103.14L517.95 108.9ZM553.455 107.01Q549.212 107.01 546.413 109.62Q543.614 112.23 541.989 116.28Q540.364 120.33 539.732 125.325Q539.1 130.32 539.1 135.09Q539.1 139.86 539.732 144.81Q540.364 149.76 541.989 153.765Q543.614 157.77 546.413 160.335Q549.212 162.9 553.455 162.9Q557.608 162.9 560.407 160.335Q563.206 157.77 564.831 153.765Q566.456 149.76 567.133 144.81Q567.81 139.86 567.81 135.09Q567.81 130.32 567.133 125.325Q566.456 120.33 564.831 116.28Q563.206 112.23 560.407 109.62Q557.608 107.01 553.455 107.01ZM598.613 109.62Q601.412 107.01 605.655 107.01Q609.808 107.01 612.607 109.62Q615.406 112.23 617.031 116.28Q618.656 120.33 619.333 125.325Q620.01 130.32 620.01 135.09Q620.01 139.86 619.333 144.81Q618.656 149.76 617.031 153.765Q615.406 157.77 612.607 160.335Q609.808 162.9 605.655 162.9Q601.412 162.9 598.613 160.335Q595.814 157.77 594.189 153.765Q592.564 149.76 591.932 144.81Q591.3 139.86 591.3 135.09Q591.3 130.32 591.932 125.325Q592.564 120.33 594.189 116.28Q595.814 112.23 598.613 109.62Z" />
    </g>
    <path d="M0 1L1047 1" transform="translate(485 1014)" id="Line" fill="none" stroke="#39FF81" stroke-width="3" />
  </g>
</svg>