<?xml version="1.0" encoding="utf-8"?>
<svg width="500px" height="500px" viewBox="0 0 500 500" version="1.1" xmlns:xlink="http://www.w3.org/1999/xlink" xmlns="http://www.w3.org/2000/svg">
  <desc>Created with Lunacy</desc>
  <defs>
    <rect width="500" height="500" id="artboard_1" />
    <clipPath id="clip_1">
      <use xlink:href="#artboard_1" clip-rule="evenodd" />
    </clipPath>
  </defs>
  <g id="Artboard" clip-path="url(#clip_1)">
    <use xlink:href="#artboard_1" stroke="none" fill="#FFFFFF" fill-opacity="0" />
    <path d="M0 0L500 0L500 500L0 500L0 0Z" id="Rectangle" fill="#FC4850" stroke="none" />
    <g id="TTR">
      <path d="M181.055 205.371L138.379 205.371L138.379 321.094L104.102 321.094L104.102 205.371L62.207 205.371L62.207 178.906L181.055 178.906L181.055 205.371ZM307.129 205.371L264.453 205.371L264.453 321.094L230.176 321.094L230.176 205.371L188.281 205.371L188.281 178.906L307.129 178.906L307.129 205.371ZM355.859 270.801L374.414 270.801L399.512 321.094L436.23 321.094L436.23 319.627L406.543 262.216Q419.336 256.168 425.342 246.413Q431.348 236.658 431.348 221.829Q431.348 201.343 417.09 190.125Q402.832 178.906 377.539 178.906L321.582 178.906L321.582 321.094L355.859 321.094L355.859 270.801ZM377.539 244.434L355.859 244.434L355.859 205.273L377.539 205.273Q387.207 205.273 392.188 210.511Q397.168 215.749 397.168 224.951Q397.168 234.154 392.236 239.294Q387.305 244.434 377.539 244.434Z" />
    </g>
  </g>
</svg>