<?xml version="1.0" encoding="utf-8"?>
<svg width="2000px" height="2000px" viewBox="0 0 2000 2000" version="1.1" xmlns:xlink="http://www.w3.org/1999/xlink" xmlns="http://www.w3.org/2000/svg">
  <desc>Created with Lunacy</desc>
  <defs>
    <path d="M0 0L1017 0L1017 1017L0 1017L0 0Z" id="path_1" />
    <rect width="2000" height="2000" id="artboard_1" />
    <clipPath id="clip_1">
      <use xlink:href="#artboard_1" clip-rule="evenodd" />
    </clipPath>
    <clipPath id="mask_1">
      <use xlink:href="#path_1" />
    </clipPath>
  </defs>
  <g id="Full-HD" clip-path="url(#clip_1)">
    <use xlink:href="#artboard_1" stroke="none" fill="#FFFFFF" />
    <g id="ARTICLE" transform="translate(364 1339)">
      <path d="M801.415 253.997Q819.7 245.65 832.155 231.34L800.62 201.66Q794.525 210.14 784.455 215.44Q774.385 220.74 760.87 220.74Q749.21 220.74 739.405 216.5Q729.6 212.26 722.578 204.707Q715.555 197.155 711.58 186.555Q707.605 175.955 707.605 163.235Q707.605 150.78 711.58 140.313Q715.555 129.845 722.71 122.16Q729.865 114.475 739.803 110.102Q749.74 105.73 761.665 105.73Q772.53 105.73 782.865 109.97Q793.2 114.21 799.56 122.955L830.3 92.215Q818.375 78.7 799.163 71.6775Q779.95 64.655 760.075 64.655Q738.61 64.655 720.06 71.545Q701.51 78.435 687.73 91.2875Q673.95 104.14 666.133 122.425Q658.315 140.71 658.315 163.235Q658.315 185.23 666 203.515Q673.685 221.8 687.2 234.917Q700.715 248.035 719.133 255.19Q737.55 262.345 759.28 262.345Q783.13 262.345 801.415 253.997ZM187.145 257.31L172.57 220.475L99.96 220.475L86.18 257.31L36.89 257.31L115.595 69.69L159.585 69.69L237.495 257.31L187.145 257.31ZM353.565 257.31L312.83 182.845L297.385 182.845L297.385 257.31L253.13 257.31L253.13 69.69L324.68 69.69Q338.195 69.69 351.048 72.4725Q363.9 75.255 374.103 81.88Q384.305 88.505 390.4 99.37Q396.495 110.235 396.495 126.4Q396.495 145.48 386.16 158.465Q375.825 171.45 357.54 177.015L406.565 257.31L353.565 257.31ZM463.805 257.31L509.12 257.31L509.12 108.38L562.12 108.38L562.12 69.69L410.805 69.69L410.805 108.38L463.805 108.38L463.805 257.31ZM582.79 257.31L582.79 69.69L628.37 69.69L628.37 257.31L582.79 257.31ZM851.5 257.31L851.5 69.69L897.08 69.69L897.08 217.825L969.69 217.825L969.69 257.31L851.5 257.31ZM990.89 69.69L990.89 257.31L1121.8 257.31L1121.8 218.62L1034.61 218.62L1034.61 179.665L1112.53 179.665L1112.53 143.36L1034.61 143.36L1034.61 107.85L1117.03 107.85L1117.03 69.69L990.89 69.69ZM351.71 127.195Q351.71 120.57 348.913 116.462Q346.116 112.355 341.723 110.102Q337.33 107.85 331.87 107.055Q326.411 106.26 321.351 106.26L297.12 106.26L297.12 149.985L318.689 149.985Q324.283 149.985 330.142 149.057Q336 148.13 340.793 145.745Q345.586 143.36 348.648 138.855Q351.71 134.35 351.71 127.195ZM136.795 119.775L112.945 184.17L160.115 184.17L136.795 119.775Z" />
    </g>
    <path d="M0 1L1017 1" transform="translate(442 1665)" id="Line" fill="none" stroke="#1890FF" stroke-width="7" />
    <g id="title" transform="matrix(-1 0 0 1 1448 279)">
      <path d="M0 0L1017 0L1017 1017L0 1017L0 0Z" id="Background" fill="#39FF81" stroke="none" />
      <g clip-path="url(#mask_1)">
        <g id="Group" transform="translate(127.125 381.375)">
          <path d="M391.969 127.125C374.426 127.125 360.188 112.887 360.188 95.3438L360.188 63.5625L63.5625 63.5625L63.5625 95.3438C63.5625 112.887 49.3245 127.125 31.7813 127.125C14.238 127.125 0 112.887 0 95.3438L0 31.7813C0 14.238 14.238 0 31.7813 0L391.969 0C409.512 0 423.75 14.238 423.75 31.7813L423.75 95.3438C423.75 112.887 409.512 127.125 391.969 127.125L391.969 127.125Z" id="Shape" fill="#000000" stroke="none" />
        </g>
        <g id="Group" transform="translate(307.2188 391.9688)">
          <path d="M31.7813 402.562C14.238 402.562 0 388.324 0 370.781L0 31.7812C0 14.238 14.238 0 31.7813 0C49.3245 0 63.5625 14.238 63.5625 31.7812L63.5625 370.781C63.5625 388.324 49.3245 402.562 31.7813 402.562L31.7813 402.562Z" id="Shape" fill="#000000" stroke="none" />
        </g>
        <g id="Group" transform="translate(254.25 741.5624)">
          <path d="M137.719 63.5624L31.7812 63.5624C14.238 63.5624 0 49.3244 0 31.7812C0 14.238 14.238 0 31.7812 0L137.719 0C155.262 0 169.5 14.238 169.5 31.7812C169.5 49.3244 155.262 63.5624 137.719 63.5624L137.719 63.5624Z" id="Shape" fill="#000000" stroke="none" />
        </g>
        <g id="Group" transform="translate(635.625 381.375)">
          <path d="M222.469 63.5625L31.7813 63.5625C14.238 63.5625 0 49.3245 0 31.7813C0 14.238 14.238 0 31.7813 0L222.469 0C240.012 0 254.25 14.238 254.25 31.7813C254.25 49.3245 240.012 63.5625 222.469 63.5625L222.469 63.5625Z" id="Shape" fill="#000000" stroke="none" />
        </g>
        <g id="Group" transform="translate(635.625 550.875)">
          <path d="M222.469 63.5625L31.7813 63.5625C14.238 63.5625 0 49.3245 0 31.7813C0 14.238 14.238 0 31.7813 0L222.469 0C240.012 0 254.25 14.238 254.25 31.7813C254.25 49.3245 240.012 63.5625 222.469 63.5625L222.469 63.5625Z" id="Shape" fill="#000000" stroke="none" />
        </g>
        <g id="Group" transform="translate(635.625 720.3749)">
          <path d="M222.469 63.5625L31.7813 63.5625C14.238 63.5625 0 49.3245 0 31.7813C0 14.238 14.238 0 31.7813 0L222.469 0C240.012 0 254.25 14.238 254.25 31.7813C254.25 49.3245 240.012 63.5625 222.469 63.5625L222.469 63.5625Z" id="Shape" fill="#000000" stroke="none" />
        </g>
        <g id="Group" transform="translate(0 42.37503)">
          <path d="M116.531 932.25L900.469 932.25C964.752 932.25 1017 880.002 1017 815.719L1017 116.531C1017 52.2484 964.752 0 900.469 0L116.531 0C52.2484 0 0 52.2484 0 116.531L0 815.719C0 880.002 52.2484 932.25 116.531 932.25ZM63.5625 116.531C63.5625 87.3348 87.3349 63.5624 116.531 63.5624L900.469 63.5624C929.665 63.5624 953.438 87.3348 953.438 116.531L953.438 815.719C953.438 844.915 929.665 868.687 900.469 868.687L116.531 868.687C87.3349 868.687 63.5625 844.915 63.5625 815.719L63.5625 116.531Z" id="Shape" fill="#000000" fill-rule="evenodd" stroke="none" />
        </g>
        <g id="Group" transform="translate(0 190.6875)">
          <path d="M985.219 63.5625L31.7813 63.5625C14.238 63.5625 0 49.3245 0 31.7813C0 14.238 14.238 0 31.7813 0L985.219 0C1002.76 0 1017 14.238 1017 31.7813C1017 49.3245 1002.76 63.5625 985.219 63.5625L985.219 63.5625Z" id="Shape" fill="#000000" stroke="none" />
        </g>
      </g>
    </g>
  </g>
</svg>