<?xml version="1.0" encoding="utf-8"?>
<svg width="2000px" height="2000px" viewBox="0 0 2000 2000" version="1.1" xmlns:xlink="http://www.w3.org/1999/xlink" xmlns="http://www.w3.org/2000/svg">
  <desc>Created with Lunacy</desc>
  <defs>
    <rect width="2000" height="2000" id="artboard_1" />
    <clipPath id="clip_1">
      <use xlink:href="#artboard_1" clip-rule="evenodd" />
    </clipPath>
  </defs>
  <g id="Full-HD" clip-path="url(#clip_1)">
    <use xlink:href="#artboard_1" stroke="none" fill="#000000" />
    <g id="PLACEHOLDER" fill="#FFFFFF" transform="translate(0 917.0001)">
      <path d="M747.985 195.124Q737.222 207.49 721.422 214.704Q705.62 221.917 685.01 221.917Q666.233 221.917 650.317 215.734Q634.401 209.551 622.723 198.216Q611.044 186.88 604.403 171.079Q597.761 155.278 597.761 136.271Q597.761 116.806 604.517 101.005Q611.273 85.204 623.18 74.0975Q635.089 62.991 651.119 57.037Q667.148 51.083 685.698 51.083Q702.872 51.083 719.475 57.1515Q736.078 63.22 746.383 74.899L719.818 101.463Q714.323 93.906 705.391 90.242Q696.461 86.578 687.072 86.578Q676.766 86.578 668.179 90.3565Q659.591 94.135 653.409 100.776Q647.226 107.417 643.791 116.463Q640.356 125.508 640.356 136.271Q640.356 147.263 643.791 156.423Q647.226 165.583 653.294 172.11Q659.362 178.636 667.836 182.3Q676.308 185.964 686.385 185.964Q698.064 185.964 706.766 181.384Q715.467 176.804 720.734 169.476L747.985 195.124ZM1241.02 170.965Q1247.66 155.049 1247.66 135.813Q1247.66 116.348 1241.02 100.662Q1234.38 84.975 1222.59 73.983Q1210.79 62.991 1194.54 57.037Q1178.28 51.083 1159.27 51.083Q1140.26 51.083 1124.12 57.037Q1107.97 62.991 1096.18 73.983Q1084.39 84.975 1077.75 100.662Q1071.1 116.348 1071.1 135.813Q1071.1 155.049 1077.75 170.965Q1084.39 186.88 1096.18 198.216Q1107.97 209.551 1124.12 215.734Q1140.26 221.917 1159.27 221.917Q1178.28 221.917 1194.54 215.734Q1210.79 209.551 1222.59 198.216Q1234.38 186.88 1241.02 170.965ZM294.336 105.356Q294.336 119.554 289.069 129.286Q283.802 139.019 274.871 144.973Q265.94 150.927 254.261 153.675Q242.582 156.423 229.987 156.423L210.522 156.423L210.522 217.566L171.363 217.566L171.363 55.434L230.903 55.434Q244.185 55.434 255.75 58.0675Q267.314 60.701 275.902 66.5405Q284.489 72.38 289.413 81.8835Q294.336 91.387 294.336 105.356ZM317.923 217.566L317.923 55.434L357.311 55.434L357.311 183.445L420.057 183.445L420.057 213.745L486.467 55.434L524.482 55.434L591.807 217.566L548.297 217.566L535.703 185.735L472.956 185.735L461.048 217.566L317.923 217.566ZM764.702 55.434L764.702 217.566L877.828 217.566L877.828 184.132L802.487 184.132L802.487 150.469L869.813 150.469L869.813 119.096L802.487 119.096L802.487 88.41L873.706 88.41L873.706 55.434L764.702 55.434ZM1006.07 217.566L1006.07 149.782L942.864 149.782L942.864 217.566L903.705 217.566L903.705 55.434L942.864 55.434L942.864 116.806L1006.07 116.806L1006.07 55.434L1045.23 55.434L1045.23 217.566L1006.07 217.566ZM1273.54 217.566L1273.54 55.434L1312.93 55.434L1312.93 183.445L1375.67 183.445L1375.67 217.566L1273.54 217.566ZM1537.46 172.797Q1545.36 157.339 1545.36 136.042Q1545.36 113.142 1537.35 97.57Q1529.33 81.998 1516.28 72.7235Q1503.23 63.449 1486.51 59.4415Q1469.79 55.434 1452.62 55.434L1393.99 55.434L1393.99 217.566L1454.45 217.566Q1471.17 217.566 1487.43 212.872Q1503.69 208.177 1516.62 198.216Q1529.56 188.254 1537.46 172.797ZM1571.24 217.566L1571.24 55.434L1680.24 55.434L1680.24 88.41L1609.03 88.41L1609.03 119.096L1676.35 119.096L1676.35 150.469L1609.03 150.469L1609.03 184.132L1684.37 184.132L1684.37 217.566L1571.24 217.566ZM1761.83 153.217L1797.03 217.566L1842.83 217.566L1800.47 148.179Q1816.27 143.37 1825.2 132.149Q1834.13 120.928 1834.13 104.44Q1834.13 90.471 1828.87 81.082Q1823.6 71.693 1814.78 65.968Q1805.97 60.243 1794.86 57.8385Q1783.75 55.434 1772.07 55.434L1710.24 55.434L1710.24 217.566L1748.49 217.566L1748.49 153.217L1761.83 153.217ZM1202.32 116.119Q1205.76 125.279 1205.76 135.813Q1205.76 146.805 1202.32 156.08Q1198.89 165.354 1192.7 171.995Q1186.52 178.636 1178.05 182.415Q1169.57 186.193 1159.27 186.193Q1148.96 186.193 1140.49 182.415Q1132.02 178.636 1125.95 171.995Q1119.88 165.354 1116.45 156.08Q1113.01 146.805 1113.01 135.813Q1113.01 125.279 1116.33 116.119Q1119.65 106.959 1125.84 100.433Q1132.02 93.906 1140.49 90.1275Q1148.96 86.349 1159.27 86.349Q1169.57 86.349 1178.16 90.1275Q1186.75 93.906 1192.82 100.433Q1198.89 106.959 1202.32 116.119ZM255.177 105.585Q255.177 99.86 252.887 96.196Q250.597 92.532 246.704 90.471Q242.811 88.41 237.888 87.723Q232.964 87.036 227.697 87.036L210.522 87.036L210.522 125.279L227.01 125.279Q232.507 125.279 237.544 124.363Q242.582 123.447 246.59 121.157Q250.597 118.867 252.887 115.089Q255.177 111.31 255.177 105.585ZM1793.01 95.8525Q1795.43 99.402 1795.43 105.127Q1795.43 111.31 1792.79 115.203Q1790.14 119.096 1786 121.157Q1781.86 123.218 1776.79 124.02Q1771.73 124.821 1766.9 124.821L1748.26 124.821L1748.26 87.036L1769.2 87.036Q1773.57 87.036 1778.29 87.723Q1783 88.41 1786.8 90.3565Q1790.6 92.303 1793.01 95.8525ZM1500.14 113.257Q1504.6 122.302 1504.6 136.042Q1504.6 149.553 1500.14 158.713Q1495.67 167.873 1488.23 173.369Q1480.79 178.865 1471.05 181.27Q1461.32 183.674 1450.79 183.674L1432.24 183.674L1432.24 88.868L1451.7 88.868Q1461.78 88.868 1471.28 91.158Q1480.79 93.448 1488.23 98.8295Q1495.67 104.211 1500.14 113.257ZM484.177 154.362L504.787 98.715L524.94 154.362L484.177 154.362Z" />
    </g>
    <g id="TECHTOREHAB" transform="translate(121 789.0001)">
      <g id="TECH" fill="#1890FF">
        <path d="M154.204 86.384Q151.196 89.84 146.78 91.856Q142.364 93.872 136.604 93.872Q131.356 93.872 126.908 92.144Q122.46 90.416 119.196 87.248Q115.932 84.08 114.076 79.664Q112.22 75.248 112.22 69.936Q112.22 64.496 114.108 60.08Q115.996 55.664 119.324 52.56Q122.652 49.456 127.132 47.792Q131.612 46.128 136.796 46.128Q141.596 46.128 146.236 47.824Q150.876 49.52 153.756 52.784L146.332 60.208Q144.796 58.096 142.3 57.072Q139.804 56.048 137.18 56.048Q134.3 56.048 131.9 57.104Q129.5 58.16 127.772 60.016Q126.044 61.872 125.084 64.4Q124.124 66.928 124.124 69.936Q124.124 73.008 125.084 75.568Q126.044 78.128 127.74 79.952Q129.436 81.776 131.804 82.8Q134.172 83.824 136.988 83.824Q140.252 83.824 142.684 82.544Q145.116 81.264 146.588 79.216L154.204 86.384ZM57.692 92.656L57.692 56.688L70.492 56.688L70.492 47.344L33.948 47.344L33.948 56.688L46.748 56.688L46.748 92.656L57.692 92.656ZM75.484 47.344L75.484 92.656L107.1 92.656L107.1 83.312L86.044 83.312L86.044 73.904L104.86 73.904L104.86 65.136L86.044 65.136L86.044 56.56L105.948 56.56L105.948 47.344L75.484 47.344ZM187.484 73.712L187.484 92.656L198.428 92.656L198.428 47.344L187.484 47.344L187.484 64.496L169.82 64.496L169.82 47.344L158.876 47.344L158.876 92.656L169.82 92.656L169.82 73.712L187.484 73.712Z" />
      </g>
      <g id="TO" fill="#1890FF">
        <path d="M288.604 79.536Q290.396 75.184 290.396 70Q290.396 64.816 288.604 60.464Q286.812 56.112 283.644 52.944Q280.476 49.776 276.156 47.984Q271.836 46.192 266.78 46.192Q261.724 46.192 257.404 47.984Q253.084 49.776 249.916 52.944Q246.748 56.112 244.956 60.464Q243.164 64.816 243.164 70Q243.164 75.184 244.956 79.536Q246.748 83.888 249.916 87.056Q253.084 90.224 257.404 92.016Q261.724 93.808 266.78 93.808Q271.836 93.808 276.156 92.016Q280.476 90.224 283.644 87.056Q286.812 83.888 288.604 79.536ZM219.036 92.656L223.644 92.656L223.644 51.44L238.812 51.44L238.812 47.344L203.868 47.344L203.868 51.44L219.036 51.44L219.036 92.656ZM284.252 62.492Q285.532 66.07 285.532 70.032Q285.532 73.994 284.252 77.572Q282.972 81.15 280.54 83.8335Q278.108 86.517 274.62 88.1145Q271.132 89.712 266.78 89.712Q262.428 89.712 258.94 88.1145Q255.452 86.517 253.02 83.8335Q250.588 81.15 249.308 77.572Q248.028 73.994 248.028 70.032Q248.028 66.07 249.308 62.492Q250.588 58.914 253.02 56.1985Q255.452 53.483 258.94 51.8855Q262.428 50.288 266.78 50.288Q271.132 50.288 274.62 51.8855Q278.108 53.483 280.54 56.1985Q282.972 58.914 284.252 62.492Z" />
      </g>
      <g id="REHAB" fill="#1890FF">
        <path d="M322.908 92.656L313.07 74.672L309.34 74.672L309.34 92.656L298.652 92.656L298.652 47.344L315.932 47.344Q319.196 47.344 322.3 48.016Q325.404 48.688 327.868 50.288Q330.332 51.888 331.804 54.512Q333.276 57.136 333.276 61.04Q333.276 65.648 330.78 68.784Q328.284 71.92 323.868 73.264L335.708 92.656L322.908 92.656ZM341.084 92.656L341.084 47.344L371.548 47.344L371.548 56.56L351.644 56.56L351.644 65.136L370.46 65.136L370.46 73.904L351.644 73.904L351.644 83.312L372.7 83.312L372.7 92.656L341.084 92.656ZM408.54 73.712L408.54 92.656L419.484 92.656L419.484 47.344L408.54 47.344L408.54 64.496L390.876 64.496L390.876 47.344L379.932 47.344L379.932 92.656L390.876 92.656L390.876 73.712L408.54 73.712ZM459.548 92.656L456.028 83.76L438.492 83.76L435.164 92.656L423.26 92.656L442.268 47.344L452.892 47.344L471.708 92.656L459.548 92.656ZM509.34 85.712Q510.812 83.184 510.812 79.472Q510.812 77.232 510.076 75.44Q509.34 73.648 508.092 72.304Q506.844 70.96 505.148 70.096Q503.452 69.232 501.532 68.912L501.532 68.784Q504.86 67.696 506.908 65.232Q508.956 62.768 508.956 58.992Q508.956 55.536 507.548 53.296Q506.14 51.056 503.9 49.744Q501.66 48.432 498.908 47.888Q496.156 47.344 493.532 47.344L475.484 47.344L475.484 92.656L493.532 92.656Q496.796 92.656 499.9 91.984Q503.004 91.312 505.436 89.776Q507.868 88.24 509.34 85.712ZM496.636 57.104Q498.396 58.16 498.396 60.464Q498.396 62.896 496.7 64.144Q495.004 65.392 491.932 65.392L486.044 65.392L486.044 56.048L491.42 56.048Q494.876 56.048 496.636 57.104ZM322.46 61.232Q322.46 59.632 321.784 58.64Q321.109 57.648 320.048 57.104Q318.987 56.56 317.668 56.368Q316.35 56.176 315.128 56.176L309.276 56.176L309.276 66.736L314.485 66.736Q315.836 66.736 317.251 66.512Q318.666 66.288 319.823 65.712Q320.981 65.136 321.72 64.048Q322.46 62.96 322.46 61.232ZM447.388 59.44L441.628 74.992L453.02 74.992L447.388 59.44ZM497.756 74.544Q499.868 75.632 499.868 78.448Q499.868 80.112 499.164 81.168Q498.46 82.224 497.34 82.8Q496.22 83.376 494.844 83.6Q493.468 83.824 492.188 83.824L486.044 83.824L486.044 73.456L492.124 73.456Q495.644 73.456 497.756 74.544Z" />
      </g>
    </g>
    <path d="M0 1L1575 1" transform="translate(210 1198)" id="Line" fill="none" stroke="#39FF81" stroke-width="3" />
  </g>
</svg>