<?xml version="1.0" standalone="no"?>
<svg viewBox="0 0 200 200" xmlns="http://www.w3.org/2000/svg">
  <path fill="#0F62FE" d="M22.1,-40.5C28.2,-34.9,32.3,-27.9,44.7,-21C57.1,-14,77.9,-7,84.8,4C91.7,15,84.8,30,76.7,44.4C68.6,58.8,59.2,72.6,46.2,81.3C33.2,90.1,16.6,93.9,4.3,86.4C-8,78.9,-15.9,60.1,-24.7,48.9C-33.5,37.7,-43.2,34.1,-53.6,27.2C-64,20.3,-75.1,10.2,-79.7,-2.6C-84.2,-15.4,-82.2,-30.8,-72.7,-39.4C-63.3,-47.9,-46.5,-49.6,-33.1,-51C-19.8,-52.4,-9.9,-53.6,-0.9,-52C8,-50.4,16.1,-46.1,22.1,-40.5Z" transform="translate(100 100)" />
</svg>
