<?xml version="1.0" encoding="utf-8"?>
<svg width="2000px" height="2000px" viewBox="0 0 2000 2000" version="1.1" xmlns:xlink="http://www.w3.org/1999/xlink" xmlns="http://www.w3.org/2000/svg">
  <desc>Created with Lunacy</desc>
  <defs>
    <path d="M0 0L799.001 0L799.001 799.001L0 799.001L0 0Z" id="path_1" />
    <rect width="2000" height="2000" id="artboard_1" />
    <clipPath id="clip_1">
      <use xlink:href="#artboard_1" clip-rule="evenodd" />
    </clipPath>
    <clipPath id="mask_1">
      <use xlink:href="#path_1" />
    </clipPath>
  </defs>
  <g id="Full-HD" clip-path="url(#clip_1)">
    <use xlink:href="#artboard_1" stroke="none" fill="#FFFFFF" />
    <g id="COMING-SOON-to-TECHTOREHAB" transform="translate(387 1097)">
      <g id="COMING-SOON">
        <path d="M104.541 206.003Q115.194 200.359 121.872 191.296L109.311 182.71Q104.223 190.024 96.432 193.84Q88.641 197.656 79.101 197.656Q69.402 197.656 61.5315 194.158Q53.661 190.66 48.1755 184.538Q42.69 178.417 39.7485 170.149Q36.807 161.881 36.807 152.341Q36.807 143.119 39.828 134.93Q42.849 126.742 48.414 120.541Q53.979 114.34 61.8495 110.762Q69.72 107.185 79.578 107.185Q88.323 107.185 95.8755 110.921Q103.428 114.658 107.562 120.382L119.964 110.842Q116.784 106.549 112.332 103.289Q107.88 100.03 102.474 97.804Q97.068 95.578 91.185 94.465Q85.302 93.352 79.578 93.352Q66.699 93.352 55.728 97.645Q44.757 101.938 36.7275 109.649Q28.698 117.361 24.1665 128.253Q19.635 139.144 19.635 152.341Q19.635 165.379 24.087 176.27Q28.539 187.162 36.4095 195.033Q44.28 202.903 55.1715 207.275Q66.063 211.648 78.942 211.648Q93.888 211.648 104.541 206.003ZM246.926 176.27Q251.457 165.379 251.457 152.341Q251.457 139.144 246.926 128.253Q242.394 117.361 234.444 109.649Q226.494 101.938 215.523 97.645Q204.552 93.352 191.673 93.352Q178.794 93.352 167.902 97.645Q157.011 101.938 149.061 109.649Q141.111 117.361 136.659 128.253Q132.207 139.144 132.207 152.341Q132.207 165.379 136.659 176.27Q141.111 187.162 149.061 195.033Q157.011 202.903 167.902 207.275Q178.794 211.648 191.673 211.648Q204.552 211.648 215.523 207.275Q226.494 202.903 234.444 195.033Q242.394 187.162 246.926 176.27ZM654.284 110.524Q662.154 113.863 667.242 119.428L678.213 107.98Q671.217 101.302 660.643 97.327Q650.07 93.352 636.555 93.352Q623.676 93.352 612.705 97.645Q601.734 101.938 593.704 109.649Q585.675 117.361 581.143 128.253Q576.612 139.144 576.612 152.341Q576.612 165.379 581.064 176.27Q585.516 187.162 593.466 195.033Q601.416 202.903 612.466 207.275Q623.517 211.648 636.714 211.648Q649.116 211.648 659.61 209.104Q670.104 206.56 679.008 201.79L679.008 147.253L638.463 147.253L638.463 160.609L663.426 160.609L663.426 191.932Q658.497 194.635 651.819 196.066Q645.141 197.497 637.191 197.497Q627.174 197.497 619.065 193.999Q610.956 190.501 605.391 184.379Q599.826 178.258 596.805 169.99Q593.784 161.722 593.784 152.341Q593.784 143.119 596.805 134.93Q599.826 126.742 605.391 120.541Q610.956 114.34 618.906 110.762Q626.856 107.185 636.714 107.185Q646.413 107.185 654.284 110.524ZM801.756 117.043Q798.417 112.432 792.693 109.49Q786.969 106.549 779.814 106.549Q775.998 106.549 772.103 107.582Q768.207 108.616 765.027 110.921Q761.847 113.227 759.859 116.645Q757.872 120.064 757.872 124.834Q757.872 129.445 759.701 132.546Q761.529 135.646 764.63 137.792Q767.73 139.939 771.944 141.449Q776.157 142.96 780.927 144.55Q786.651 146.299 792.534 148.525Q798.417 150.751 803.187 154.408Q807.957 158.065 810.978 163.55Q813.999 169.036 813.999 177.463Q813.999 186.208 810.74 192.647Q807.48 199.087 802.074 203.3Q796.668 207.514 789.593 209.581Q782.517 211.648 775.044 211.648Q764.391 211.648 754.453 207.514Q744.516 203.38 737.997 195.271L750.24 184.936Q754.215 190.819 760.893 194.476Q767.571 198.133 775.362 198.133Q779.337 198.133 783.312 197.02Q787.287 195.907 790.547 193.522Q793.806 191.137 795.873 187.559Q797.94 183.982 797.94 178.894Q797.94 173.806 795.794 170.387Q793.647 166.969 789.99 164.584Q786.333 162.199 781.484 160.529Q776.634 158.86 771.228 157.111Q765.822 155.521 760.575 153.215Q755.328 150.91 751.194 147.332Q747.06 143.755 744.516 138.508Q741.972 133.261 741.972 125.47Q741.972 117.043 745.391 111.001Q748.809 104.959 754.294 100.984Q759.78 97.009 766.697 95.1805Q773.613 93.352 780.609 93.352Q790.467 93.352 799.053 96.85Q807.639 100.348 812.886 106.231L801.756 117.043ZM945.254 176.27Q949.785 165.379 949.785 152.341Q949.785 139.144 945.254 128.253Q940.722 117.361 932.772 109.649Q924.822 101.938 913.851 97.645Q902.88 93.352 890.001 93.352Q877.122 93.352 866.231 97.645Q855.339 101.938 847.389 109.649Q839.439 117.361 834.987 128.253Q830.535 139.144 830.535 152.341Q830.535 165.379 834.987 176.27Q839.439 187.162 847.389 195.033Q855.339 202.903 866.231 207.275Q877.122 211.648 890.001 211.648Q902.88 211.648 913.851 207.275Q924.822 202.903 932.772 195.033Q940.722 187.162 945.254 176.27ZM1084.78 152.341Q1084.78 165.379 1080.24 176.27Q1075.71 187.162 1067.76 195.033Q1059.81 202.903 1048.84 207.275Q1037.87 211.648 1024.99 211.648Q1012.11 211.648 1001.22 207.275Q990.33 202.903 982.38 195.033Q974.43 187.162 969.978 176.27Q965.526 165.379 965.526 152.341Q965.526 139.144 969.978 128.253Q974.43 117.361 982.38 109.649Q990.33 101.938 1001.22 97.645Q1012.11 93.352 1024.99 93.352Q1037.87 93.352 1048.84 97.645Q1059.81 101.938 1067.76 109.649Q1075.71 117.361 1080.24 128.253Q1084.78 139.144 1084.78 152.341ZM331.116 182.71L331.434 182.71L364.665 96.214L389.151 96.214L389.151 208.786L373.41 208.786L373.41 114.658L373.092 114.658L335.727 208.786L325.71 208.786L288.504 114.658L288.186 114.658L288.186 208.786L272.922 208.786L272.922 96.214L297.408 96.214L331.116 182.71ZM416.499 208.786L432.24 208.786L432.24 96.214L416.499 96.214L416.499 208.786ZM538.929 186.208L539.247 186.208L539.247 96.214L554.988 96.214L554.988 208.786L535.113 208.786L475.647 116.884L475.329 116.884L475.329 208.786L459.588 208.786L459.588 96.214L480.099 96.214L538.929 186.208ZM1185.9 186.208L1185.58 186.208L1126.75 96.214L1106.24 96.214L1106.24 208.786L1121.98 208.786L1121.98 116.884L1122.3 116.884L1181.77 208.786L1201.64 208.786L1201.64 96.214L1185.9 96.214L1185.9 186.208ZM231.423 134.93Q234.444 143.119 234.444 152.341Q234.444 161.722 231.423 169.99Q228.402 178.258 222.837 184.379Q217.272 190.501 209.322 193.999Q201.372 197.497 191.673 197.497Q181.974 197.497 174.183 193.999Q166.392 190.501 160.827 184.379Q155.262 178.258 152.241 169.99Q149.22 161.722 149.22 152.341Q149.22 143.119 152.241 134.93Q155.262 126.742 160.747 120.541Q166.233 114.34 174.104 110.762Q181.974 107.185 191.673 107.185Q201.531 107.185 209.402 110.762Q217.272 114.34 222.837 120.541Q228.402 126.742 231.423 134.93ZM929.751 134.93Q932.772 143.119 932.772 152.341Q932.772 161.722 929.751 169.99Q926.73 178.258 921.165 184.379Q915.6 190.501 907.65 193.999Q899.7 197.497 890.001 197.497Q880.302 197.497 872.511 193.999Q864.72 190.501 859.155 184.379Q853.59 178.258 850.569 169.99Q847.548 161.722 847.548 152.341Q847.548 143.119 850.569 134.93Q853.59 126.742 859.076 120.541Q864.561 114.34 872.432 110.762Q880.302 107.185 890.001 107.185Q899.859 107.185 907.73 110.762Q915.6 114.34 921.165 120.541Q926.73 126.742 929.751 134.93ZM1067.76 152.341Q1067.76 143.119 1064.74 134.93Q1061.72 126.742 1056.16 120.541Q1050.59 114.34 1042.72 110.762Q1034.85 107.185 1024.99 107.185Q1015.29 107.185 1007.42 110.762Q999.552 114.34 994.066 120.541Q988.581 126.742 985.56 134.93Q982.539 143.119 982.539 152.341Q982.539 161.722 985.56 169.99Q988.581 178.258 994.146 184.379Q999.711 190.501 1007.5 193.999Q1015.29 197.497 1024.99 197.497Q1034.69 197.497 1042.64 193.999Q1050.59 190.501 1056.16 184.379Q1061.72 178.258 1064.74 169.99Q1067.76 161.722 1067.76 152.341Z" />
      </g>
      <g id="to">
        <path d="M566.595 360.437L587.583 360.437L587.583 351.374L566.595 351.374L566.595 330.386L555.783 330.386L555.783 351.374L540.36 351.374L540.36 360.437L555.783 360.437L555.783 406.865Q555.783 413.066 557.612 416.882Q559.44 420.698 562.302 422.924Q565.164 425.15 568.503 425.945Q571.842 426.74 574.863 426.74Q578.52 426.74 581.62 426.184Q584.721 425.627 587.583 424.514L587.106 415.133Q584.88 416.246 582.416 416.882Q579.951 417.518 577.725 417.518Q575.34 417.518 573.273 416.962Q571.206 416.405 569.695 414.895Q568.185 413.384 567.39 410.681Q566.595 407.978 566.595 403.844L566.595 360.437ZM675.431 404.162Q678.372 397.007 678.372 388.58Q678.372 380.153 675.431 372.998Q672.489 365.843 667.242 360.596Q661.995 355.349 654.681 352.408Q647.367 349.466 638.622 349.466Q630.036 349.466 622.722 352.408Q615.408 355.349 610.161 360.596Q604.914 365.843 601.973 372.998Q599.031 380.153 599.031 388.58Q599.031 397.007 601.973 404.162Q604.914 411.317 610.161 416.564Q615.408 421.811 622.722 424.753Q630.036 427.694 638.622 427.694Q647.367 427.694 654.681 424.753Q661.995 421.811 667.242 416.564Q672.489 411.317 675.431 404.162ZM664.937 376.893Q666.924 382.379 666.924 388.58Q666.924 394.781 664.937 400.267Q662.949 405.752 659.292 409.807Q655.635 413.861 650.388 416.167Q645.141 418.472 638.622 418.472Q632.103 418.472 626.936 416.167Q621.768 413.861 618.111 409.807Q614.454 405.752 612.466 400.267Q610.479 394.781 610.479 388.58Q610.479 382.379 612.466 376.893Q614.454 371.408 618.111 367.354Q621.768 363.299 626.936 360.914Q632.103 358.529 638.622 358.529Q645.141 358.529 650.388 360.914Q655.635 363.299 659.292 367.354Q662.949 371.408 664.937 376.893Z" />
      </g>
      <g id="TECH">
        <path d="M399.14 585.94Q393.735 592.15 385.8 595.773Q377.865 599.395 367.515 599.395Q358.085 599.395 350.092 596.29Q342.1 593.185 336.235 587.492Q330.37 581.8 327.035 573.865Q323.7 565.93 323.7 556.385Q323.7 546.61 327.092 538.675Q330.485 530.74 336.465 525.163Q342.445 519.585 350.495 516.595Q358.545 513.605 367.86 513.605Q376.485 513.605 384.822 516.653Q393.16 519.7 398.335 525.565L384.995 538.905Q382.235 535.11 377.75 533.27Q373.265 531.43 368.55 531.43Q363.375 531.43 359.062 533.328Q354.75 535.225 351.645 538.56Q348.54 541.895 346.815 546.438Q345.09 550.98 345.09 556.385Q345.09 561.905 346.815 566.505Q348.54 571.105 351.587 574.383Q354.635 577.66 358.89 579.5Q363.145 581.34 368.205 581.34Q374.07 581.34 378.44 579.04Q382.81 576.74 385.455 573.06L399.14 585.94ZM225.72 597.21L225.72 532.58L248.72 532.58L248.72 515.79L183.055 515.79L183.055 532.58L206.055 532.58L206.055 597.21L225.72 597.21ZM257.69 515.79L257.69 597.21L314.5 597.21L314.5 580.42L276.665 580.42L276.665 563.515L310.475 563.515L310.475 547.76L276.665 547.76L276.665 532.35L312.43 532.35L312.43 515.79L257.69 515.79ZM458.94 563.17L458.94 597.21L478.605 597.21L478.605 515.79L458.94 515.79L458.94 546.61L427.2 546.61L427.2 515.79L407.535 515.79L407.535 597.21L427.2 597.21L427.2 563.17L458.94 563.17Z" />
      </g>
      <g id="TO">
        <path d="M640.64 573.635Q643.86 565.815 643.86 556.5Q643.86 547.185 640.64 539.365Q637.42 531.545 631.727 525.853Q626.035 520.16 618.272 516.94Q610.51 513.72 601.425 513.72Q592.34 513.72 584.578 516.94Q576.815 520.16 571.122 525.853Q565.43 531.545 562.21 539.365Q558.99 547.185 558.99 556.5Q558.99 565.815 562.21 573.635Q565.43 581.455 571.122 587.148Q576.815 592.84 584.578 596.06Q592.34 599.28 601.425 599.28Q610.51 599.28 618.272 596.06Q626.035 592.84 631.727 587.148Q637.42 581.455 640.64 573.635ZM515.635 597.21L523.915 597.21L523.915 523.15L551.17 523.15L551.17 515.79L488.38 515.79L488.38 523.15L515.635 523.15L515.635 597.21ZM632.82 543.009Q635.12 549.438 635.12 556.557Q635.12 563.677 632.82 570.106Q630.52 576.535 626.15 581.357Q621.78 586.179 615.513 589.049Q609.245 591.92 601.425 591.92Q593.605 591.92 587.337 589.049Q581.07 586.179 576.7 581.357Q572.33 576.535 570.03 570.106Q567.73 563.677 567.73 556.557Q567.73 549.438 570.03 543.009Q572.33 536.58 576.7 531.7Q581.07 526.821 587.337 523.951Q593.605 521.08 601.425 521.08Q609.245 521.08 615.513 523.951Q621.78 526.821 626.15 531.7Q630.52 536.58 632.82 543.009Z" />
      </g>
      <g id="REHAB">
        <path d="M702.28 597.21L684.602 564.895L677.9 564.895L677.9 597.21L658.695 597.21L658.695 515.79L689.745 515.79Q695.61 515.79 701.188 516.997Q706.765 518.205 711.193 521.08Q715.62 523.955 718.265 528.67Q720.91 533.385 720.91 540.4Q720.91 548.68 716.425 554.315Q711.94 559.95 704.005 562.365L725.28 597.21L702.28 597.21ZM734.94 597.21L734.94 515.79L789.68 515.79L789.68 532.35L753.915 532.35L753.915 547.76L787.725 547.76L787.725 563.515L753.915 563.515L753.915 580.42L791.75 580.42L791.75 597.21L734.94 597.21ZM856.15 563.17L856.15 597.21L875.815 597.21L875.815 515.79L856.15 515.79L856.15 546.61L824.41 546.61L824.41 515.79L804.745 515.79L804.745 597.21L824.41 597.21L824.41 563.17L856.15 563.17ZM947.805 597.21L941.48 581.225L909.97 581.225L903.99 597.21L882.6 597.21L916.755 515.79L935.845 515.79L969.655 597.21L947.805 597.21ZM1037.28 584.733Q1039.92 580.19 1039.92 573.52Q1039.92 569.495 1038.6 566.275Q1037.28 563.055 1035.03 560.64Q1032.79 558.225 1029.74 556.673Q1026.69 555.12 1023.24 554.545L1023.24 554.315Q1029.22 552.36 1032.91 547.932Q1036.58 543.505 1036.58 536.72Q1036.58 530.51 1034.05 526.485Q1031.53 522.46 1027.5 520.103Q1023.47 517.745 1018.53 516.768Q1013.58 515.79 1008.87 515.79L976.44 515.79L976.44 597.21L1008.87 597.21Q1014.73 597.21 1020.31 596.003Q1025.89 594.795 1030.26 592.035Q1034.63 589.275 1037.28 584.733ZM1014.45 533.328Q1017.61 535.225 1017.61 539.365Q1017.61 543.735 1014.56 545.978Q1011.52 548.22 1005.99 548.22L995.415 548.22L995.415 531.43L1005.08 531.43Q1011.28 531.43 1014.45 533.328ZM701.475 540.745Q701.475 537.87 700.261 536.088Q699.047 534.305 697.141 533.328Q695.234 532.35 692.865 532.005Q690.496 531.66 688.3 531.66L677.785 531.66L677.785 550.635L687.145 550.635Q689.573 550.635 692.115 550.233Q694.658 549.83 696.738 548.795Q698.817 547.76 700.146 545.805Q701.475 543.85 701.475 540.745ZM925.955 537.525L915.605 565.47L936.075 565.47L925.955 537.525ZM1016.46 564.665Q1020.26 566.62 1020.26 571.68Q1020.26 574.67 1018.99 576.568Q1017.72 578.465 1015.71 579.5Q1013.7 580.535 1011.23 580.938Q1008.76 581.34 1006.45 581.34L995.415 581.34L995.415 562.71L1006.34 562.71Q1012.66 562.71 1016.46 564.665Z" />
      </g>
    </g>
    <path d="M0 4L1173 0" transform="translate(424 1343)" id="Line" fill="none" stroke="#1890FF" stroke-width="7" />
    <g id="code" transform="translate(601 238)">
      <path d="M0 0L799.001 0L799.001 799.001L0 799.001L0 0Z" id="Background" fill="#39FF81" stroke="none" />
      <g clip-path="url(#mask_1)">
        <g id="Group" transform="translate(75.82379 530.8072)">
          <g id="Group">
            <path d="M91.4246 66.6087L379.373 66.6087C385.837 66.6087 391.077 71.8491 391.077 78.313C391.077 84.7767 385.837 90.0171 379.373 90.0171L335.38 90.0171L335.38 169.983L346.967 169.983C361.202 169.983 372.782 181.563 372.782 195.797L372.782 242.379C372.782 256.615 361.201 268.194 346.967 268.194L300.385 268.194C286.149 268.194 274.57 256.613 274.57 242.379L274.57 195.797C274.57 181.562 286.151 169.982 300.385 169.982L311.972 169.982L311.972 90.017L181.924 90.017L181.924 163.561C181.924 177.551 170.541 188.934 156.551 188.934L98.2098 188.934L98.2098 200.521C98.2098 214.756 86.6306 226.335 72.3968 226.335L25.8145 226.335C11.5792 226.335 0 214.755 0 200.521L0 153.938C0 139.703 11.5808 128.124 25.8145 128.124L72.3968 128.124C86.6306 128.124 98.2098 139.705 98.2098 153.938L98.2098 165.525L156.551 165.525C157.634 165.525 158.516 164.644 158.516 163.561L158.516 90.017L88.6234 90.017C77.2595 90.017 68.0164 80.7738 68.0164 69.4115L68.0164 11.7041C68.0164 5.24031 73.2567 0 79.7205 0C86.1842 0 91.4246 5.24031 91.4246 11.7041L91.4246 66.6087ZM74.8016 200.521C74.8016 201.847 73.7233 202.927 72.3968 202.927L25.8145 202.927C24.4881 202.927 23.4082 201.849 23.4082 200.521L23.4082 153.938C23.4082 152.612 24.4865 151.532 25.8145 151.532L72.3968 151.532C73.7233 151.532 74.8016 152.61 74.8016 153.938L74.8016 200.521ZM349.372 195.797C349.372 194.47 348.293 193.391 346.965 193.391L300.383 193.391C299.055 193.391 297.977 194.47 297.977 195.797L297.977 242.379C297.977 243.707 299.057 244.786 300.383 244.786L346.965 244.786C348.293 244.786 349.372 243.706 349.372 242.379L349.372 195.797Z" id="Shape" fill="#000000" fill-rule="evenodd" stroke="none" />
          </g>
        </g>
        <g id="Group" transform="translate(209.2801 216.3072)">
          <g id="Group">
            <path d="M247.368 0L11.7041 0C5.24032 0 0 5.24032 0 11.7041C0 18.1679 5.24032 23.4082 11.7041 23.4082L247.368 23.4082C253.832 23.4082 259.073 18.1679 259.073 11.7041C259.073 5.24032 253.832 0 247.368 0L247.368 0Z" id="Shape" fill="#000000" stroke="none" />
          </g>
        </g>
        <g id="Group" transform="translate(494.462 214.3082)">
          <g id="Group">
            <path d="M11.7041 0C5.24031 0 0 5.24031 0 11.7041L0 12.9822C0 19.4475 5.24031 24.6863 11.7041 24.6863C18.1679 24.6863 23.4082 19.446 23.4082 12.9822L23.4082 11.7041C23.4082 5.24031 18.1679 0 11.7041 0L11.7041 0Z" id="Shape" fill="#000000" stroke="none" />
          </g>
        </g>
        <g id="Group" transform="translate(530.3826 214.3082)">
          <g id="Group">
            <path d="M11.7041 0C5.24032 0 0 5.24031 0 11.7041L0 12.9822C0 19.4475 5.24032 24.6863 11.7041 24.6863C18.1679 24.6863 23.4082 19.446 23.4082 12.9822L23.4082 11.7041C23.4082 5.24031 18.1679 0 11.7041 0L11.7041 0Z" id="Shape" fill="#000000" stroke="none" />
          </g>
        </g>
        <g id="Group" transform="translate(566.3033 214.3082)">
          <g id="Group">
            <path d="M11.7041 0C5.24032 0 0 5.24031 0 11.7041L0 12.9822C0 19.4475 5.24032 24.6863 11.7041 24.6863C18.1679 24.6863 23.4082 19.446 23.4082 12.9822L23.4082 11.7041C23.4082 5.24031 18.1679 0 11.7041 0L11.7041 0Z" id="Shape" fill="#000000" stroke="none" />
          </g>
        </g>
        <g id="Group" transform="translate(75.82379 0)">
          <g id="Group">
            <path d="M574.957 41.857L621.539 41.857C635.773 41.857 647.352 53.4378 647.352 67.6715L647.352 114.254C647.352 128.489 635.771 140.068 621.537 140.068L574.955 140.068C560.721 140.068 549.142 128.488 549.142 114.254L549.142 102.667L490.801 102.667C489.718 102.667 488.836 103.548 488.836 104.631L488.836 178.178L548.148 178.178C565.34 178.178 579.328 192.164 579.328 209.357L579.328 322.031C579.328 328.495 574.087 333.735 567.623 333.735C561.16 333.735 555.919 328.495 555.919 322.031L555.919 275.126L91.4246 275.126L91.4246 494.73C91.4246 501.194 86.1842 506.435 79.7205 506.435C73.2567 506.435 68.0164 501.194 68.0164 494.73L68.0164 209.357C68.0164 192.166 82.0035 178.178 99.1961 178.178L158.516 178.178L158.516 104.631C158.516 103.548 157.634 102.667 156.551 102.667L98.2098 102.667L98.2098 114.254C98.2098 128.489 86.6306 140.068 72.3968 140.068L25.8145 140.068C11.5792 140.068 0 128.488 0 114.254L0 67.6715C0 53.4362 11.5808 41.8569 25.8145 41.8569L72.3968 41.8569C86.6306 41.8569 98.2098 53.4377 98.2098 67.6715L98.2098 79.2585L156.551 79.2585C170.541 79.2585 181.924 90.6412 181.924 104.631L181.924 178.18L311.972 178.18L311.972 98.2114L300.385 98.2114C286.149 98.2114 274.57 86.6306 274.57 72.3968L274.57 25.8145C274.57 11.5792 286.151 0 300.385 0L346.967 0C361.201 0 372.78 11.5792 372.782 25.813L372.782 72.3953C372.782 86.6306 361.201 98.2098 346.967 98.2098L335.38 98.2098L335.38 178.178L465.43 178.178L465.43 104.631C465.43 90.6412 476.812 79.2586 490.802 79.2586L549.143 79.2586L549.143 67.6715C549.143 53.4362 560.723 41.857 574.957 41.857ZM297.98 72.3953C297.98 73.7217 299.058 74.8016 300.386 74.8016L346.969 74.8016C348.297 74.8016 349.375 73.7217 349.375 72.3953L349.375 25.813C349.375 24.485 348.295 23.4066 346.969 23.4066L300.386 23.4066C299.058 23.4066 297.98 24.4865 297.98 25.813L297.98 72.3953ZM74.8016 114.252C74.8016 115.579 73.7233 116.659 72.3968 116.659L25.8145 116.659C24.4881 116.659 23.4082 115.58 23.4082 114.252L23.4082 67.6699C23.4082 66.3434 24.4865 65.2635 25.8145 65.2635L72.3968 65.2635C73.7233 65.2635 74.8016 66.3419 74.8016 67.6699L74.8016 114.252ZM621.537 116.659C622.865 116.659 623.944 115.579 623.944 114.252L623.944 67.6699C623.944 66.3419 622.864 65.2635 621.537 65.2635L574.955 65.2635C573.629 65.2635 572.55 66.3434 572.55 67.6699L572.55 114.252C572.55 115.58 573.628 116.659 574.955 116.659L621.537 116.659ZM548.148 201.587C552.433 201.587 555.919 205.073 555.919 209.357L555.919 251.718L91.4246 251.718L91.4246 209.357C91.4246 205.071 94.9108 201.587 99.1961 201.587L548.148 201.587Z" id="Shape" fill="#000000" fill-rule="evenodd" stroke="none" />
          </g>
        </g>
        <g id="Group" transform="translate(491.2753 358.1078)">
          <g id="Group">
            <path d="M159.505 300.825L206.087 300.825C220.321 300.825 231.9 312.406 231.902 326.639L231.902 373.222C231.902 387.457 220.321 399.036 206.087 399.036L159.505 399.036C145.271 399.036 133.692 387.455 133.692 373.222L133.692 361.635L75.351 361.635C61.3607 361.635 49.978 350.252 49.978 336.262L49.978 262.718L11.7041 262.718C5.24032 262.718 0 257.478 0 251.014C0 244.55 5.24032 239.31 11.7041 239.31L140.471 239.31L140.471 11.7041C140.471 5.24031 145.711 0 152.175 0C158.639 0 163.879 5.24031 163.879 11.7041L163.879 242.112C163.879 253.475 154.634 262.718 143.272 262.718L73.3862 262.718L73.3862 336.262C73.3862 337.345 74.2679 338.226 75.3509 338.226L133.692 338.226L133.692 326.639C133.692 312.404 145.271 300.825 159.505 300.825ZM206.086 375.626C207.414 375.626 208.492 374.547 208.492 373.22L208.492 326.638C208.492 325.31 207.412 324.231 206.086 324.231L159.503 324.231C158.177 324.231 157.099 325.311 157.099 326.638L157.099 373.22C157.099 374.548 158.177 375.626 159.503 375.626L206.086 375.626Z" id="Shape" fill="#000000" fill-rule="evenodd" stroke="none" />
          </g>
        </g>
        <g id="Group" transform="translate(223.2879 368.5482)">
          <g id="Group">
            <path d="M28.2564 63.7479L72.0219 19.9824C76.5928 15.41 76.5928 7.99896 72.0219 3.42812C67.4511 -1.14272 60.0401 -1.14272 55.4708 3.42812L3.42812 55.4707C-1.14272 60.0416 -1.14272 67.4526 3.42812 72.0219L55.4708 124.064C57.7554 126.349 60.7517 127.493 63.7463 127.493C66.741 127.493 69.7373 126.351 72.0219 124.064C76.5927 119.494 76.5927 112.083 72.0219 107.513L28.2564 63.7479L28.2564 63.7479Z" id="Shape" fill="#000000" stroke="none" />
          </g>
        </g>
        <g id="Group" transform="translate(500.2614 368.5482)">
          <g id="Group">
            <path d="M72.0219 55.4708L19.9793 3.42812C15.4084 -1.14272 7.99737 -1.14272 3.42812 3.42812C-1.14269 7.99896 -1.14269 15.41 3.42812 19.9793L47.1937 63.7448L3.42812 107.51C-1.14269 112.083 -1.14269 119.494 3.42812 124.065C5.71275 126.349 8.70902 127.493 11.7037 127.493C14.6984 127.493 17.6946 126.351 19.9793 124.065L72.022 72.0219C76.5927 67.4511 76.5927 60.04 72.0219 55.4708L72.0219 55.4708Z" id="Shape" fill="#000000" stroke="none" />
          </g>
        </g>
        <g id="Group" transform="translate(319.4739 375.4598)">
          <g id="Group">
            <path d="M69.1191 1.38238C63.4169 -1.66225 56.3273 0.489742 53.2811 6.19353L1.38207 103.364C-1.66256 109.065 0.491004 116.156 6.19322 119.202C7.94884 120.14 9.83554 120.585 11.6973 120.585C15.878 120.585 19.9229 118.339 22.0312 114.392L73.9303 17.2219C76.9749 11.5197 74.8213 4.42856 69.1191 1.38238L69.1191 1.38238Z" id="Shape" fill="#000000" stroke="none" />
          </g>
        </g>
        <g id="Group" transform="translate(384.4873 470.1643)">
          <g id="Group">
            <path d="M11.7041 0C5.24031 0 0 5.24032 0 11.7041L0 12.8854C0 19.3492 5.24031 24.5895 11.7041 24.5895C18.1679 24.5895 23.4082 19.3492 23.4082 12.8854L23.4082 11.7041C23.4082 5.24032 18.1679 0 11.7041 0L11.7041 0Z" id="Shape" fill="#000000" stroke="none" />
          </g>
        </g>
        <g id="Group" transform="translate(422.6083 470.1643)">
          <g id="Group">
            <path d="M11.7041 0C5.24031 0 0 5.24032 0 11.7041L0 12.8854C0 19.3492 5.24031 24.5895 11.7041 24.5895C18.1679 24.5895 23.4082 19.3492 23.4082 12.8854L23.4082 11.7041C23.4082 5.24032 18.1679 0 11.7041 0L11.7041 0Z" id="Shape" fill="#000000" stroke="none" />
          </g>
        </g>
        <g id="Group" transform="translate(460.7278 470.1643)">
          <g id="Group">
            <path d="M11.7041 0C5.24032 0 0 5.24032 0 11.7041L0 12.8854C0 19.3492 5.24032 24.5895 11.7041 24.5895C18.1679 24.5895 23.4082 19.3492 23.4082 12.8854L23.4082 11.7041C23.4082 5.24032 18.1679 0 11.7041 0L11.7041 0Z" id="Shape" fill="#000000" stroke="none" />
          </g>
        </g>
      </g>
    </g>
  </g>
</svg>