<?xml version="1.0" encoding="utf-8"?>
<svg width="1920px" height="1080px" viewBox="0 0 1920 1080" version="1.1" xmlns:xlink="http://www.w3.org/1999/xlink" xmlns="http://www.w3.org/2000/svg">
  <desc>Created with Lunacy</desc>
  <defs>
    <rect width="1920" height="1080" id="artboard_1" />
    <clipPath id="clip_1">
      <use xlink:href="#artboard_1" clip-rule="evenodd" />
    </clipPath>
  </defs>
  <g id="Full-HD" clip-path="url(#clip_1)">
    <use xlink:href="#artboard_1" stroke="none" fill="#000000" fill-opacity="0.921568632" />
    <g id="TECHTOREHAB" transform="translate(174 313)">
      <g id="TECH" fill="#1890FF">
        <path d="M191.336 71.456Q187.764 75.56 182.52 77.954Q177.276 80.348 170.436 80.348Q164.204 80.348 158.922 78.296Q153.64 76.244 149.764 72.482Q145.888 68.72 143.684 63.476Q141.48 58.232 141.48 51.924Q141.48 45.464 143.722 40.22Q145.964 34.976 149.916 31.29Q153.868 27.604 159.188 25.628Q164.508 23.652 170.664 23.652Q176.364 23.652 181.874 25.666Q187.384 27.68 190.804 31.556L181.988 40.372Q180.164 37.864 177.2 36.648Q174.236 35.432 171.12 35.432Q167.7 35.432 164.85 36.686Q162 37.94 159.948 40.144Q157.896 42.348 156.756 45.35Q155.616 48.352 155.616 51.924Q155.616 55.572 156.756 58.612Q157.896 61.652 159.91 63.818Q161.924 65.984 164.736 67.2Q167.548 68.416 170.892 68.416Q174.768 68.416 177.656 66.896Q180.544 65.376 182.292 62.944L191.336 71.456ZM76.728 78.904L76.728 36.192L91.928 36.192L91.928 25.096L48.532 25.096L48.532 36.192L63.732 36.192L63.732 78.904L76.728 78.904ZM97.856 25.096L97.856 78.904L135.4 78.904L135.4 67.808L110.396 67.808L110.396 56.636L132.74 56.636L132.74 46.224L110.396 46.224L110.396 36.04L134.032 36.04L134.032 25.096L97.856 25.096ZM230.856 56.408L230.856 78.904L243.852 78.904L243.852 25.096L230.856 25.096L230.856 45.464L209.88 45.464L209.88 25.096L196.884 25.096L196.884 78.904L209.88 78.904L209.88 56.408L230.856 56.408Z" />
      </g>
      <g id="TO" fill="#1890FF">
        <path d="M350.936 63.324Q353.064 58.156 353.064 52Q353.064 45.844 350.936 40.676Q348.808 35.508 345.046 31.746Q341.284 27.984 336.154 25.856Q331.024 23.728 325.02 23.728Q319.016 23.728 313.886 25.856Q308.756 27.984 304.994 31.746Q301.232 35.508 299.104 40.676Q296.976 45.844 296.976 52Q296.976 58.156 299.104 63.324Q301.232 68.492 304.994 72.254Q308.756 76.016 313.886 78.144Q319.016 80.272 325.02 80.272Q331.024 80.272 336.154 78.144Q341.284 76.016 345.046 72.254Q348.808 68.492 350.936 63.324ZM268.324 78.904L273.796 78.904L273.796 29.96L291.808 29.96L291.808 25.096L250.312 25.096L250.312 29.96L268.324 29.96L268.324 78.904ZM345.768 43.0842Q347.288 47.3331 347.288 52.038Q347.288 56.7429 345.768 60.9917Q344.248 65.2406 341.36 68.4273Q338.472 71.6139 334.33 73.511Q330.188 75.408 325.02 75.408Q319.852 75.408 315.71 73.511Q311.568 71.6139 308.68 68.4273Q305.792 65.2406 304.272 60.9917Q302.752 56.7429 302.752 52.038Q302.752 47.3331 304.272 43.0842Q305.792 38.8354 308.68 35.6107Q311.568 32.3861 315.71 30.489Q319.852 28.592 325.02 28.592Q330.188 28.592 334.33 30.489Q338.472 32.3861 341.36 35.6107Q344.248 38.8354 345.768 43.0842Z" />
      </g>
      <g id="REHAB" fill="#1890FF">
        <path d="M391.672 78.904L379.989 57.548L375.56 57.548L375.56 78.904L362.868 78.904L362.868 25.096L383.388 25.096Q387.264 25.096 390.95 25.894Q394.636 26.692 397.562 28.592Q400.488 30.492 402.236 33.608Q403.984 36.724 403.984 41.36Q403.984 46.832 401.02 50.556Q398.056 54.28 392.812 55.876L406.872 78.904L391.672 78.904ZM413.256 78.904L413.256 25.096L449.432 25.096L449.432 36.04L425.796 36.04L425.796 46.224L448.14 46.224L448.14 56.636L425.796 56.636L425.796 67.808L450.8 67.808L450.8 78.904L413.256 78.904ZM493.36 56.408L493.36 78.904L506.356 78.904L506.356 25.096L493.36 25.096L493.36 45.464L472.384 45.464L472.384 25.096L459.388 25.096L459.388 78.904L472.384 78.904L472.384 56.408L493.36 56.408ZM553.932 78.904L549.752 68.34L528.928 68.34L524.976 78.904L510.84 78.904L533.412 25.096L546.028 25.096L568.372 78.904L553.932 78.904ZM613.06 70.658Q614.808 67.656 614.808 63.248Q614.808 60.588 613.934 58.46Q613.06 56.332 611.578 54.736Q610.096 53.14 608.082 52.114Q606.068 51.088 603.788 50.708L603.788 50.556Q607.74 49.264 610.172 46.338Q612.604 43.412 612.604 38.928Q612.604 34.824 610.932 32.164Q609.26 29.504 606.6 27.946Q603.94 26.388 600.672 25.742Q597.404 25.096 594.288 25.096L572.856 25.096L572.856 78.904L594.288 78.904Q598.164 78.904 601.85 78.106Q605.536 77.308 608.424 75.484Q611.312 73.66 613.06 70.658ZM597.974 36.686Q600.064 37.94 600.064 40.676Q600.064 43.564 598.05 45.046Q596.036 46.528 592.388 46.528L585.396 46.528L585.396 35.432L591.78 35.432Q595.884 35.432 597.974 36.686ZM391.14 41.588Q391.14 39.688 390.338 38.51Q389.536 37.332 388.276 36.686Q387.016 36.04 385.45 35.812Q383.884 35.584 382.433 35.584L375.484 35.584L375.484 48.124L381.67 48.124Q383.274 48.124 384.954 47.858Q386.635 47.592 388.009 46.908Q389.384 46.224 390.262 44.932Q391.14 43.64 391.14 41.588ZM539.492 39.46L532.652 57.928L546.18 57.928L539.492 39.46ZM599.304 57.396Q601.812 58.688 601.812 62.032Q601.812 64.008 600.976 65.262Q600.14 66.516 598.81 67.2Q597.48 67.884 595.846 68.15Q594.212 68.416 592.692 68.416L585.396 68.416L585.396 56.104L592.616 56.104Q596.796 56.104 599.304 57.396Z" />
      </g>
    </g>
    <g id="COVER-PHOTO" fill="#FFFFFF" transform="translate(0 342)">
      <path d="M332.4 261.3Q346.2 255 355.6 244.2L331.8 221.8Q327.2 228.2 319.6 232.2Q312 236.2 301.8 236.2Q293 236.2 285.6 233Q278.2 229.8 272.9 224.1Q267.6 218.4 264.6 210.4Q261.6 202.4 261.6 192.8Q261.6 183.4 264.6 175.5Q267.6 167.6 273 161.8Q278.4 156 285.9 152.7Q293.4 149.4 302.4 149.4Q310.6 149.4 318.4 152.6Q326.2 155.8 331 162.4L354.2 139.2Q345.2 129 330.7 123.7Q316.2 118.4 301.2 118.4Q285 118.4 271 123.6Q257 128.8 246.6 138.5Q236.2 148.2 230.3 162Q224.4 175.8 224.4 192.8Q224.4 209.4 230.2 223.2Q236 237 246.2 246.9Q256.4 256.8 270.3 262.2Q284.2 267.6 300.6 267.6Q318.6 267.6 332.4 261.3ZM512 223.1Q517.8 209.2 517.8 192.4Q517.8 175.4 512 161.7Q506.2 148 495.9 138.4Q485.6 128.8 471.4 123.6Q457.2 118.4 440.6 118.4Q424 118.4 409.9 123.6Q395.8 128.8 385.5 138.4Q375.2 148 369.4 161.7Q363.6 175.4 363.6 192.4Q363.6 209.2 369.4 223.1Q375.2 237 385.5 246.9Q395.8 256.8 409.9 262.2Q424 267.6 440.6 267.6Q457.2 267.6 471.4 262.2Q485.6 256.8 495.9 246.9Q506.2 237 512 223.1ZM1403.4 223.1Q1409.2 209.2 1409.2 192.4Q1409.2 175.4 1403.4 161.7Q1397.6 148 1387.3 138.4Q1377 128.8 1362.8 123.6Q1348.6 118.4 1332 118.4Q1315.4 118.4 1301.3 123.6Q1287.2 128.8 1276.9 138.4Q1266.6 148 1260.8 161.7Q1255 175.4 1255 192.4Q1255 209.2 1260.8 223.1Q1266.6 237 1276.9 246.9Q1287.2 256.8 1301.3 262.2Q1315.4 267.6 1332 267.6Q1348.6 267.6 1362.8 262.2Q1377 256.8 1387.3 246.9Q1397.6 237 1403.4 223.1ZM1689.8 223.1Q1695.6 209.2 1695.6 192.4Q1695.6 175.4 1689.8 161.7Q1684 148 1673.7 138.4Q1663.4 128.8 1649.2 123.6Q1635 118.4 1618.4 118.4Q1601.8 118.4 1587.7 123.6Q1573.6 128.8 1563.3 138.4Q1553 148 1547.2 161.7Q1541.4 175.4 1541.4 192.4Q1541.4 209.2 1547.2 223.1Q1553 237 1563.3 246.9Q1573.6 256.8 1587.7 262.2Q1601.8 267.6 1618.4 267.6Q1635 267.6 1649.2 262.2Q1663.4 256.8 1673.7 246.9Q1684 237 1689.8 223.1ZM610.6 263.8L576.4 263.8L522.8 122.2L561.2 122.2L594 222.6L594.8 222.6L627.4 122.2L665.2 122.2L610.6 263.8ZM676.8 122.2L676.8 263.8L775.6 263.8L775.6 234.6L709.8 234.6L709.8 205.2L768.6 205.2L768.6 177.8L709.8 177.8L709.8 151L772 151L772 122.2L676.8 122.2ZM874 263.8L843.256 207.6L831.6 207.6L831.6 263.8L798.2 263.8L798.2 122.2L852.2 122.2Q862.4 122.2 872.1 124.3Q881.8 126.4 889.5 131.4Q897.2 136.4 901.8 144.6Q906.4 152.8 906.4 165Q906.4 179.4 898.6 189.2Q890.8 199 877 203.2L914 263.8L874 263.8ZM1083.6 186.7Q1088.2 178.2 1088.2 165.8Q1088.2 153.6 1083.9 145.3Q1079.6 137 1072.1 131.9Q1064.6 126.8 1054.5 124.5Q1044.4 122.2 1032.8 122.2L980.8 122.2L980.8 263.8L1015 263.8L1015 210.4L1032 210.4Q1043 210.4 1053.2 208Q1063.4 205.6 1071.2 200.4Q1079 195.2 1083.6 186.7ZM1198.2 263.8L1198.2 204.6L1143 204.6L1143 263.8L1108.8 263.8L1108.8 122.2L1143 122.2L1143 175.8L1198.2 175.8L1198.2 122.2L1232.4 122.2L1232.4 263.8L1198.2 263.8ZM1492.4 263.8L1458.2 263.8L1458.2 151.4L1418.2 151.4L1418.2 122.2L1532.4 122.2L1532.4 151.4L1492.4 151.4L1492.4 263.8ZM478.2 175.2Q481.2 183.2 481.2 192.4Q481.2 202 478.2 210.1Q475.2 218.2 469.8 224Q464.4 229.8 457 233.1Q449.6 236.4 440.6 236.4Q431.6 236.4 424.2 233.1Q416.8 229.8 411.5 224Q406.2 218.2 403.2 210.1Q400.2 202 400.2 192.4Q400.2 183.2 403.1 175.2Q406 167.2 411.4 161.5Q416.8 155.8 424.2 152.5Q431.6 149.2 440.6 149.2Q449.6 149.2 457.1 152.5Q464.6 155.8 469.9 161.5Q475.2 167.2 478.2 175.2ZM1369.6 175.2Q1372.6 183.2 1372.6 192.4Q1372.6 202 1369.6 210.1Q1366.6 218.2 1361.2 224Q1355.8 229.8 1348.4 233.1Q1341 236.4 1332 236.4Q1323 236.4 1315.6 233.1Q1308.2 229.8 1302.9 224Q1297.6 218.2 1294.6 210.1Q1291.6 202 1291.6 192.4Q1291.6 183.2 1294.5 175.2Q1297.4 167.2 1302.8 161.5Q1308.2 155.8 1315.6 152.5Q1323 149.2 1332 149.2Q1341 149.2 1348.5 152.5Q1356 155.8 1361.3 161.5Q1366.6 167.2 1369.6 175.2ZM1656 175.2Q1659 183.2 1659 192.4Q1659 202 1656 210.1Q1653 218.2 1647.6 224Q1642.2 229.8 1634.8 233.1Q1627.4 236.4 1618.4 236.4Q1609.4 236.4 1602 233.1Q1594.6 229.8 1589.3 224Q1584 218.2 1581 210.1Q1578 202 1578 192.4Q1578 183.2 1580.9 175.2Q1583.8 167.2 1589.2 161.5Q1594.6 155.8 1602 152.5Q1609.4 149.2 1618.4 149.2Q1627.4 149.2 1634.9 152.5Q1642.4 155.8 1647.7 161.5Q1653 167.2 1656 175.2ZM872.6 165.6Q872.6 160.6 870.489 157.5Q868.378 154.4 865.063 152.7Q861.747 151 857.627 150.4Q853.506 149.8 849.688 149.8L831.4 149.8L831.4 182.8L847.678 182.8Q851.9 182.8 856.322 182.1Q860.744 181.4 864.361 179.6Q867.978 177.8 870.289 174.4Q872.6 171 872.6 165.6ZM1052 157.8Q1054 161 1054 166Q1054 171 1052 174.3Q1050 177.6 1046.5 179.6Q1043 181.6 1038.6 182.4Q1034.2 183.2 1029.4 183.2L1015 183.2L1015 149.8L1030 149.8Q1034.6 149.8 1038.9 150.4Q1043.2 151 1046.6 152.8Q1050 154.6 1052 157.8Z" />
    </g>
    <path d="M0 4L1506 0" transform="translate(218 640)" id="Line" fill="none" stroke="#39FF81" stroke-width="3" />
  </g>
</svg>