<?xml version="1.0" encoding="utf-8"?>
<svg width="2000px" height="2000px" viewBox="0 0 2000 2000" version="1.1" xmlns:xlink="http://www.w3.org/1999/xlink" xmlns="http://www.w3.org/2000/svg">
  <desc>Created with Lunacy</desc>
  <defs>
    <rect width="2000" height="2000" id="artboard_1" />
    <clipPath id="clip_1">
      <use xlink:href="#artboard_1" clip-rule="evenodd" />
    </clipPath>
  </defs>
  <g id="Full-HD" clip-path="url(#clip_1)">
    <use xlink:href="#artboard_1" stroke="none" fill="#000000" />
    <g id="TECHTOREHAB" transform="translate(0 917.0001)">
      <g id="TECH" fill="#FFFFFF">
        <path d="M573.144 195.124Q562.381 207.49 546.58 214.704Q530.779 221.917 510.169 221.917Q491.391 221.917 475.476 215.734Q459.56 209.551 447.881 198.216Q436.202 186.88 429.561 171.079Q422.92 155.278 422.92 136.271Q422.92 116.806 429.676 101.005Q436.431 85.204 448.339 74.0975Q460.247 62.991 476.277 57.037Q492.307 51.083 510.856 51.083Q528.031 51.083 544.634 57.1515Q561.236 63.22 571.541 74.899L544.977 101.463Q539.481 93.906 530.55 90.242Q521.619 86.578 512.23 86.578Q501.925 86.578 493.338 90.3565Q484.75 94.135 478.567 100.776Q472.384 107.417 468.949 116.463Q465.514 125.508 465.514 136.271Q465.514 147.263 468.949 156.423Q472.384 165.583 478.453 172.11Q484.521 178.636 492.994 182.3Q501.467 185.964 511.543 185.964Q523.222 185.964 531.924 181.384Q540.626 176.804 545.893 169.476L573.144 195.124ZM227.812 217.566L227.812 88.868L273.612 88.868L273.612 55.434L142.853 55.434L142.853 88.868L188.653 88.868L188.653 217.566L227.812 217.566ZM291.474 55.434L291.474 217.566L404.6 217.566L404.6 184.132L329.259 184.132L329.259 150.469L396.585 150.469L396.585 119.096L329.259 119.096L329.259 88.41L400.478 88.41L400.478 55.434L291.474 55.434ZM692.224 149.782L692.224 217.566L731.383 217.566L731.383 55.434L692.224 55.434L692.224 116.806L629.02 116.806L629.02 55.434L589.861 55.434L589.861 217.566L629.02 217.566L629.02 149.782L692.224 149.782Z" />
      </g>
      <g id="TO" fill="#FFFFFF">
        <path d="M1054.04 170.621Q1060.46 155.049 1060.46 136.5Q1060.46 117.951 1054.04 102.379Q1047.63 86.807 1036.3 75.4715Q1024.96 64.136 1009.5 57.724Q994.046 51.312 975.955 51.312Q957.864 51.312 942.406 57.724Q926.949 64.136 915.614 75.4715Q904.278 86.807 897.866 102.379Q891.454 117.951 891.454 136.5Q891.454 155.049 897.866 170.621Q904.278 186.193 915.614 197.529Q926.949 208.864 942.406 215.276Q957.864 221.688 975.955 221.688Q994.046 221.688 1009.5 215.276Q1024.96 208.864 1036.3 197.529Q1047.63 186.193 1054.04 170.621ZM805.121 217.566L821.609 217.566L821.609 70.09L875.882 70.09L875.882 55.434L750.848 55.434L750.848 70.09L805.121 70.09L805.121 217.566ZM1038.47 109.635Q1043.05 122.438 1043.05 136.615Q1043.05 150.791 1038.47 163.594Q1033.89 176.396 1025.19 185.998Q1016.49 195.6 1004.01 201.316Q991.527 207.032 975.955 207.032Q960.383 207.032 947.903 201.316Q935.422 195.6 926.72 185.998Q918.018 176.396 913.438 163.594Q908.858 150.791 908.858 136.615Q908.858 122.438 913.438 109.635Q918.018 96.8329 926.72 87.1165Q935.422 77.4001 947.903 71.6841Q960.383 65.968 975.955 65.968Q991.527 65.968 1004.01 71.6841Q1016.49 77.4001 1025.19 87.1165Q1033.89 96.8329 1038.47 109.635Z" />
      </g>
      <g id="REHAB" fill="#FFFFFF">
        <path d="M1176.79 217.566L1141.59 153.217L1128.24 153.217L1128.24 217.566L1090 217.566L1090 55.434L1151.83 55.434Q1163.51 55.434 1174.61 57.8385Q1185.72 60.243 1194.54 65.968Q1203.35 71.693 1208.62 81.082Q1213.89 90.471 1213.89 104.44Q1213.89 120.928 1204.96 132.149Q1196.02 143.37 1180.22 148.179L1222.59 217.566L1176.79 217.566ZM1241.82 217.566L1241.82 55.434L1350.83 55.434L1350.83 88.41L1279.61 88.41L1279.61 119.096L1346.94 119.096L1346.94 150.469L1279.61 150.469L1279.61 184.132L1354.95 184.132L1354.95 217.566L1241.82 217.566ZM1483.19 149.782L1483.19 217.566L1522.35 217.566L1522.35 55.434L1483.19 55.434L1483.19 116.806L1419.99 116.806L1419.99 55.434L1380.83 55.434L1380.83 217.566L1419.99 217.566L1419.99 149.782L1483.19 149.782ZM1665.7 217.566L1653.11 185.735L1590.36 185.735L1578.45 217.566L1535.86 217.566L1603.87 55.434L1641.89 55.434L1709.21 217.566L1665.7 217.566ZM1843.87 192.72Q1849.13 183.674 1849.13 170.392Q1849.13 162.377 1846.5 155.965Q1843.87 149.553 1839.4 144.744Q1834.93 139.935 1828.87 136.844Q1822.8 133.752 1815.93 132.607L1815.93 132.149Q1827.84 128.256 1835.16 119.44Q1842.49 110.623 1842.49 97.112Q1842.49 84.746 1837.45 76.731Q1832.42 68.716 1824.4 64.0215Q1816.39 59.327 1806.54 57.3805Q1796.69 55.434 1787.3 55.434L1722.72 55.434L1722.72 217.566L1787.3 217.566Q1798.98 217.566 1810.09 215.162Q1821.19 212.757 1829.9 207.261Q1838.6 201.765 1843.87 192.72ZM1798.41 90.3565Q1804.71 94.135 1804.71 102.379Q1804.71 111.081 1798.64 115.547Q1792.57 120.012 1781.58 120.012L1760.51 120.012L1760.51 86.578L1779.75 86.578Q1792.11 86.578 1798.41 90.3565ZM1175.19 105.127Q1175.19 99.402 1172.77 95.8525Q1170.35 92.303 1166.55 90.3565Q1162.76 88.41 1158.04 87.723Q1153.32 87.036 1148.95 87.036L1128.01 87.036L1128.01 124.821L1146.65 124.821Q1151.48 124.821 1156.55 124.02Q1161.61 123.218 1165.75 121.157Q1169.89 119.096 1172.54 115.203Q1175.19 111.31 1175.19 105.127ZM1622.19 98.715L1601.58 154.362L1642.35 154.362L1622.19 98.715ZM1802.42 152.759Q1809.97 156.652 1809.97 166.728Q1809.97 172.682 1807.45 176.461Q1804.94 180.239 1800.93 182.3Q1796.92 184.361 1792 185.163Q1787.07 185.964 1782.49 185.964L1760.51 185.964L1760.51 148.866L1782.26 148.866Q1794.86 148.866 1802.42 152.759Z" />
      </g>
    </g>
    <g id="CONFIRM-EMAIL" fill="#1890FF" transform="translate(108 777.0001)">
      <path d="M64.028 88.563Q65.66 87.024 66.812 85.296L63.228 82.992Q60.86 86.512 57.34 88.112Q53.82 89.712 49.916 89.712Q45.564 89.712 42.076 88.117Q38.588 86.522 36.156 83.811Q33.724 81.1 32.412 77.5275Q31.1 73.955 31.1 70Q31.1 66.045 32.38 62.4725Q33.66 58.9 36.092 56.189Q38.524 53.478 42.012 51.883Q45.5 50.288 49.916 50.288Q52.092 50.288 53.98 50.8Q55.868 51.312 57.468 52.144Q59.068 52.976 60.252 54.064Q61.436 55.152 62.14 56.24L65.98 53.424Q64.828 51.76 63.1 50.439Q61.372 49.118 59.26 48.175Q57.148 47.232 54.748 46.712Q52.348 46.192 49.852 46.192Q44.796 46.192 40.476 47.984Q36.156 49.776 32.988 52.944Q29.82 56.112 28.028 60.464Q26.236 64.816 26.236 70Q26.236 75.184 27.996 79.536Q29.756 83.888 32.892 87.056Q36.028 90.224 40.38 92.016Q44.732 93.808 49.852 93.808Q52.924 93.808 55.516 93.1255Q58.108 92.443 60.252 91.2725Q62.396 90.102 64.028 88.563ZM117.756 79.536Q119.548 75.184 119.548 70Q119.548 64.816 117.756 60.464Q115.964 56.112 112.796 52.944Q109.628 49.776 105.308 47.984Q100.988 46.192 95.932 46.192Q90.876 46.192 86.556 47.984Q82.236 49.776 79.068 52.944Q75.9 56.112 74.108 60.464Q72.316 64.816 72.316 70Q72.316 75.184 74.108 79.536Q75.9 83.888 79.068 87.056Q82.236 90.224 86.556 92.016Q90.876 93.808 95.932 93.808Q100.988 93.808 105.308 92.016Q109.628 90.224 112.796 87.056Q115.964 83.888 117.756 79.536ZM161.276 85.936L161.404 85.936L161.404 47.344L166.012 47.344L166.012 92.656L160.252 92.656L133.884 53.68L133.756 53.68L133.756 92.656L129.148 92.656L129.148 47.344L134.908 47.344L161.276 85.936ZM178.044 92.656L182.652 92.656L182.652 71.216L203.772 71.216L203.772 67.12L182.652 67.12L182.652 51.44L205.372 51.44L205.372 47.344L178.044 47.344L178.044 92.656ZM218.62 92.656L214.012 92.656L214.012 47.344L218.62 47.344L218.62 92.656ZM230.652 92.656L235.26 92.656L235.26 71.472L242.94 71.472L255.484 92.656L261.116 92.656L247.868 71.088Q250.364 70.832 252.476 69.936Q254.588 69.04 256.124 67.536Q257.66 66.032 258.556 63.984Q259.452 61.936 259.452 59.44Q259.452 56.112 258.3 53.808Q257.148 51.504 255.068 50.064Q252.988 48.624 250.14 47.984Q247.292 47.344 243.964 47.344L230.652 47.344L230.652 92.656ZM291.388 84.848L291.452 84.848L306.62 47.344L313.66 47.344L313.66 92.656L309.052 92.656L309.052 53.296L308.924 53.296L292.54 92.656L290.108 92.656L273.724 53.296L273.596 53.296L273.596 92.656L268.988 92.656L268.988 47.344L276.028 47.344L291.388 84.848ZM370.556 88.56L346.3 88.56L346.3 71.088L368.252 71.088L368.252 66.992L346.3 66.992L346.3 51.44L369.788 51.44L369.788 47.344L341.692 47.344L341.692 92.656L370.556 92.656L370.556 88.56ZM401.98 84.848L402.044 84.848L417.212 47.344L424.252 47.344L424.252 92.656L419.644 92.656L419.644 53.296L419.516 53.296L403.132 92.656L400.7 92.656L384.316 53.296L384.188 53.296L384.188 92.656L379.58 92.656L379.58 47.344L386.62 47.344L401.98 84.848ZM430.908 92.656L435.964 92.656L440.892 80.752L464.316 80.752L469.308 92.656L474.428 92.656L454.972 47.344L450.492 47.344L430.908 92.656ZM485.692 92.656L481.084 92.656L481.084 47.344L485.692 47.344L485.692 92.656ZM523.452 88.56L502.332 88.56L502.332 47.344L497.724 47.344L497.724 92.656L523.452 92.656L523.452 88.56ZM113.404 62.492Q114.684 66.07 114.684 70.032Q114.684 73.994 113.404 77.572Q112.124 81.15 109.692 83.8335Q107.26 86.517 103.772 88.1145Q100.284 89.712 95.932 89.712Q91.58 89.712 88.092 88.1145Q84.604 86.517 82.172 83.8335Q79.74 81.15 78.46 77.572Q77.18 73.994 77.18 70.032Q77.18 66.07 78.46 62.492Q79.74 58.914 82.172 56.1985Q84.604 53.483 88.092 51.8855Q91.58 50.288 95.932 50.288Q100.284 50.288 103.772 51.8855Q107.26 53.483 109.692 56.1985Q112.124 58.914 113.404 62.492ZM243.26 67.504L235.26 67.504L235.26 51.312L243.452 51.312Q246.012 51.312 248.124 51.76Q250.236 52.208 251.708 53.168Q253.18 54.128 254.012 55.664Q254.844 57.2 254.844 59.44Q254.844 63.472 251.836 65.488Q248.828 67.504 243.26 67.504ZM452.604 52.464L462.588 76.528L442.62 76.528L452.604 52.464Z" />
    </g>
    <path d="M0 1L1575 1" transform="translate(210 1198)" id="Line" fill="none" stroke="#39FF81" stroke-width="3" />
  </g>
</svg>