<?xml version="1.0" encoding="utf-8"?>
<svg width="1920px" height="1080px" viewBox="0 0 1920 1080" version="1.1" xmlns:xlink="http://www.w3.org/1999/xlink" xmlns="http://www.w3.org/2000/svg">
  <desc>Created with Lunacy</desc>
  <defs>
    <rect width="1920" height="1080" id="artboard_1" />
    <clipPath id="clip_1">
      <use xlink:href="#artboard_1" clip-rule="evenodd" />
    </clipPath>
  </defs>
  <g id="Full-HD" clip-path="url(#clip_1)">
    <use xlink:href="#artboard_1" stroke="none" fill="#000000" fill-opacity="0.921568632" />
    <g id="TECHTOREHAB" transform="translate(428 347)">
      <g id="TECH" fill="#1890FF">
        <path d="M249.12 42.02Q247.005 44.45 243.9 45.8675Q240.795 47.285 236.745 47.285Q233.055 47.285 229.927 46.07Q226.8 44.855 224.505 42.6275Q222.21 40.4 220.905 37.295Q219.6 34.19 219.6 30.455Q219.6 26.63 220.927 23.525Q222.255 20.42 224.595 18.2375Q226.935 16.055 230.085 14.885Q233.235 13.715 236.88 13.715Q240.255 13.715 243.517 14.9075Q246.78 16.1 248.805 18.395L243.585 23.615Q242.505 22.13 240.75 21.41Q238.995 20.69 237.15 20.69Q235.125 20.69 233.437 21.4325Q231.75 22.175 230.535 23.48Q229.32 24.785 228.645 26.5625Q227.97 28.34 227.97 30.455Q227.97 32.615 228.645 34.415Q229.32 36.215 230.512 37.4975Q231.705 38.78 233.37 39.5Q235.035 40.22 237.015 40.22Q239.31 40.22 241.02 39.32Q242.73 38.42 243.765 36.98L249.12 42.02ZM181.26 46.43L181.26 21.14L190.26 21.14L190.26 14.57L164.565 14.57L164.565 21.14L173.565 21.14L173.565 46.43L181.26 46.43ZM193.77 14.57L193.77 46.43L216 46.43L216 39.86L201.195 39.86L201.195 33.245L214.425 33.245L214.425 27.08L201.195 27.08L201.195 21.05L215.19 21.05L215.19 14.57L193.77 14.57ZM272.52 33.11L272.52 46.43L280.215 46.43L280.215 14.57L272.52 14.57L272.52 26.63L260.1 26.63L260.1 14.57L252.405 14.57L252.405 46.43L260.1 46.43L260.1 33.11L272.52 33.11Z" />
      </g>
      <g id="TO" fill="#1890FF">
        <path d="M343.62 37.205Q344.88 34.145 344.88 30.5Q344.88 26.855 343.62 23.795Q342.36 20.735 340.133 18.5075Q337.905 16.28 334.867 15.02Q331.83 13.76 328.275 13.76Q324.72 13.76 321.682 15.02Q318.645 16.28 316.417 18.5075Q314.19 20.735 312.93 23.795Q311.67 26.855 311.67 30.5Q311.67 34.145 312.93 37.205Q314.19 40.265 316.417 42.4925Q318.645 44.72 321.682 45.98Q324.72 47.24 328.275 47.24Q331.83 47.24 334.867 45.98Q337.905 44.72 340.133 42.4925Q342.36 40.265 343.62 37.205ZM294.705 46.43L297.945 46.43L297.945 17.45L308.61 17.45L308.61 14.57L284.04 14.57L284.04 17.45L294.705 17.45L294.705 46.43ZM340.56 25.2209Q341.46 27.7367 341.46 30.5225Q341.46 33.3083 340.56 35.8241Q339.66 38.3398 337.95 40.2267Q336.24 42.1135 333.788 43.2368Q331.335 44.36 328.275 44.36Q325.215 44.36 322.762 43.2368Q320.31 42.1135 318.6 40.2267Q316.89 38.3398 315.99 35.8241Q315.09 33.3083 315.09 30.5225Q315.09 27.7367 315.99 25.2209Q316.89 22.7052 318.6 20.7958Q320.31 18.8865 322.762 17.7632Q325.215 16.64 328.275 16.64Q331.335 16.64 333.788 17.7632Q336.24 18.8865 337.95 20.7958Q339.66 22.7052 340.56 25.2209Z" />
      </g>
      <g id="REHAB" fill="#1890FF">
        <path d="M367.74 46.43L360.823 33.785L358.2 33.785L358.2 46.43L350.685 46.43L350.685 14.57L362.835 14.57Q365.13 14.57 367.313 15.0425Q369.495 15.515 371.227 16.64Q372.96 17.765 373.995 19.61Q375.03 21.455 375.03 24.2Q375.03 27.44 373.275 29.645Q371.52 31.85 368.415 32.795L376.74 46.43L367.74 46.43ZM380.52 46.43L380.52 14.57L401.94 14.57L401.94 21.05L387.945 21.05L387.945 27.08L401.175 27.08L401.175 33.245L387.945 33.245L387.945 39.86L402.75 39.86L402.75 46.43L380.52 46.43ZM427.95 33.11L427.95 46.43L435.645 46.43L435.645 14.57L427.95 14.57L427.95 26.63L415.53 26.63L415.53 14.57L407.835 14.57L407.835 46.43L415.53 46.43L415.53 33.11L427.95 33.11ZM463.815 46.43L461.34 40.175L449.01 40.175L446.67 46.43L438.3 46.43L451.665 14.57L459.135 14.57L472.365 46.43L463.815 46.43ZM498.825 41.5475Q499.86 39.77 499.86 37.16Q499.86 35.585 499.342 34.325Q498.825 33.065 497.947 32.12Q497.07 31.175 495.878 30.5675Q494.685 29.96 493.335 29.735L493.335 29.645Q495.675 28.88 497.115 27.1475Q498.555 25.415 498.555 22.76Q498.555 20.33 497.565 18.755Q496.575 17.18 495 16.2575Q493.425 15.335 491.49 14.9525Q489.555 14.57 487.71 14.57L475.02 14.57L475.02 46.43L487.71 46.43Q490.005 46.43 492.188 45.9575Q494.37 45.485 496.08 44.405Q497.79 43.325 498.825 41.5475ZM489.892 21.4325Q491.13 22.175 491.13 23.795Q491.13 25.505 489.938 26.3825Q488.745 27.26 486.585 27.26L482.445 27.26L482.445 20.69L486.225 20.69Q488.655 20.69 489.892 21.4325ZM367.425 24.335Q367.425 23.21 366.95 22.5125Q366.475 21.815 365.729 21.4325Q364.983 21.05 364.056 20.915Q363.129 20.78 362.27 20.78L358.155 20.78L358.155 28.205L361.818 28.205Q362.767 28.205 363.762 28.0475Q364.757 27.89 365.571 27.485Q366.385 27.08 366.905 26.315Q367.425 25.55 367.425 24.335ZM455.265 23.075L451.215 34.01L459.225 34.01L455.265 23.075ZM490.68 33.695Q492.165 34.46 492.165 36.44Q492.165 37.61 491.67 38.3525Q491.175 39.095 490.387 39.5Q489.6 39.905 488.632 40.0625Q487.665 40.22 486.765 40.22L482.445 40.22L482.445 32.93L486.72 32.93Q489.195 32.93 490.68 33.695Z" />
      </g>
    </g>
    <g id="NOOP-!" fill="#FFFFFF" transform="translate(0 347)">
      <path d="M906.3 192.4Q906.3 209.2 900.5 223.1Q894.7 237 884.4 246.9Q874.1 256.8 859.9 262.2Q845.7 267.6 829.1 267.6Q812.5 267.6 798.4 262.2Q784.3 256.8 774 246.9Q763.7 237 757.9 223.1Q752.1 209.2 752.1 192.4Q752.1 175.4 757.9 161.7Q763.7 148 774 138.4Q784.3 128.8 798.4 123.6Q812.5 118.4 829.1 118.4Q845.7 118.4 859.9 123.6Q874.1 128.8 884.4 138.4Q894.7 148 900.5 161.7Q906.3 175.4 906.3 192.4ZM1070.7 223.1Q1076.5 209.2 1076.5 192.4Q1076.5 175.4 1070.7 161.7Q1064.9 148 1054.6 138.4Q1044.3 128.8 1030.1 123.6Q1015.9 118.4 999.3 118.4Q982.7 118.4 968.6 123.6Q954.5 128.8 944.2 138.4Q933.9 148 928.1 161.7Q922.3 175.4 922.3 192.4Q922.3 209.2 928.1 223.1Q933.9 237 944.2 246.9Q954.5 256.8 968.6 262.2Q982.7 267.6 999.3 267.6Q1015.9 267.6 1030.1 262.2Q1044.3 256.8 1054.6 246.9Q1064.9 237 1070.7 223.1ZM690.7 263.8L633.7 171.2L633.1 171.2L633.9 263.8L600.7 263.8L600.7 122.2L639.7 122.2L696.5 214.6L697.1 214.6L696.3 122.2L729.5 122.2L729.5 263.8L690.7 263.8ZM1206.5 165.8Q1206.5 178.2 1201.9 186.7Q1197.3 195.2 1189.5 200.4Q1181.7 205.6 1171.5 208Q1161.3 210.4 1150.3 210.4L1133.3 210.4L1133.3 263.8L1099.1 263.8L1099.1 122.2L1151.1 122.2Q1162.7 122.2 1172.8 124.5Q1182.9 126.8 1190.4 131.9Q1197.9 137 1202.2 145.3Q1206.5 153.6 1206.5 165.8ZM1281.3 122.2L1281.3 216.4L1314.7 216.4L1314.7 122.2L1281.3 122.2ZM869.7 192.4Q869.7 183.2 866.7 175.2Q863.7 167.2 858.4 161.5Q853.1 155.8 845.6 152.5Q838.1 149.2 829.1 149.2Q820.1 149.2 812.7 152.5Q805.3 155.8 799.9 161.5Q794.5 167.2 791.6 175.2Q788.7 183.2 788.7 192.4Q788.7 202 791.7 210.1Q794.7 218.2 800 224Q805.3 229.8 812.7 233.1Q820.1 236.4 829.1 236.4Q838.1 236.4 845.5 233.1Q852.9 229.8 858.3 224Q863.7 218.2 866.7 210.1Q869.7 202 869.7 192.4ZM1036.9 175.2Q1039.9 183.2 1039.9 192.4Q1039.9 202 1036.9 210.1Q1033.9 218.2 1028.5 224Q1023.1 229.8 1015.7 233.1Q1008.3 236.4 999.3 236.4Q990.3 236.4 982.9 233.1Q975.5 229.8 970.2 224Q964.9 218.2 961.9 210.1Q958.9 202 958.9 192.4Q958.9 183.2 961.8 175.2Q964.7 167.2 970.1 161.5Q975.5 155.8 982.9 152.5Q990.3 149.2 999.3 149.2Q1008.3 149.2 1015.8 152.5Q1023.3 155.8 1028.6 161.5Q1033.9 167.2 1036.9 175.2ZM1172.3 166Q1172.3 161 1170.3 157.8Q1168.3 154.6 1164.9 152.8Q1161.5 151 1157.2 150.4Q1152.9 149.8 1148.3 149.8L1133.3 149.8L1133.3 183.2L1147.7 183.2Q1152.5 183.2 1156.9 182.4Q1161.3 181.6 1164.8 179.6Q1168.3 177.6 1170.3 174.3Q1172.3 171 1172.3 166ZM1316.2 254.3Q1317.7 250.8 1317.7 246.8Q1317.7 243 1316.2 239.5Q1314.7 236 1312 233.5Q1309.3 231 1305.7 229.5Q1302.1 228 1298.1 228Q1294.1 228 1290.5 229.5Q1286.9 231 1284.3 233.6Q1281.7 236.2 1280.2 239.7Q1278.7 243.2 1278.7 247Q1278.7 251 1280.3 254.4Q1281.9 257.8 1284.5 260.4Q1287.1 263 1290.6 264.4Q1294.1 265.8 1298.1 265.8Q1302.1 265.8 1305.7 264.3Q1309.3 262.8 1312 260.3Q1314.7 257.8 1316.2 254.3Z" />
    </g>
    <path d="M0 1L726 1" transform="translate(596 650)" id="Line" fill="none" stroke="#39FF81" stroke-width="3" />
  </g>
</svg>