<?xml version="1.0" encoding="utf-8"?>
<svg width="2000px" height="2000px" viewBox="0 0 2000 2000" version="1.1" xmlns:xlink="http://www.w3.org/1999/xlink" xmlns="http://www.w3.org/2000/svg">
  <desc>Created with Lunacy</desc>
  <defs>
    <rect width="2000" height="2000" id="artboard_1" />
    <clipPath id="clip_1">
      <use xlink:href="#artboard_1" clip-rule="evenodd" />
    </clipPath>
  </defs>
  <g id="Full-HD" clip-path="url(#clip_1)">
    <use xlink:href="#artboard_1" stroke="none" fill="#000000" />
    <g id="TECHTOREHAB" transform="translate(0 917.0001)">
      <g id="TECH" fill="#FFFFFF">
        <path d="M573.144 195.124Q562.381 207.49 546.58 214.704Q530.779 221.917 510.169 221.917Q491.391 221.917 475.476 215.734Q459.56 209.551 447.881 198.216Q436.202 186.88 429.561 171.079Q422.92 155.278 422.92 136.271Q422.92 116.806 429.676 101.005Q436.431 85.204 448.339 74.0975Q460.247 62.991 476.277 57.037Q492.307 51.083 510.856 51.083Q528.031 51.083 544.634 57.1515Q561.236 63.22 571.541 74.899L544.977 101.463Q539.481 93.906 530.55 90.242Q521.619 86.578 512.23 86.578Q501.925 86.578 493.338 90.3565Q484.75 94.135 478.567 100.776Q472.384 107.417 468.949 116.463Q465.514 125.508 465.514 136.271Q465.514 147.263 468.949 156.423Q472.384 165.583 478.453 172.11Q484.521 178.636 492.994 182.3Q501.467 185.964 511.543 185.964Q523.222 185.964 531.924 181.384Q540.626 176.804 545.893 169.476L573.144 195.124ZM227.812 217.566L227.812 88.868L273.612 88.868L273.612 55.434L142.853 55.434L142.853 88.868L188.653 88.868L188.653 217.566L227.812 217.566ZM291.474 55.434L291.474 217.566L404.6 217.566L404.6 184.132L329.259 184.132L329.259 150.469L396.585 150.469L396.585 119.096L329.259 119.096L329.259 88.41L400.478 88.41L400.478 55.434L291.474 55.434ZM692.224 149.782L692.224 217.566L731.383 217.566L731.383 55.434L692.224 55.434L692.224 116.806L629.02 116.806L629.02 55.434L589.861 55.434L589.861 217.566L629.02 217.566L629.02 149.782L692.224 149.782Z" />
      </g>
      <g id="TO" fill="#FFFFFF">
        <path d="M1054.04 170.621Q1060.46 155.049 1060.46 136.5Q1060.46 117.951 1054.04 102.379Q1047.63 86.807 1036.3 75.4715Q1024.96 64.136 1009.5 57.724Q994.046 51.312 975.955 51.312Q957.864 51.312 942.406 57.724Q926.949 64.136 915.614 75.4715Q904.278 86.807 897.866 102.379Q891.454 117.951 891.454 136.5Q891.454 155.049 897.866 170.621Q904.278 186.193 915.614 197.529Q926.949 208.864 942.406 215.276Q957.864 221.688 975.955 221.688Q994.046 221.688 1009.5 215.276Q1024.96 208.864 1036.3 197.529Q1047.63 186.193 1054.04 170.621ZM805.121 217.566L821.609 217.566L821.609 70.09L875.882 70.09L875.882 55.434L750.848 55.434L750.848 70.09L805.121 70.09L805.121 217.566ZM1038.47 109.635Q1043.05 122.438 1043.05 136.615Q1043.05 150.791 1038.47 163.594Q1033.89 176.396 1025.19 185.998Q1016.49 195.6 1004.01 201.316Q991.527 207.032 975.955 207.032Q960.383 207.032 947.903 201.316Q935.422 195.6 926.72 185.998Q918.018 176.396 913.438 163.594Q908.858 150.791 908.858 136.615Q908.858 122.438 913.438 109.635Q918.018 96.8329 926.72 87.1165Q935.422 77.4001 947.903 71.6841Q960.383 65.968 975.955 65.968Q991.527 65.968 1004.01 71.6841Q1016.49 77.4001 1025.19 87.1165Q1033.89 96.8329 1038.47 109.635Z" />
      </g>
      <g id="REHAB" fill="#FFFFFF">
        <path d="M1176.79 217.566L1141.59 153.217L1128.24 153.217L1128.24 217.566L1090 217.566L1090 55.434L1151.83 55.434Q1163.51 55.434 1174.61 57.8385Q1185.72 60.243 1194.54 65.968Q1203.35 71.693 1208.62 81.082Q1213.89 90.471 1213.89 104.44Q1213.89 120.928 1204.96 132.149Q1196.02 143.37 1180.22 148.179L1222.59 217.566L1176.79 217.566ZM1241.82 217.566L1241.82 55.434L1350.83 55.434L1350.83 88.41L1279.61 88.41L1279.61 119.096L1346.94 119.096L1346.94 150.469L1279.61 150.469L1279.61 184.132L1354.95 184.132L1354.95 217.566L1241.82 217.566ZM1483.19 149.782L1483.19 217.566L1522.35 217.566L1522.35 55.434L1483.19 55.434L1483.19 116.806L1419.99 116.806L1419.99 55.434L1380.83 55.434L1380.83 217.566L1419.99 217.566L1419.99 149.782L1483.19 149.782ZM1665.7 217.566L1653.11 185.735L1590.36 185.735L1578.45 217.566L1535.86 217.566L1603.87 55.434L1641.89 55.434L1709.21 217.566L1665.7 217.566ZM1843.87 192.72Q1849.13 183.674 1849.13 170.392Q1849.13 162.377 1846.5 155.965Q1843.87 149.553 1839.4 144.744Q1834.93 139.935 1828.87 136.844Q1822.8 133.752 1815.93 132.607L1815.93 132.149Q1827.84 128.256 1835.16 119.44Q1842.49 110.623 1842.49 97.112Q1842.49 84.746 1837.45 76.731Q1832.42 68.716 1824.4 64.0215Q1816.39 59.327 1806.54 57.3805Q1796.69 55.434 1787.3 55.434L1722.72 55.434L1722.72 217.566L1787.3 217.566Q1798.98 217.566 1810.09 215.162Q1821.19 212.757 1829.9 207.261Q1838.6 201.765 1843.87 192.72ZM1798.41 90.3565Q1804.71 94.135 1804.71 102.379Q1804.71 111.081 1798.64 115.547Q1792.57 120.012 1781.58 120.012L1760.51 120.012L1760.51 86.578L1779.75 86.578Q1792.11 86.578 1798.41 90.3565ZM1175.19 105.127Q1175.19 99.402 1172.77 95.8525Q1170.35 92.303 1166.55 90.3565Q1162.76 88.41 1158.04 87.723Q1153.32 87.036 1148.95 87.036L1128.01 87.036L1128.01 124.821L1146.65 124.821Q1151.48 124.821 1156.55 124.02Q1161.61 123.218 1165.75 121.157Q1169.89 119.096 1172.54 115.203Q1175.19 111.31 1175.19 105.127ZM1622.19 98.715L1601.58 154.362L1642.35 154.362L1622.19 98.715ZM1802.42 152.759Q1809.97 156.652 1809.97 166.728Q1809.97 172.682 1807.45 176.461Q1804.94 180.239 1800.93 182.3Q1796.92 184.361 1792 185.163Q1787.07 185.964 1782.49 185.964L1760.51 185.964L1760.51 148.866L1782.26 148.866Q1794.86 148.866 1802.42 152.759Z" />
      </g>
    </g>
    <g id="FORGOT-PASSWORD" fill="#1890FF" transform="translate(75 810.0001)">
      <path d="M140.02 79.536Q141.812 75.184 141.812 70Q141.812 64.816 140.02 60.464Q138.228 56.112 135.06 52.944Q131.892 49.776 127.572 47.984Q123.252 46.192 118.196 46.192Q113.14 46.192 108.82 47.984Q104.5 49.776 101.332 52.944Q98.164 56.112 96.372 60.464Q94.58 64.816 94.58 70Q94.58 75.184 96.372 79.536Q98.164 83.888 101.332 87.056Q104.5 90.224 108.82 92.016Q113.14 93.808 118.196 93.808Q123.252 93.808 127.572 92.016Q131.892 90.224 135.06 87.056Q138.228 83.888 140.02 79.536ZM218.484 51.664Q221.748 53.04 224.116 55.536L227.316 52.336Q224.436 49.443 220.404 47.8175Q216.372 46.192 210.932 46.192Q205.876 46.192 201.556 47.984Q197.236 49.776 194.068 52.944Q190.9 56.112 189.108 60.464Q187.316 64.816 187.316 70Q187.316 75.184 189.076 79.536Q190.836 83.888 193.972 87.056Q197.108 90.224 201.46 92.016Q205.812 93.808 210.932 93.808Q215.54 93.808 219.828 92.717Q224.116 91.626 227.828 89.381L227.828 68.912L212.66 68.912L212.66 73.008L223.22 73.008L223.22 86.768Q221.236 88.048 218.036 88.88Q214.836 89.712 210.996 89.712Q206.644 89.712 203.156 88.1145Q199.668 86.517 197.236 83.8335Q194.804 81.15 193.492 77.572Q192.18 73.994 192.18 70.032Q192.18 66.07 193.492 62.492Q194.804 58.914 197.236 56.1985Q199.668 53.483 203.156 51.8855Q206.644 50.288 210.996 50.288Q215.22 50.288 218.484 51.664ZM284.404 70Q284.404 75.184 282.612 79.536Q280.82 83.888 277.652 87.056Q274.484 90.224 270.164 92.016Q265.844 93.808 260.788 93.808Q255.732 93.808 251.412 92.016Q247.092 90.224 243.924 87.056Q240.756 83.888 238.964 79.536Q237.172 75.184 237.172 70Q237.172 64.816 238.964 60.464Q240.756 56.112 243.924 52.944Q247.092 49.776 251.412 47.984Q255.732 46.192 260.788 46.192Q265.844 46.192 270.164 47.984Q274.484 49.776 277.652 52.944Q280.82 56.112 282.612 60.464Q284.404 64.816 284.404 70ZM450.356 54.64Q448.884 52.592 446.58 51.344Q444.276 50.096 441.012 50.096Q439.348 50.096 437.62 50.608Q435.892 51.12 434.484 52.176Q433.076 53.232 432.212 54.832Q431.348 56.432 431.348 58.608Q431.348 60.784 432.177 62.192Q433.007 63.6 434.38 64.592Q435.752 65.584 437.507 66.224Q439.262 66.864 441.177 67.504Q443.538 68.272 445.931 69.168Q448.325 70.064 450.24 71.504Q452.155 72.944 453.367 75.152Q454.58 77.36 454.58 80.752Q454.58 84.144 453.286 86.608Q451.992 89.072 449.926 90.672Q447.86 92.272 445.204 93.04Q442.548 93.808 439.86 93.808Q437.812 93.808 435.764 93.392Q433.716 92.976 431.86 92.144Q430.004 91.312 428.404 90.032Q426.804 88.752 425.588 87.088L429.556 84.144Q431.028 86.576 433.684 88.208Q436.34 89.84 439.924 89.84Q441.652 89.84 443.444 89.296Q445.236 88.752 446.676 87.632Q448.116 86.512 449.044 84.88Q449.972 83.248 449.972 81.072Q449.972 78.704 449.044 77.136Q448.116 75.568 446.58 74.512Q445.044 73.456 443.06 72.752Q441.076 72.048 438.9 71.344Q436.66 70.64 434.484 69.744Q432.308 68.848 430.58 67.408Q428.852 65.968 427.796 63.856Q426.74 61.744 426.74 58.672Q426.74 55.408 428.052 53.04Q429.364 50.672 431.476 49.136Q433.588 47.6 436.148 46.896Q438.708 46.192 441.204 46.192Q445.812 46.192 449.076 47.824Q452.34 49.456 454.004 51.696L450.356 54.64ZM482.676 51.344Q484.98 52.592 486.452 54.64L490.1 51.696Q488.436 49.456 485.172 47.824Q481.908 46.192 477.3 46.192Q474.804 46.192 472.244 46.896Q469.684 47.6 467.572 49.136Q465.46 50.672 464.148 53.04Q462.836 55.408 462.836 58.672Q462.836 61.744 463.892 63.856Q464.948 65.968 466.676 67.408Q468.404 68.848 470.58 69.744Q472.756 70.64 474.996 71.344Q477.172 72.048 479.156 72.752Q481.14 73.456 482.676 74.512Q484.212 75.568 485.14 77.136Q486.068 78.704 486.068 81.072Q486.068 83.248 485.14 84.88Q484.212 86.512 482.772 87.632Q481.332 88.752 479.54 89.296Q477.748 89.84 476.02 89.84Q472.436 89.84 469.78 88.208Q467.124 86.576 465.652 84.144L461.684 87.088Q462.9 88.752 464.5 90.032Q466.1 91.312 467.956 92.144Q469.812 92.976 471.86 93.392Q473.908 93.808 475.956 93.808Q478.644 93.808 481.3 93.04Q483.956 92.272 486.022 90.672Q488.088 89.072 489.382 86.608Q490.676 84.144 490.676 80.752Q490.676 77.36 489.464 75.152Q488.251 72.944 486.336 71.504Q484.421 70.064 482.027 69.168Q479.634 68.272 477.273 67.504Q475.358 66.864 473.603 66.224Q471.848 65.584 470.476 64.592Q469.103 63.6 468.273 62.192Q467.444 60.784 467.444 58.608Q467.444 56.432 468.308 54.832Q469.172 53.232 470.58 52.176Q471.988 51.12 473.716 50.608Q475.444 50.096 477.108 50.096Q480.372 50.096 482.676 51.344ZM605.812 79.536Q607.604 75.184 607.604 70Q607.604 64.816 605.812 60.464Q604.02 56.112 600.852 52.944Q597.684 49.776 593.364 47.984Q589.044 46.192 583.988 46.192Q578.932 46.192 574.612 47.984Q570.292 49.776 567.124 52.944Q563.956 56.112 562.164 60.464Q560.372 64.816 560.372 70Q560.372 75.184 562.164 79.536Q563.956 83.888 567.124 87.056Q570.292 90.224 574.612 92.016Q578.932 93.808 583.988 93.808Q589.044 93.808 593.364 92.016Q597.684 90.224 600.852 87.056Q604.02 83.888 605.812 79.536ZM61.044 92.656L65.652 92.656L65.652 71.216L86.772 71.216L86.772 67.12L65.652 67.12L65.652 51.44L88.372 51.44L88.372 47.344L61.044 47.344L61.044 92.656ZM156.02 92.656L151.412 92.656L151.412 47.344L164.724 47.344Q168.052 47.344 170.9 47.984Q173.748 48.624 175.828 50.064Q177.908 51.504 179.06 53.808Q180.212 56.112 180.212 59.44Q180.212 61.936 179.316 63.984Q178.42 66.032 176.884 67.536Q175.348 69.04 173.236 69.936Q171.124 70.832 168.628 71.088L181.876 92.656L176.244 92.656L163.7 71.472L156.02 71.472L156.02 92.656ZM303.924 92.656L308.532 92.656L308.532 51.44L323.7 51.44L323.7 47.344L288.756 47.344L288.756 51.44L303.924 51.44L303.924 92.656ZM346.484 47.344L359.284 47.344Q362.74 47.344 365.556 48.08Q368.372 48.816 370.388 50.32Q372.404 51.824 373.492 54.096Q374.58 56.368 374.58 59.44Q374.58 62.512 373.46 64.784Q372.34 67.056 370.324 68.56Q368.308 70.064 365.46 70.832Q362.612 71.6 359.156 71.6L351.092 71.6L351.092 92.656L346.484 92.656L346.484 47.344ZM378.228 92.656L383.284 92.656L388.212 80.752L411.636 80.752L416.628 92.656L421.748 92.656L402.292 47.344L397.812 47.344L378.228 92.656ZM511.54 86.32L511.668 86.32L522.996 47.344L528.5 47.344L539.828 86.32L539.956 86.32L551.028 47.344L555.892 47.344L542.516 92.656L537.14 92.656L525.748 53.744L525.62 53.744L514.228 92.656L508.852 92.656L495.476 47.344L500.34 47.344L511.54 86.32ZM621.812 92.656L617.204 92.656L617.204 47.344L630.516 47.344Q633.844 47.344 636.692 47.984Q639.54 48.624 641.62 50.064Q643.7 51.504 644.852 53.808Q646.004 56.112 646.004 59.44Q646.004 61.936 645.108 63.984Q644.212 66.032 642.676 67.536Q641.14 69.04 639.028 69.936Q636.916 70.832 634.42 71.088L647.668 92.656L642.036 92.656L629.492 71.472L621.812 71.472L621.812 92.656ZM670.58 47.344L655.54 47.344L655.54 92.656L670.58 92.656C673.396 92.656 676.223 92.1867 679.06 91.248Q683.316 89.84 686.74 86.992Q690.164 84.144 692.276 79.92Q694.388 75.696 694.388 70Q694.388 64.368 692.276 60.112Q690.164 55.856 686.74 53.008Q683.316 50.16 679.06 48.752Q674.804 47.344 670.58 47.344ZM135.668 62.492Q136.948 66.07 136.948 70.032Q136.948 73.994 135.668 77.572Q134.388 81.15 131.956 83.8335Q129.524 86.517 126.036 88.1145Q122.548 89.712 118.196 89.712Q113.844 89.712 110.356 88.1145Q106.868 86.517 104.436 83.8335Q102.004 81.15 100.724 77.572Q99.444 73.994 99.444 70.032Q99.444 66.07 100.724 62.492Q102.004 58.914 104.436 56.1985Q106.868 53.483 110.356 51.8855Q113.844 50.288 118.196 50.288Q122.548 50.288 126.036 51.8855Q129.524 53.483 131.956 56.1985Q134.388 58.914 135.668 62.492ZM279.54 70.032Q279.54 66.07 278.26 62.492Q276.98 58.914 274.548 56.1985Q272.116 53.483 268.628 51.8855Q265.14 50.288 260.788 50.288Q256.436 50.288 252.948 51.8855Q249.46 53.483 247.028 56.1985Q244.596 58.914 243.316 62.492Q242.036 66.07 242.036 70.032Q242.036 73.994 243.316 77.572Q244.596 81.15 247.028 83.8335Q249.46 86.517 252.948 88.1145Q256.436 89.712 260.788 89.712Q265.14 89.712 268.628 88.1145Q272.116 86.517 274.548 83.8335Q276.98 81.15 278.26 77.572Q279.54 73.994 279.54 70.032ZM601.46 62.492Q602.74 66.07 602.74 70.032Q602.74 73.994 601.46 77.572Q600.18 81.15 597.748 83.8335Q595.316 86.517 591.828 88.1145Q588.34 89.712 583.988 89.712Q579.636 89.712 576.148 88.1145Q572.66 86.517 570.228 83.8335Q567.796 81.15 566.516 77.572Q565.236 73.994 565.236 70.032Q565.236 66.07 566.516 62.492Q567.796 58.914 570.228 56.1985Q572.66 53.483 576.148 51.8855Q579.636 50.288 583.988 50.288Q588.34 50.288 591.828 51.8855Q595.316 53.483 597.748 56.1985Q600.18 58.914 601.46 62.492ZM156.02 67.504L164.02 67.504Q169.588 67.504 172.596 65.488Q175.604 63.472 175.604 59.44Q175.604 57.2 174.772 55.664Q173.94 54.128 172.468 53.168Q170.996 52.208 168.884 51.76Q166.772 51.312 164.212 51.312L156.02 51.312L156.02 67.504ZM351.092 67.696L358.9 67.696Q364.34 67.696 367.156 65.584Q369.972 63.472 369.972 59.44Q369.972 55.216 367.06 53.264Q364.148 51.312 358.9 51.312L351.092 51.312L351.092 67.696ZM621.812 67.504L629.812 67.504Q635.38 67.504 638.388 65.488Q641.396 63.472 641.396 59.44Q641.396 57.2 640.564 55.664Q639.732 54.128 638.26 53.168Q636.788 52.208 634.676 51.76Q632.564 51.312 630.004 51.312L621.812 51.312L621.812 67.504ZM669.3 88.56L660.148 88.56L660.148 51.44L669.3 51.44Q674.42 51.44 678.228 53.04Q682.036 54.64 684.532 57.232Q687.028 59.824 688.276 63.152Q689.524 66.48 689.524 70Q689.524 73.52 688.276 76.848Q687.028 80.176 684.532 82.768Q682.036 85.36 678.228 86.96Q674.42 88.56 669.3 88.56ZM399.924 52.464L409.908 76.528L389.94 76.528L399.924 52.464Z" />
    </g>
    <path d="M0 1L1575 1" transform="translate(210 1198)" id="Line" fill="none" stroke="#39FF81" stroke-width="3" />
  </g>
</svg>