<?xml version="1.0" encoding="utf-8"?>
<svg width="2000px" height="2000px" viewBox="0 0 2000 2000" version="1.1" xmlns:xlink="http://www.w3.org/1999/xlink" xmlns="http://www.w3.org/2000/svg">
  <desc>Created with Lunacy</desc>
  <defs>
    <rect width="2000" height="2000" id="artboard_1" />
    <clipPath id="clip_1">
      <use xlink:href="#artboard_1" clip-rule="evenodd" />
    </clipPath>
  </defs>
  <g id="Full-HD" clip-path="url(#clip_1)">
    <use xlink:href="#artboard_1" stroke="none" fill="#000000" />
    <g id="TECH-TO-REHAB" transform="translate(461 591.0001)">
      <g id="TECH" fill="#FFFFFF">
        <path d="M692.94 201.244Q681.237 214.69 664.056 222.533Q646.875 230.377 624.465 230.377Q604.047 230.377 586.742 223.654Q569.436 216.931 556.737 204.605Q544.038 192.28 536.817 175.099Q529.596 157.918 529.596 137.251Q529.596 116.086 536.941 98.905Q544.287 81.724 557.235 69.6475Q570.183 57.571 587.613 51.097Q605.043 44.623 625.212 44.623Q643.887 44.623 661.939 51.2215Q679.992 57.82 691.197 70.519L662.313 99.403Q656.337 91.186 646.626 87.202Q636.915 83.218 626.706 83.218Q615.501 83.218 606.164 87.3265Q596.826 91.435 590.103 98.656Q583.38 105.877 579.645 115.712Q575.91 125.548 575.91 137.251Q575.91 149.203 579.645 159.163Q583.38 169.123 589.979 176.219Q596.577 183.316 605.79 187.3Q615.003 191.284 625.959 191.284Q638.658 191.284 648.12 186.304Q657.582 181.324 663.309 173.356L692.94 201.244ZM317.448 225.646L317.448 85.708L367.248 85.708L367.248 49.354L225.069 49.354L225.069 85.708L274.869 85.708L274.869 225.646L317.448 225.646ZM386.67 49.354L386.67 225.646L509.676 225.646L509.676 189.292L427.755 189.292L427.755 152.689L500.961 152.689L500.961 118.576L427.755 118.576L427.755 85.21L505.194 85.21L505.194 49.354L386.67 49.354ZM822.42 151.942L822.42 225.646L864.999 225.646L864.999 49.354L822.42 49.354L822.42 116.086L753.696 116.086L753.696 49.354L711.117 49.354L711.117 225.646L753.696 225.646L753.696 151.942L822.42 151.942Z" />
      </g>
      <g id="TO" fill="#FFFFFF">
        <path d="M709.374 514.601Q716.346 497.669 716.346 477.5Q716.346 457.331 709.374 440.399Q702.402 423.467 690.077 411.141Q677.751 398.816 660.943 391.844Q644.136 384.872 624.465 384.872Q604.794 384.872 587.987 391.844Q571.179 398.816 558.854 411.141Q546.528 423.467 539.556 440.399Q532.584 457.331 532.584 477.5Q532.584 497.669 539.556 514.601Q546.528 531.533 558.854 543.859Q571.179 556.184 587.987 563.156Q604.794 570.128 624.465 570.128Q644.136 570.128 660.943 563.156Q677.751 556.184 690.077 543.859Q702.402 531.533 709.374 514.601ZM438.711 565.646L456.639 565.646L456.639 405.29L515.652 405.29L515.652 389.354L379.698 389.354L379.698 405.29L438.711 405.29L438.711 565.646ZM692.442 448.289Q697.422 462.21 697.422 477.625Q697.422 493.039 692.442 506.96Q687.462 520.88 678 531.321Q668.538 541.761 654.968 547.977Q641.397 554.192 624.465 554.192Q607.533 554.192 593.963 547.977Q580.392 541.761 570.93 531.321Q561.468 520.88 556.488 506.96Q551.508 493.039 551.508 477.625Q551.508 462.21 556.488 448.289Q561.468 434.369 570.93 423.804Q580.392 413.239 593.963 407.023Q607.533 400.808 624.465 400.808Q641.397 400.808 654.968 407.023Q668.538 413.239 678 423.804Q687.462 434.369 692.442 448.289Z" />
      </g>
      <g id="REHAB" fill="#FFFFFF">
        <path d="M239.262 905.646L200.986 835.677L186.474 835.677L186.474 905.646L144.891 905.646L144.891 729.354L212.121 729.354Q224.82 729.354 236.896 731.969Q248.973 734.583 258.56 740.808Q268.146 747.033 273.873 757.242Q279.6 767.451 279.6 782.64Q279.6 800.568 269.889 812.769Q260.178 824.97 242.997 830.199L289.062 905.646L239.262 905.646ZM309.978 905.646L309.978 729.354L428.502 729.354L428.502 765.21L351.063 765.21L351.063 798.576L424.269 798.576L424.269 832.689L351.063 832.689L351.063 869.292L432.984 869.292L432.984 905.646L309.978 905.646ZM572.424 831.942L572.424 905.646L615.003 905.646L615.003 729.354L572.424 729.354L572.424 796.086L503.7 796.086L503.7 729.354L461.121 729.354L461.121 905.646L503.7 905.646L503.7 831.942L572.424 831.942ZM770.877 905.646L757.182 871.035L688.956 871.035L676.008 905.646L629.694 905.646L703.647 729.354L744.981 729.354L818.187 905.646L770.877 905.646ZM964.599 878.63Q970.326 868.794 970.326 854.352Q970.326 845.637 967.463 838.665Q964.599 831.693 959.744 826.464Q954.888 821.235 948.289 817.873Q941.691 814.512 934.221 813.267L934.221 812.769Q947.169 808.536 955.137 798.949Q963.105 789.363 963.105 774.672Q963.105 761.226 957.627 752.511Q952.149 743.796 943.434 738.691Q934.719 733.587 924.012 731.47Q913.305 729.354 903.096 729.354L832.878 729.354L832.878 905.646L903.096 905.646Q915.795 905.646 927.871 903.031Q939.948 900.417 949.41 894.441Q958.872 888.465 964.599 878.63ZM915.172 767.326Q922.02 771.435 922.02 780.399Q922.02 789.861 915.422 794.716Q908.823 799.572 896.871 799.572L873.963 799.572L873.963 763.218L894.879 763.218Q908.325 763.218 915.172 767.326ZM237.519 783.387Q237.519 777.162 234.891 773.302Q232.263 769.443 228.135 767.326Q224.007 765.21 218.877 764.463Q213.747 763.716 208.993 763.716L186.225 763.716L186.225 804.801L206.491 804.801Q211.747 804.801 217.253 803.93Q222.758 803.058 227.261 800.817Q231.765 798.576 234.642 794.343Q237.519 790.11 237.519 783.387ZM723.567 776.415L701.157 836.922L745.479 836.922L723.567 776.415ZM919.53 835.179Q927.747 839.412 927.747 850.368Q927.747 856.842 925.008 860.951Q922.269 865.059 917.911 867.3Q913.554 869.541 908.201 870.412Q902.847 871.284 897.867 871.284L873.963 871.284L873.963 830.946L897.618 830.946Q911.313 830.946 919.53 835.179Z" />
      </g>
    </g>
    <g id="AUTH" fill="#1890FF" transform="translate(432 350.0001)">
      <path d="M432.99 166.86L440.1 166.86L447.03 150.12L479.97 150.12L486.99 166.86L494.19 166.86L466.83 103.14L460.53 103.14L432.99 166.86ZM515.25 166.005Q519.84 168.48 527.04 168.48Q534.15 168.48 538.785 166.005Q543.42 163.53 546.12 159.75Q548.82 155.97 549.855 151.515Q550.89 147.06 550.89 143.1L550.89 103.14L544.41 103.14L544.41 142.38Q544.41 146.25 543.51 149.895Q542.61 153.54 540.585 156.375Q538.56 159.21 535.23 160.965Q531.9 162.72 527.04 162.72Q522.18 162.72 518.85 160.965Q515.52 159.21 513.495 156.375Q511.47 153.54 510.57 149.895Q509.67 146.25 509.67 142.38L509.67 103.14L503.19 103.14L503.19 143.1Q503.19 147.06 504.225 151.515Q505.26 155.97 507.96 159.75Q510.66 163.53 515.25 166.005ZM587.88 166.86L581.4 166.86L581.4 108.9L560.07 108.9L560.07 103.14L609.21 103.14L609.21 108.9L587.88 108.9L587.88 166.86ZM625.23 103.14L618.75 103.14L618.75 166.86L625.23 166.86L625.23 136.71L659.97 136.71L659.97 166.86L666.45 166.86L666.45 103.14L659.97 103.14L659.97 130.77L625.23 130.77L625.23 103.14ZM463.5 110.34L477.54 144.18L449.46 144.18L463.5 110.34Z" />
    </g>
    <path d="M0 1L1047 1" transform="translate(491 1563)" id="Line" fill="none" stroke="#39FF81" stroke-width="3" />
  </g>
</svg>