<?xml version="1.0" encoding="utf-8"?>
<svg width="1920px" height="1080px" viewBox="0 0 1920 1080" version="1.1" xmlns:xlink="http://www.w3.org/1999/xlink" xmlns="http://www.w3.org/2000/svg">
  <desc>Created with Lunacy</desc>
  <defs>
    <rect width="1920" height="1080" id="artboard_1" />
    <clipPath id="clip_1">
      <use xlink:href="#artboard_1" clip-rule="evenodd" />
    </clipPath>
  </defs>
  <g id="Full-HD" clip-path="url(#clip_1)">
    <use xlink:href="#artboard_1" stroke="none" fill="#000000" fill-opacity="0.921568632" />
    <g id="LOGIN" fill="#1890FF" transform="translate(82 309)">
      <path d="M204.91 57Q204.91 63.156 202.782 68.324Q200.654 73.492 196.892 77.254Q193.13 81.016 188 83.144Q182.87 85.272 176.866 85.272Q170.862 85.272 165.732 83.144Q160.602 81.016 156.84 77.254Q153.078 73.492 150.95 68.324Q148.822 63.156 148.822 57Q148.822 50.844 150.95 45.676Q153.078 40.508 156.84 36.746Q160.602 32.984 165.732 30.856Q170.862 28.728 176.866 28.728Q182.87 28.728 188 30.856Q193.13 32.984 196.892 36.746Q200.654 40.508 202.782 45.676Q204.91 50.844 204.91 57ZM250.434 35.226Q254.31 36.86 257.122 39.824L260.922 36.024Q257.502 32.5886 252.714 30.6583Q247.926 28.728 241.466 28.728Q235.462 28.728 230.332 30.856Q225.202 32.984 221.44 36.746Q217.678 40.508 215.55 45.676Q213.422 50.844 213.422 57Q213.422 63.156 215.512 68.324Q217.602 73.492 221.326 77.254Q225.05 81.016 230.218 83.144Q235.386 85.272 241.466 85.272Q246.938 85.272 252.03 83.9764Q257.122 82.6809 261.53 80.0149L261.53 55.708L243.518 55.708L243.518 60.572L256.058 60.572L256.058 76.912Q253.702 78.432 249.902 79.42Q246.102 80.408 241.542 80.408Q236.374 80.408 232.232 78.511Q228.09 76.6139 225.202 73.4273Q222.314 70.2406 220.756 65.9917Q219.198 61.7429 219.198 57.038Q219.198 52.3331 220.756 48.0842Q222.314 43.8354 225.202 40.6107Q228.09 37.3861 232.232 35.489Q236.374 33.592 241.542 33.592Q246.558 33.592 250.434 35.226ZM118.422 79.04L143.502 79.04L143.502 83.904L112.95 83.904L112.95 30.096L118.422 30.096L118.422 79.04ZM280.986 83.904L275.514 83.904L275.514 30.096L280.986 30.096L280.986 83.904ZM333.578 75.924L333.426 75.924L302.114 30.096L295.274 30.096L295.274 83.904L300.746 83.904L300.746 37.62L300.898 37.62L332.21 83.904L339.05 83.904L339.05 30.096L333.578 30.096L333.578 75.924ZM199.134 57.038Q199.134 52.3331 197.614 48.0842Q196.094 43.8354 193.206 40.6107Q190.318 37.3861 186.176 35.489Q182.034 33.592 176.866 33.592Q171.698 33.592 167.556 35.489Q163.414 37.3861 160.526 40.6107Q157.638 43.8354 156.118 48.0842Q154.598 52.3331 154.598 57.038Q154.598 61.7429 156.118 65.9917Q157.638 70.2406 160.526 73.4273Q163.414 76.6139 167.556 78.511Q171.698 80.408 176.866 80.408Q182.034 80.408 186.176 78.511Q190.318 76.6139 193.206 73.4273Q196.094 70.2406 197.614 65.9917Q199.134 61.7429 199.134 57.038Z" />
    </g>
    <g id="TECHTOREHAB" transform="translate(0 342)">
      <g id="TECH" fill="#FFFFFF">
        <path d="M588 244.2Q578.6 255 564.8 261.3Q551 267.6 533 267.6Q516.6 267.6 502.7 262.2Q488.8 256.8 478.6 246.9Q468.4 237 462.6 223.2Q456.8 209.4 456.8 192.8Q456.8 175.8 462.7 162Q468.6 148.2 479 138.5Q489.4 128.8 503.4 123.6Q517.4 118.4 533.6 118.4Q548.6 118.4 563.1 123.7Q577.6 129 586.6 139.2L563.4 162.4Q558.6 155.8 550.8 152.6Q543 149.4 534.8 149.4Q525.8 149.4 518.3 152.7Q510.8 156 505.4 161.8Q500 167.6 497 175.5Q494 183.4 494 192.8Q494 202.4 497 210.4Q500 218.4 505.3 224.1Q510.6 229.8 518 233Q525.4 236.2 534.2 236.2Q544.4 236.2 552 232.2Q559.6 228.2 564.2 221.8L588 244.2ZM286.4 263.8L286.4 151.4L326.4 151.4L326.4 122.2L212.2 122.2L212.2 151.4L252.2 151.4L252.2 263.8L286.4 263.8ZM342 122.2L342 263.8L440.8 263.8L440.8 234.6L375 234.6L375 205.2L433.8 205.2L433.8 177.8L375 177.8L375 151L437.2 151L437.2 122.2L342 122.2ZM692 204.6L692 263.8L726.2 263.8L726.2 122.2L692 122.2L692 175.8L636.8 175.8L636.8 122.2L602.6 122.2L602.6 263.8L636.8 263.8L636.8 204.6L692 204.6Z" />
      </g>
      <g id="TO" fill="#FFFFFF">
        <path d="M1003.3 223.1Q1008.8 209.4 1008.8 193Q1008.8 176.6 1003.3 162.9Q997.8 149.2 988.1 139.3Q978.4 129.4 965.1 123.8Q951.8 118.2 936 118.2Q920.2 118.2 906.9 123.8Q893.6 129.4 883.9 139.3Q874.2 149.2 868.7 162.9Q863.2 176.6 863.2 193Q863.2 209.4 868.7 223.1Q874.2 236.8 883.9 246.7Q893.6 256.6 907 262.2Q920.4 267.8 936 267.8Q951.6 267.8 965 262.2Q978.4 256.6 988.1 246.7Q997.8 236.8 1003.3 223.1ZM797 263.8L797 126.2L845.2 126.2L845.2 122.2L744.4 122.2L744.4 126.2L792.6 126.2L792.6 263.8L797 263.8ZM999.4 165.3Q1004.4 178.2 1004.4 193Q1004.4 207.8 999.5 220.7Q994.6 233.6 985.6 243.2Q976.6 252.8 964 258.3Q951.4 263.8 936 263.8Q920.6 263.8 908 258.3Q895.4 252.8 886.4 243.2Q877.4 233.6 872.5 220.7Q867.6 207.8 867.6 193Q867.6 178.2 872.6 165.3Q877.6 152.4 886.7 142.8Q895.8 133.2 908.4 127.7Q921 122.2 936 122.2Q951 122.2 963.6 127.7Q976.2 133.2 985.3 142.8Q994.4 152.4 999.4 165.3Z" />
      </g>
      <g id="REHAB" fill="#FFFFFF">
        <path d="M1113.6 263.8L1082.86 207.6L1071.2 207.6L1071.2 263.8L1037.8 263.8L1037.8 122.2L1091.8 122.2Q1102 122.2 1111.7 124.3Q1121.4 126.4 1129.1 131.4Q1136.8 136.4 1141.4 144.6Q1146 152.8 1146 165Q1146 179.4 1138.2 189.2Q1130.4 199 1116.6 203.2L1153.6 263.8L1113.6 263.8ZM1170.4 263.8L1170.4 122.2L1265.6 122.2L1265.6 151L1203.4 151L1203.4 177.8L1262.2 177.8L1262.2 205.2L1203.4 205.2L1203.4 234.6L1269.2 234.6L1269.2 263.8L1170.4 263.8ZM1381.2 204.6L1381.2 263.8L1415.4 263.8L1415.4 122.2L1381.2 122.2L1381.2 175.8L1326 175.8L1326 122.2L1291.8 122.2L1291.8 263.8L1326 263.8L1326 204.6L1381.2 204.6ZM1540.6 263.8L1529.6 236L1474.8 236L1464.4 263.8L1427.2 263.8L1486.6 122.2L1519.8 122.2L1578.6 263.8L1540.6 263.8ZM1696.2 242.1Q1700.8 234.2 1700.8 222.6Q1700.8 215.6 1698.5 210Q1696.2 204.4 1692.3 200.2Q1688.4 196 1683.1 193.3Q1677.8 190.6 1671.8 189.6L1671.8 189.2Q1682.2 185.8 1688.6 178.1Q1695 170.4 1695 158.6Q1695 147.8 1690.6 140.8Q1686.2 133.8 1679.2 129.7Q1672.2 125.6 1663.6 123.9Q1655 122.2 1646.8 122.2L1590.4 122.2L1590.4 263.8L1646.8 263.8Q1657 263.8 1666.7 261.7Q1676.4 259.6 1684 254.8Q1691.6 250 1696.2 242.1ZM1656.5 152.7Q1662 156 1662 163.2Q1662 170.8 1656.7 174.7Q1651.4 178.6 1641.8 178.6L1623.4 178.6L1623.4 149.4L1640.2 149.4Q1651 149.4 1656.5 152.7ZM1112.2 165.6Q1112.2 160.6 1110.09 157.5Q1107.98 154.4 1104.66 152.7Q1101.35 151 1097.23 150.4Q1093.11 149.8 1089.29 149.8L1071 149.8L1071 182.8L1087.28 182.8Q1091.5 182.8 1095.92 182.1Q1100.34 181.4 1103.96 179.6Q1107.58 177.8 1109.89 174.4Q1112.2 171 1112.2 165.6ZM1502.6 160L1484.6 208.6L1520.2 208.6L1502.6 160ZM1660 207.2Q1666.6 210.6 1666.6 219.4Q1666.6 224.6 1664.4 227.9Q1662.2 231.2 1658.7 233Q1655.2 234.8 1650.9 235.5Q1646.6 236.2 1642.6 236.2L1623.4 236.2L1623.4 203.8L1642.4 203.8Q1653.4 203.8 1660 207.2Z" />
      </g>
    </g>
    <path d="M0 4L1506 0" transform="translate(218 640)" id="Line" fill="none" stroke="#39FF81" stroke-width="3" />
  </g>
</svg>