<?xml version="1.0" encoding="utf-8"?>
<svg width="2000px" height="2000px" viewBox="0 0 2000 2000" version="1.1" xmlns:xlink="http://www.w3.org/1999/xlink" xmlns="http://www.w3.org/2000/svg">
  <desc>Created with Lunacy</desc>
  <defs>
    <rect width="2000" height="2000" id="artboard_1" />
    <clipPath id="clip_1">
      <use xlink:href="#artboard_1" clip-rule="evenodd" />
    </clipPath>
  </defs>
  <g id="Full-HD" clip-path="url(#clip_1)">
    <use xlink:href="#artboard_1" stroke="none" fill="#000000" />
    <g id="TECH-TO-REHAB" fill="#FFFFFF" transform="translate(0 899.0001)">
      <path d="M476.776 229.911Q492.922 222.54 503.92 209.904L476.074 183.696Q470.692 191.184 461.8 195.864Q452.908 200.544 440.974 200.544Q430.678 200.544 422.02 196.8Q413.362 193.056 407.161 186.387Q400.96 179.718 397.45 170.358Q393.94 160.998 393.94 149.766Q393.94 138.768 397.45 129.525Q400.96 120.282 407.278 113.496Q413.596 106.71 422.371 102.849Q431.146 98.988 441.676 98.988Q451.27 98.988 460.396 102.732Q469.522 106.476 475.138 114.198L502.282 87.054Q491.752 75.12 474.787 68.919Q457.822 62.718 440.272 62.718Q421.318 62.718 404.938 68.802Q388.558 74.886 376.39 86.235Q364.222 97.584 357.319 113.73Q350.416 129.876 350.416 149.766Q350.416 169.188 357.202 185.334Q363.988 201.48 375.922 213.063Q387.856 224.646 404.119 230.964Q420.382 237.282 439.57 237.282Q460.63 237.282 476.776 229.911ZM1066.92 149.298Q1066.92 168.954 1060.14 185.217Q1053.35 201.48 1041.3 213.063Q1029.25 224.646 1012.64 230.964Q996.022 237.282 976.6 237.282Q957.178 237.282 940.681 230.964Q924.184 224.646 912.133 213.063Q900.082 201.48 893.296 185.217Q886.51 168.954 886.51 149.298Q886.51 129.408 893.296 113.379Q900.082 97.35 912.133 86.118Q924.184 74.886 940.681 68.802Q957.178 62.718 976.6 62.718Q996.022 62.718 1012.64 68.802Q1029.25 74.886 1041.3 86.118Q1053.35 97.35 1060.14 113.379Q1066.92 129.408 1066.92 149.298ZM151.048 101.328L151.048 232.836L111.034 232.836L111.034 101.328L64.234 101.328L64.234 67.164L197.848 67.164L197.848 101.328L151.048 101.328ZM216.1 232.836L216.1 67.164L327.484 67.164L327.484 100.86L254.71 100.86L254.71 132.216L323.506 132.216L323.506 164.274L254.71 164.274L254.71 198.672L331.696 198.672L331.696 232.836L216.1 232.836ZM625.6 232.836L625.6 163.572L561.016 163.572L561.016 232.836L521.002 232.836L521.002 67.164L561.016 67.164L561.016 129.876L625.6 129.876L625.6 67.164L665.614 67.164L665.614 232.836L625.6 232.836ZM829.18 232.836L829.18 101.328L875.98 101.328L875.98 67.164L742.366 67.164L742.366 101.328L789.166 101.328L789.166 232.836L829.18 232.836ZM1204.58 167.082L1240.55 232.836L1287.35 232.836L1244.06 161.934Q1260.21 157.02 1269.33 145.554Q1278.46 134.088 1278.46 117.24Q1278.46 102.966 1273.08 93.372Q1267.7 83.778 1258.69 77.928Q1249.68 72.078 1238.33 69.621Q1226.98 67.164 1215.05 67.164L1151.87 67.164L1151.87 232.836L1190.94 232.836L1190.94 167.082L1204.58 167.082ZM1307.01 232.836L1307.01 67.164L1418.39 67.164L1418.39 100.86L1345.62 100.86L1345.62 132.216L1414.41 132.216L1414.41 164.274L1345.62 164.274L1345.62 198.672L1422.6 198.672L1422.6 232.836L1307.01 232.836ZM1553.64 163.572L1553.64 232.836L1593.66 232.836L1593.66 67.164L1553.64 67.164L1553.64 129.876L1489.06 129.876L1489.06 67.164L1449.05 67.164L1449.05 232.836L1489.06 232.836L1489.06 163.572L1553.64 163.572ZM1740.14 232.836L1727.27 200.31L1663.16 200.31L1650.99 232.836L1607.46 232.836L1676.96 67.164L1715.81 67.164L1784.6 232.836L1740.14 232.836ZM1922.19 207.447Q1927.58 198.204 1927.58 184.632Q1927.58 176.442 1924.89 169.89Q1922.19 163.338 1917.63 158.424Q1913.07 153.51 1906.87 150.351Q1900.67 147.192 1893.65 146.022L1893.65 145.554Q1905.81 141.576 1913.3 132.567Q1920.79 123.558 1920.79 109.752Q1920.79 97.116 1915.64 88.926Q1910.49 80.736 1902.3 75.939Q1894.11 71.142 1884.05 69.153Q1873.99 67.164 1864.4 67.164L1798.41 67.164L1798.41 232.836L1864.4 232.836Q1876.33 232.836 1887.68 230.379Q1899.03 227.922 1907.92 222.306Q1916.81 216.69 1922.19 207.447ZM1024.1 149.298Q1024.1 138.534 1020.59 129.174Q1017.08 119.814 1010.88 113.145Q1004.68 106.476 995.905 102.615Q987.13 98.754 976.6 98.754Q966.07 98.754 957.412 102.615Q948.754 106.476 942.436 113.145Q936.118 119.814 932.725 129.174Q929.332 138.534 929.332 149.298Q929.332 160.53 932.842 170.007Q936.352 179.484 942.553 186.27Q948.754 193.056 957.412 196.917Q966.07 200.778 976.6 200.778Q987.13 200.778 995.788 196.917Q1004.45 193.056 1010.76 186.27Q1017.08 179.484 1020.59 170.007Q1024.1 160.53 1024.1 149.298ZM1875.74 102.849Q1882.18 106.71 1882.18 115.134Q1882.18 124.026 1875.98 128.589Q1869.78 133.152 1858.55 133.152L1837.02 133.152L1837.02 98.988L1856.67 98.988Q1869.31 98.988 1875.74 102.849ZM1236.44 108.465Q1238.91 112.092 1238.91 117.942Q1238.91 124.26 1236.21 128.238Q1233.51 132.216 1229.27 134.322Q1225.04 136.428 1219.87 137.247Q1214.69 138.066 1209.76 138.066L1190.71 138.066L1190.71 99.456L1212.11 99.456Q1216.57 99.456 1221.4 100.158Q1226.22 100.86 1230.1 102.849Q1233.97 104.838 1236.44 108.465ZM1695.68 111.39L1674.62 168.252L1716.27 168.252L1695.68 111.39ZM1879.84 166.614Q1887.56 170.592 1887.56 180.888Q1887.56 186.972 1884.99 190.833Q1882.41 194.694 1878.32 196.8Q1874.22 198.906 1869.19 199.725Q1864.16 200.544 1859.48 200.544L1837.02 200.544L1837.02 162.636L1859.25 162.636Q1872.12 162.636 1879.84 166.614Z" />
    </g>
    <g id="THE-OPEN-SOURCE-COLLABORATION-PLATFORM" fill="#1890FF" transform="translate(57 792.0001)">
      <path d="M189.42 79.568Q191.244 75.184 191.244 69.936Q191.244 64.624 189.42 60.24Q187.596 55.856 184.396 52.752Q181.196 49.648 176.78 47.92Q172.364 46.192 167.18 46.192Q161.996 46.192 157.612 47.92Q153.228 49.648 150.028 52.752Q146.828 55.856 145.036 60.24Q143.244 64.624 143.244 69.936Q143.244 75.184 145.036 79.568Q146.828 83.952 150.028 87.12Q153.228 90.288 157.612 92.048Q161.996 93.808 167.18 93.808Q172.364 93.808 176.78 92.048Q181.196 90.288 184.396 87.12Q187.596 83.952 189.42 79.568ZM360.716 52.688Q363.02 53.872 364.364 55.728L368.844 51.376Q366.732 49.008 363.276 47.6Q359.82 46.192 355.852 46.192Q353.036 46.192 350.252 46.928Q347.468 47.664 345.26 49.264Q343.052 50.864 341.676 53.296Q340.3 55.728 340.3 59.12Q340.3 62.256 341.324 64.368Q342.348 66.48 344.012 67.92Q345.676 69.36 347.788 70.288Q349.9 71.216 352.076 71.856Q354.252 72.56 356.204 73.232Q358.156 73.904 359.628 74.864Q361.1 75.824 361.964 77.2Q362.828 78.576 362.828 80.624Q362.828 82.672 361.996 84.112Q361.164 85.552 359.852 86.512Q358.54 87.472 356.94 87.92Q355.34 88.368 353.74 88.368Q350.604 88.368 347.916 86.896Q345.228 85.424 343.628 83.056L338.7 87.216Q341.324 90.48 345.324 92.144Q349.324 93.808 353.612 93.808Q356.62 93.808 359.468 92.976Q362.316 92.144 364.492 90.448Q366.668 88.752 367.98 86.16Q369.292 83.568 369.292 80.048Q369.292 76.656 368.076 74.448Q366.86 72.24 364.94 70.768Q363.02 69.296 360.652 68.4Q358.284 67.504 355.98 66.8Q354.06 66.16 352.364 65.552Q350.668 64.944 349.42 64.08Q348.172 63.216 347.436 61.968Q346.7 60.72 346.7 58.864Q346.7 56.944 347.5 55.568Q348.3 54.192 349.58 53.264Q350.86 52.336 352.428 51.92Q353.996 51.504 355.532 51.504Q358.412 51.504 360.716 52.688ZM423.948 69.936Q423.948 75.184 422.124 79.568Q420.3 83.952 417.1 87.12Q413.9 90.288 409.484 92.048Q405.068 93.808 399.884 93.808Q394.7 93.808 390.316 92.048Q385.932 90.288 382.732 87.12Q379.532 83.952 377.74 79.568Q375.948 75.184 375.948 69.936Q375.948 64.624 377.74 60.24Q379.532 55.856 382.732 52.752Q385.932 49.648 390.316 47.92Q394.7 46.192 399.884 46.192Q405.068 46.192 409.484 47.92Q413.9 49.648 417.1 52.752Q420.3 55.856 422.124 60.24Q423.948 64.624 423.948 69.936ZM549.324 91.536Q553.612 89.264 556.3 85.616L551.244 82.16Q549.196 85.104 546.06 86.64Q542.924 88.176 539.084 88.176Q535.18 88.176 532.012 86.768Q528.844 85.36 526.636 82.896Q524.428 80.432 523.244 77.104Q522.06 73.776 522.06 69.936Q522.06 66.224 523.276 62.928Q524.492 59.632 526.732 57.136Q528.972 54.64 532.14 53.2Q535.308 51.76 539.276 51.76Q542.796 51.76 545.836 53.264Q548.876 54.768 550.54 57.072L555.532 53.232Q554.252 51.504 552.46 50.192Q550.668 48.88 548.492 47.984Q546.316 47.088 543.948 46.64Q541.58 46.192 539.276 46.192Q534.092 46.192 529.676 47.92Q525.26 49.648 522.028 52.752Q518.796 55.856 516.972 60.24Q515.148 64.624 515.148 69.936Q515.148 75.184 516.94 79.568Q518.732 83.952 521.9 87.12Q525.068 90.288 529.452 92.048Q533.836 93.808 539.02 93.808Q545.036 93.808 549.324 91.536ZM649.1 91.536Q653.388 89.264 656.076 85.616L651.02 82.16Q648.972 85.104 645.836 86.64Q642.7 88.176 638.86 88.176Q634.956 88.176 631.788 86.768Q628.62 85.36 626.412 82.896Q624.204 80.432 623.02 77.104Q621.836 73.776 621.836 69.936Q621.836 66.224 623.052 62.928Q624.268 59.632 626.508 57.136Q628.748 54.64 631.916 53.2Q635.084 51.76 639.052 51.76Q642.572 51.76 645.612 53.264Q648.652 54.768 650.316 57.072L655.308 53.232Q654.028 51.504 652.236 50.192Q650.444 48.88 648.268 47.984Q646.092 47.088 643.724 46.64Q641.356 46.192 639.052 46.192Q633.868 46.192 629.452 47.92Q625.036 49.648 621.804 52.752Q618.572 55.856 616.748 60.24Q614.924 64.624 614.924 69.936Q614.924 75.184 616.716 79.568Q618.508 83.952 621.676 87.12Q624.844 90.288 629.228 92.048Q633.612 93.808 638.796 93.808Q644.812 93.808 649.1 91.536ZM708.236 69.936Q708.236 75.184 706.412 79.568Q704.588 83.952 701.388 87.12Q698.188 90.288 693.772 92.048Q689.356 93.808 684.172 93.808Q678.988 93.808 674.604 92.048Q670.22 90.288 667.02 87.12Q663.82 83.952 662.028 79.568Q660.236 75.184 660.236 69.936Q660.236 64.624 662.028 60.24Q663.82 55.856 667.02 52.752Q670.22 49.648 674.604 47.92Q678.988 46.192 684.172 46.192Q689.356 46.192 693.772 47.92Q698.188 49.648 701.388 52.752Q704.588 55.856 706.412 60.24Q708.236 64.624 708.236 69.936ZM912.748 79.568Q914.572 75.184 914.572 69.936Q914.572 64.624 912.748 60.24Q910.924 55.856 907.724 52.752Q904.524 49.648 900.108 47.92Q895.692 46.192 890.508 46.192Q885.324 46.192 880.94 47.92Q876.556 49.648 873.356 52.752Q870.156 55.856 868.364 60.24Q866.572 64.624 866.572 69.936Q866.572 75.184 868.364 79.568Q870.156 83.952 873.356 87.12Q876.556 90.288 880.94 92.048Q885.324 93.808 890.508 93.808Q895.692 93.808 900.108 92.048Q904.524 90.288 907.724 87.12Q910.924 83.952 912.748 79.568ZM1107.47 69.936Q1107.47 75.184 1105.64 79.568Q1103.82 83.952 1100.62 87.12Q1097.42 90.288 1093 92.048Q1088.59 93.808 1083.4 93.808Q1078.22 93.808 1073.84 92.048Q1069.45 90.288 1066.25 87.12Q1063.05 83.952 1061.26 79.568Q1059.47 75.184 1059.47 69.936Q1059.47 64.624 1061.26 60.24Q1063.05 55.856 1066.25 52.752Q1069.45 49.648 1073.84 47.92Q1078.22 46.192 1083.4 46.192Q1088.59 46.192 1093 47.92Q1097.42 49.648 1100.62 52.752Q1103.82 55.856 1105.64 60.24Q1107.47 64.624 1107.47 69.936ZM1414.44 79.568Q1416.27 75.184 1416.27 69.936Q1416.27 64.624 1414.44 60.24Q1412.62 55.856 1409.42 52.752Q1406.22 49.648 1401.8 47.92Q1397.39 46.192 1392.2 46.192Q1387.02 46.192 1382.64 47.92Q1378.25 49.648 1375.05 52.752Q1371.85 55.856 1370.06 60.24Q1368.27 64.624 1368.27 69.936Q1368.27 75.184 1370.06 79.568Q1371.85 83.952 1375.05 87.12Q1378.25 90.288 1382.64 92.048Q1387.02 93.808 1392.2 93.808Q1397.39 93.808 1401.8 92.048Q1406.22 90.288 1409.42 87.12Q1412.62 83.952 1414.44 79.568ZM17.548 92.656L23.884 92.656L23.884 52.912L38.412 52.912L38.412 47.344L3.02 47.344L3.02 52.912L17.548 52.912L17.548 92.656ZM50.764 47.344L44.428 47.344L44.428 92.656L50.764 92.656L50.764 71.92L73.676 71.92L73.676 92.656L80.076 92.656L80.076 47.344L73.676 47.344L73.676 66.288L50.764 66.288L50.764 47.344ZM97.42 87.024L121.1 87.024L121.1 92.656L91.084 92.656L91.084 47.344L120.14 47.344L120.14 52.912L97.42 52.912L97.42 66.48L118.796 66.48L118.796 71.92L97.42 71.92L97.42 87.024ZM199.884 47.344L213.708 47.344Q217.356 47.344 220.364 48.08Q223.372 48.816 225.484 50.352Q227.596 51.888 228.748 54.256Q229.9 56.624 229.9 59.952Q229.9 63.344 228.652 65.776Q227.404 68.208 225.196 69.744Q222.988 71.28 219.948 72.016Q216.908 72.752 213.388 72.752L206.22 72.752L206.22 92.656L199.884 92.656L199.884 47.344ZM267.98 87.024L244.3 87.024L244.3 71.92L265.676 71.92L265.676 66.48L244.3 66.48L244.3 52.912L267.02 52.912L267.02 47.344L237.964 47.344L237.964 92.656L267.98 92.656L267.98 87.024ZM308.364 83.568L308.492 83.568L308.492 47.344L314.828 47.344L314.828 92.656L306.828 92.656L282.892 55.664L282.764 55.664L282.764 92.656L276.428 92.656L276.428 47.344L284.684 47.344L308.364 83.568ZM442.06 92.304Q445.388 93.808 449.868 93.808Q454.348 93.808 457.676 92.304Q461.004 90.8 463.18 88.304Q465.356 85.808 466.412 82.576Q467.468 79.344 467.468 75.888L467.468 47.344L461.132 47.344L461.132 75.504Q461.132 77.808 460.556 80.08Q459.98 82.352 458.668 84.144Q457.356 85.936 455.18 87.024Q453.004 88.112 449.868 88.112Q446.668 88.112 444.524 87.024Q442.38 85.936 441.068 84.144Q439.756 82.352 439.18 80.08Q438.604 77.808 438.604 75.504L438.604 47.344L432.268 47.344L432.268 75.888Q432.268 79.344 433.324 82.576Q434.38 85.808 436.556 88.304Q438.732 90.8 442.06 92.304ZM484.492 92.656L478.156 92.656L478.156 47.344L492.684 47.344Q495.948 47.344 498.892 48.016Q501.836 48.688 504.044 50.16Q506.252 51.632 507.532 54.032Q508.812 56.432 508.812 59.888Q508.812 64.88 505.74 67.952Q502.668 71.024 497.804 71.856L510.476 92.656L502.796 92.656L491.276 72.496L484.492 72.496L484.492 92.656ZM569.1 87.024L592.78 87.024L592.78 92.656L562.764 92.656L562.764 47.344L591.82 47.344L591.82 52.912L569.1 52.912L569.1 66.48L590.476 66.48L590.476 71.92L569.1 71.92L569.1 87.024ZM743.436 87.024L723.212 87.024L723.212 47.344L716.876 47.344L716.876 92.656L743.436 92.656L743.436 87.024ZM755.916 87.024L776.14 87.024L776.14 92.656L749.58 92.656L749.58 47.344L755.916 47.344L755.916 87.024ZM777.1 92.656L784.14 92.656L788.684 81.52L810.188 81.52L814.796 92.656L821.964 92.656L802.508 47.344L796.748 47.344L777.1 92.656ZM827.788 47.344L843.404 47.344Q845.964 47.344 848.524 47.92Q851.084 48.496 853.1 49.84Q855.116 51.184 856.364 53.36Q857.612 55.536 857.612 58.8Q857.612 62.576 855.436 65.136Q853.26 67.696 849.676 68.656L849.676 68.784Q851.852 69.04 853.708 69.904Q855.564 70.768 856.908 72.176Q858.252 73.584 858.988 75.504Q859.724 77.424 859.724 79.792Q859.724 83.056 858.38 85.488Q857.036 87.92 854.732 89.488Q852.428 91.056 849.324 91.856C847.255 92.3893 845.047 92.656 842.7 92.656L827.788 92.656L827.788 47.344ZM929.548 92.656L923.212 92.656L923.212 47.344L937.74 47.344Q941.004 47.344 943.948 48.016Q946.892 48.688 949.1 50.16Q951.308 51.632 952.588 54.032Q953.868 56.432 953.868 59.888Q953.868 64.88 950.796 67.952Q947.724 71.024 942.86 71.856L955.532 92.656L947.852 92.656L936.332 72.496L929.548 72.496L929.548 92.656ZM957.324 92.656L964.364 92.656L968.908 81.52L990.412 81.52L995.02 92.656L1002.19 92.656L982.732 47.344L976.972 47.344L957.324 92.656ZM1023.88 92.656L1017.55 92.656L1017.55 52.912L1003.02 52.912L1003.02 47.344L1038.41 47.344L1038.41 52.912L1023.88 52.912L1023.88 92.656ZM1044.43 92.656L1050.76 92.656L1050.76 47.344L1044.43 47.344L1044.43 92.656ZM1148.17 83.568L1148.04 83.568L1124.36 47.344L1116.11 47.344L1116.11 92.656L1122.44 92.656L1122.44 55.664L1122.57 55.664L1146.51 92.656L1154.51 92.656L1154.51 47.344L1148.17 47.344L1148.17 83.568ZM1181.52 47.344L1195.34 47.344Q1198.99 47.344 1202 48.08Q1205 48.816 1207.12 50.352Q1209.23 51.888 1210.38 54.256Q1211.53 56.624 1211.53 59.952Q1211.53 63.344 1210.28 65.776Q1209.04 68.208 1206.83 69.744Q1204.62 71.28 1201.58 72.016Q1198.54 72.752 1195.02 72.752L1187.85 72.752L1187.85 92.656L1181.52 92.656L1181.52 47.344ZM1246.16 87.024L1225.93 87.024L1225.93 47.344L1219.6 47.344L1219.6 92.656L1246.16 92.656L1246.16 87.024ZM1254.16 92.656L1247.12 92.656L1266.76 47.344L1272.52 47.344L1291.98 92.656L1284.81 92.656L1280.2 81.52L1258.7 81.52L1254.16 92.656ZM1307.34 92.656L1313.68 92.656L1313.68 52.912L1328.2 52.912L1328.2 47.344L1292.81 47.344L1292.81 52.912L1307.34 52.912L1307.34 92.656ZM1340.56 92.656L1334.22 92.656L1334.22 47.344L1362.51 47.344L1362.51 52.912L1340.56 52.912L1340.56 66.992L1361.1 66.992L1361.1 72.432L1340.56 72.432L1340.56 92.656ZM1431.24 92.656L1424.91 92.656L1424.91 47.344L1439.44 47.344Q1442.7 47.344 1445.64 48.016Q1448.59 48.688 1450.8 50.16Q1453 51.632 1454.28 54.032Q1455.56 56.432 1455.56 59.888Q1455.56 64.88 1452.49 67.952Q1449.42 71.024 1444.56 71.856L1457.23 92.656L1449.55 92.656L1438.03 72.496L1431.24 72.496L1431.24 92.656ZM1487.76 82.16L1487.63 82.16L1474.06 47.344L1464.2 47.344L1464.2 92.656L1470.35 92.656L1470.35 54.768L1470.48 54.768L1485.45 92.656L1489.48 92.656L1504.52 54.768L1504.65 54.768L1504.65 92.656L1510.99 92.656L1510.99 47.344L1501.13 47.344L1487.76 82.16ZM183.18 62.928Q184.396 66.224 184.396 69.936Q184.396 73.712 183.18 77.04Q181.964 80.368 179.724 82.832Q177.484 85.296 174.284 86.704Q171.084 88.112 167.18 88.112Q163.276 88.112 160.14 86.704Q157.004 85.296 154.764 82.832Q152.524 80.368 151.308 77.04Q150.092 73.712 150.092 69.936Q150.092 66.224 151.308 62.928Q152.524 59.632 154.732 57.136Q156.94 54.64 160.108 53.2Q163.276 51.76 167.18 51.76Q171.148 51.76 174.316 53.2Q177.484 54.64 179.724 57.136Q181.964 59.632 183.18 62.928ZM417.1 69.936Q417.1 66.224 415.884 62.928Q414.668 59.632 412.428 57.136Q410.188 54.64 407.02 53.2Q403.852 51.76 399.884 51.76Q395.98 51.76 392.812 53.2Q389.644 54.64 387.436 57.136Q385.228 59.632 384.012 62.928Q382.796 66.224 382.796 69.936Q382.796 73.712 384.012 77.04Q385.228 80.368 387.468 82.832Q389.708 85.296 392.844 86.704Q395.98 88.112 399.884 88.112Q403.788 88.112 406.988 86.704Q410.188 85.296 412.428 82.832Q414.668 80.368 415.884 77.04Q417.1 73.712 417.1 69.936ZM701.388 69.936Q701.388 66.224 700.172 62.928Q698.956 59.632 696.716 57.136Q694.476 54.64 691.308 53.2Q688.14 51.76 684.172 51.76Q680.268 51.76 677.1 53.2Q673.932 54.64 671.724 57.136Q669.516 59.632 668.3 62.928Q667.084 66.224 667.084 69.936Q667.084 73.712 668.3 77.04Q669.516 80.368 671.756 82.832Q673.996 85.296 677.132 86.704Q680.268 88.112 684.172 88.112Q688.076 88.112 691.276 86.704Q694.476 85.296 696.716 82.832Q698.956 80.368 700.172 77.04Q701.388 73.712 701.388 69.936ZM906.508 62.928Q907.724 66.224 907.724 69.936Q907.724 73.712 906.508 77.04Q905.292 80.368 903.052 82.832Q900.812 85.296 897.612 86.704Q894.412 88.112 890.508 88.112Q886.604 88.112 883.468 86.704Q880.332 85.296 878.092 82.832Q875.852 80.368 874.636 77.04Q873.42 73.712 873.42 69.936Q873.42 66.224 874.636 62.928Q875.852 59.632 878.06 57.136Q880.268 54.64 883.436 53.2Q886.604 51.76 890.508 51.76Q894.476 51.76 897.644 53.2Q900.812 54.64 903.052 57.136Q905.292 59.632 906.508 62.928ZM1100.62 69.936Q1100.62 66.224 1099.4 62.928Q1098.19 59.632 1095.95 57.136Q1093.71 54.64 1090.54 53.2Q1087.37 51.76 1083.4 51.76Q1079.5 51.76 1076.33 53.2Q1073.16 54.64 1070.96 57.136Q1068.75 59.632 1067.53 62.928Q1066.32 66.224 1066.32 69.936Q1066.32 73.712 1067.53 77.04Q1068.75 80.368 1070.99 82.832Q1073.23 85.296 1076.36 86.704Q1079.5 88.112 1083.4 88.112Q1087.31 88.112 1090.51 86.704Q1093.71 85.296 1095.95 82.832Q1098.19 80.368 1099.4 77.04Q1100.62 73.712 1100.62 69.936ZM1408.2 62.928Q1409.42 66.224 1409.42 69.936Q1409.42 73.712 1408.2 77.04Q1406.99 80.368 1404.75 82.832Q1402.51 85.296 1399.31 86.704Q1396.11 88.112 1392.2 88.112Q1388.3 88.112 1385.16 86.704Q1382.03 85.296 1379.79 82.832Q1377.55 80.368 1376.33 77.04Q1375.12 73.712 1375.12 69.936Q1375.12 66.224 1376.33 62.928Q1377.55 59.632 1379.76 57.136Q1381.96 54.64 1385.13 53.2Q1388.3 51.76 1392.2 51.76Q1396.17 51.76 1399.34 53.2Q1402.51 54.64 1404.75 57.136Q1406.99 59.632 1408.2 62.928ZM834.124 66.48L842.38 66.48Q844.172 66.48 845.804 66.064Q847.436 65.648 848.652 64.784Q849.868 63.92 850.572 62.608Q851.276 61.296 851.276 59.44Q851.276 55.792 848.588 54.224Q845.9 52.656 841.356 52.656L834.124 52.656L834.124 66.48ZM206.22 67.376L212.94 67.376Q215.244 67.376 217.196 66.96Q219.148 66.544 220.556 65.68Q221.964 64.816 222.732 63.408Q223.5 62 223.5 59.952Q223.5 57.904 222.7 56.528Q221.9 55.152 220.524 54.288Q219.148 53.424 217.228 53.072Q215.308 52.72 213.068 52.72L206.22 52.72L206.22 67.376ZM484.492 67.184L491.788 67.184Q494.028 67.184 495.948 66.8Q497.868 66.416 499.308 65.552Q500.748 64.688 501.58 63.312Q502.412 61.936 502.412 59.888Q502.412 57.84 501.58 56.464Q500.748 55.088 499.372 54.256Q497.996 53.424 496.14 53.072Q494.284 52.72 492.236 52.72L484.492 52.72L484.492 67.184ZM929.548 67.184L936.844 67.184Q939.084 67.184 941.004 66.8Q942.924 66.416 944.364 65.552Q945.804 64.688 946.636 63.312Q947.468 61.936 947.468 59.888Q947.468 57.84 946.636 56.464Q945.804 55.088 944.428 54.256Q943.052 53.424 941.196 53.072Q939.34 52.72 937.292 52.72L929.548 52.72L929.548 67.184ZM1187.85 67.376L1194.57 67.376Q1196.88 67.376 1198.83 66.96Q1200.78 66.544 1202.19 65.68Q1203.6 64.816 1204.36 63.408Q1205.13 62 1205.13 59.952Q1205.13 57.904 1204.33 56.528Q1203.53 55.152 1202.16 54.288Q1200.78 53.424 1198.86 53.072Q1196.94 52.72 1194.7 52.72L1187.85 52.72L1187.85 67.376ZM1431.24 67.184L1438.54 67.184Q1440.78 67.184 1442.7 66.8Q1444.62 66.416 1446.06 65.552Q1447.5 64.688 1448.33 63.312Q1449.16 61.936 1449.16 59.888Q1449.16 57.84 1448.33 56.464Q1447.5 55.088 1446.12 54.256Q1444.75 53.424 1442.89 53.072Q1441.04 52.72 1438.99 52.72L1431.24 52.72L1431.24 67.184ZM807.884 75.952L790.924 75.952L799.436 54.704L807.884 75.952ZM988.108 75.952L971.148 75.952L979.66 54.704L988.108 75.952ZM1260.94 75.952L1277.9 75.952L1269.45 54.704L1260.94 75.952ZM834.124 87.28L842.06 87.28Q844.044 87.28 846.06 86.928Q848.076 86.576 849.708 85.68Q851.34 84.784 852.332 83.28Q853.324 81.776 853.324 79.472Q853.324 75.44 850.572 73.648Q847.82 71.856 842.636 71.856L834.124 71.856L834.124 87.28Z" />
    </g>
    <path d="M0 1L1860 1" transform="translate(77 1198)" id="Line" fill="none" stroke="#39FF81" stroke-width="3" />
  </g>
</svg>