<?xml version="1.0" encoding="utf-8"?>
<svg width="2000px" height="2000px" viewBox="0 0 2000 2000" version="1.1" xmlns:xlink="http://www.w3.org/1999/xlink" xmlns="http://www.w3.org/2000/svg">
  <desc>Created with Lunacy</desc>
  <defs>
    <path d="M0 0L493 0L493 493L0 493L0 0Z" id="path_1" />
    <rect width="2000" height="2000" id="artboard_1" />
    <clipPath id="clip_1">
      <use xlink:href="#artboard_1" clip-rule="evenodd" />
    </clipPath>
    <clipPath id="mask_1">
      <use xlink:href="#path_1" />
    </clipPath>
  </defs>
  <g id="Full-HD" clip-path="url(#clip_1)">
    <use xlink:href="#artboard_1" stroke="none" fill="#FFFFFF" />
    <g id="ARTICLE-PUBLISHED-!" transform="translate(9 977.0001)">
      <path d="M693.72 180.245Q702.43 175.63 707.89 168.22L697.62 161.2Q693.46 167.18 687.09 170.3Q680.72 173.42 672.92 173.42Q664.99 173.42 658.555 170.56Q652.12 167.7 647.635 162.695Q643.15 157.69 640.745 150.93Q638.34 144.17 638.34 136.37Q638.34 128.83 640.81 122.135Q643.28 115.44 647.83 110.37Q652.38 105.3 658.815 102.375Q665.25 99.45 673.31 99.45Q680.46 99.45 686.635 102.505Q692.81 105.56 696.19 110.24L706.33 102.44Q703.73 98.93 700.09 96.265Q696.45 93.6 692.03 91.78Q687.61 89.96 682.8 89.05Q677.99 88.14 673.31 88.14Q662.78 88.14 653.81 91.65Q644.84 95.16 638.275 101.465Q631.71 107.77 628.005 116.675Q624.3 125.58 624.3 136.37Q624.3 147.03 627.94 155.935Q631.58 164.84 638.015 171.275Q644.45 177.71 653.355 181.285Q662.26 184.86 672.79 184.86Q685.01 184.86 693.72 180.245ZM1291.46 101.335Q1296.14 103.74 1298.87 107.51L1307.97 98.67Q1303.68 93.86 1296.66 91Q1289.64 88.14 1281.58 88.14Q1275.86 88.14 1270.2 89.635Q1264.55 91.13 1260.06 94.38Q1255.58 97.63 1252.78 102.57Q1249.99 107.51 1249.99 114.4Q1249.99 120.77 1252.07 125.06Q1254.15 129.35 1257.53 132.275Q1260.91 135.2 1265.2 137.085Q1269.49 138.97 1273.91 140.27Q1278.33 141.7 1282.29 143.065Q1286.26 144.43 1289.25 146.38Q1292.24 148.33 1293.99 151.125Q1295.75 153.92 1295.75 158.08Q1295.75 162.24 1294.06 165.165Q1292.37 168.09 1289.7 170.04Q1287.04 171.99 1283.79 172.9Q1280.54 173.81 1277.29 173.81Q1270.92 173.81 1265.46 170.82Q1260 167.83 1256.75 163.02L1246.74 171.47Q1252.07 178.1 1260.19 181.48Q1268.32 184.86 1277.03 184.86Q1283.14 184.86 1288.92 183.17Q1294.71 181.48 1299.13 178.035Q1303.55 174.59 1306.21 169.325Q1308.88 164.06 1308.88 156.91Q1308.88 150.02 1306.41 145.535Q1303.94 141.05 1300.04 138.06Q1296.14 135.07 1291.33 133.25Q1286.52 131.43 1281.84 130Q1277.94 128.7 1274.49 127.465Q1271.05 126.23 1268.51 124.475Q1265.98 122.72 1264.48 120.185Q1262.99 117.65 1262.99 113.88Q1262.99 109.98 1264.61 107.185Q1266.24 104.39 1268.84 102.505Q1271.44 100.62 1274.62 99.775Q1277.81 98.93 1280.93 98.93Q1286.78 98.93 1291.46 101.335ZM351.3 182.52L337 182.52L376.91 90.48L388.61 90.48L428.13 182.52L413.57 182.52L404.21 159.9L360.53 159.9L351.3 182.52ZM452.83 182.52L439.96 182.52L439.96 90.48L469.47 90.48Q476.1 90.48 482.08 91.845Q488.06 93.21 492.545 96.2Q497.03 99.19 499.63 104.065Q502.23 108.94 502.23 115.96Q502.23 126.1 495.99 132.34Q489.75 138.58 479.87 140.27L505.61 182.52L490.01 182.52L466.61 141.57L452.83 141.57L452.83 182.52ZM539.15 182.52L552.02 182.52L552.02 101.79L581.53 101.79L581.53 90.48L509.64 90.48L509.64 101.79L539.15 101.79L539.15 182.52ZM606.62 182.52L593.75 182.52L593.75 90.48L606.62 90.48L606.62 182.52ZM733.89 171.08L774.97 171.08L774.97 182.52L721.02 182.52L721.02 90.48L733.89 90.48L733.89 171.08ZM848.42 171.08L800.32 171.08L800.32 140.4L843.74 140.4L843.74 129.35L800.32 129.35L800.32 101.79L846.47 101.79L846.47 90.48L787.45 90.48L787.45 182.52L848.42 182.52L848.42 171.08ZM898.08 90.48L926.16 90.48Q933.57 90.48 939.68 91.975Q945.79 93.47 950.08 96.59Q954.37 99.71 956.71 104.52Q959.05 109.33 959.05 116.09Q959.05 122.98 956.515 127.92Q953.98 132.86 949.495 135.98Q945.01 139.1 938.835 140.595Q932.66 142.09 925.51 142.09L910.95 142.09L910.95 182.52L898.08 182.52L898.08 90.48ZM994.67 181.805Q1001.43 184.86 1010.53 184.86Q1019.63 184.86 1026.39 181.805Q1033.15 178.75 1037.57 173.68Q1041.99 168.61 1044.14 162.045Q1046.28 155.48 1046.28 148.46L1046.28 90.48L1033.41 90.48L1033.41 147.68Q1033.41 152.36 1032.24 156.975Q1031.07 161.59 1028.4 165.23Q1025.74 168.87 1021.32 171.08Q1016.9 173.29 1010.53 173.29Q1004.03 173.29 999.675 171.08Q995.32 168.87 992.655 165.23Q989.99 161.59 988.82 156.975Q987.65 152.36 987.65 147.68L987.65 90.48L974.78 90.48L974.78 148.46Q974.78 155.48 976.925 162.045Q979.07 168.61 983.49 173.68Q987.91 178.75 994.67 181.805ZM1067.99 90.48L1099.71 90.48Q1104.91 90.48 1110.11 91.65Q1115.31 92.82 1119.4 95.55Q1123.5 98.28 1126.03 102.7Q1128.57 107.12 1128.57 113.75Q1128.57 121.42 1124.15 126.62Q1119.73 131.82 1112.45 133.77L1112.45 134.03Q1116.87 134.55 1120.64 136.305Q1124.41 138.06 1127.14 140.92Q1129.87 143.78 1131.36 147.68Q1132.86 151.58 1132.86 156.39Q1132.86 163.02 1130.13 167.96Q1127.4 172.9 1122.72 176.085Q1118.04 179.27 1111.73 180.895C1107.53 181.978 1103.05 182.52 1098.28 182.52L1067.99 182.52L1067.99 90.48ZM1205.4 171.08L1164.32 171.08L1164.32 90.48L1151.45 90.48L1151.45 182.52L1205.4 182.52L1205.4 171.08ZM1230.75 182.52L1217.88 182.52L1217.88 90.48L1230.75 90.48L1230.75 182.52ZM1327.08 90.48L1339.95 90.48L1339.95 128.96L1386.49 128.96L1386.49 90.48L1399.49 90.48L1399.49 182.52L1386.49 182.52L1386.49 140.4L1339.95 140.4L1339.95 182.52L1327.08 182.52L1327.08 90.48ZM1482.82 171.08L1434.72 171.08L1434.72 140.4L1478.14 140.4L1478.14 129.35L1434.72 129.35L1434.72 101.79L1480.87 101.79L1480.87 90.48L1421.85 90.48L1421.85 182.52L1482.82 182.52L1482.82 171.08ZM1499.98 90.48L1531.57 90.48Q1540.41 90.48 1549.25 93.08Q1558.09 95.68 1565.24 101.27Q1572.39 106.86 1576.81 115.57Q1581.23 124.28 1581.23 136.5Q1581.23 148.33 1576.81 156.975Q1572.39 165.62 1565.24 171.275Q1558.09 176.93 1549.25 179.725Q1540.41 182.52 1531.57 182.52L1499.98 182.52L1499.98 90.48ZM1635.44 155.61L1648.31 155.61L1648.31 90.48L1635.44 90.48L1635.44 155.61ZM1080.86 129.35L1097.63 129.35Q1101.27 129.35 1104.58 128.505Q1107.9 127.66 1110.37 125.905Q1112.84 124.15 1114.27 121.485Q1115.7 118.82 1115.7 115.05Q1115.7 107.64 1110.24 104.455Q1104.78 101.27 1095.55 101.27L1080.86 101.27L1080.86 129.35ZM452.83 130.78L467.65 130.78Q472.2 130.78 476.1 130Q480 129.22 482.925 127.465Q485.85 125.71 487.54 122.915Q489.23 120.12 489.23 115.96Q489.23 111.8 487.54 109.005Q485.85 106.21 483.055 104.52Q480.26 102.83 476.49 102.115Q472.72 101.4 468.56 101.4L452.83 101.4L452.83 130.78ZM910.95 131.17L924.6 131.17Q929.28 131.17 933.245 130.325Q937.21 129.48 940.07 127.725Q942.93 125.97 944.49 123.11Q946.05 120.25 946.05 116.09Q946.05 111.93 944.425 109.135Q942.8 106.34 940.005 104.585Q937.21 102.83 933.31 102.115Q929.41 101.4 924.86 101.4L910.95 101.4L910.95 131.17ZM1512.85 171.21L1528.97 171.21Q1537.29 171.21 1544.37 168.87Q1551.46 166.53 1556.59 162.11Q1561.73 157.69 1564.59 151.19Q1567.45 144.69 1567.45 136.5Q1567.45 127.92 1564.59 121.42Q1561.73 114.92 1556.59 110.565Q1551.46 106.21 1544.37 103.935Q1537.29 101.66 1528.97 101.66L1512.85 101.66L1512.85 171.21ZM365.08 148.59L399.53 148.59L382.37 105.43L365.08 148.59ZM1080.86 171.6L1096.98 171.6Q1101.01 171.6 1105.1 170.885Q1109.2 170.17 1112.51 168.35Q1115.83 166.53 1117.84 163.475Q1119.86 160.42 1119.86 155.74Q1119.86 147.55 1114.27 143.91Q1108.68 140.27 1098.15 140.27L1080.86 140.27L1080.86 171.6ZM1648.18 180.7Q1650.65 178.1 1650.65 174.72Q1650.65 171.21 1648.18 168.74Q1645.71 166.27 1641.94 166.27Q1638.17 166.27 1635.7 168.805Q1633.23 171.34 1633.23 174.85Q1633.23 178.23 1635.77 180.765Q1638.3 183.3 1641.94 183.3Q1645.71 183.3 1648.18 180.7Z" />
    </g>
    <g id="TECHTOREHAB" transform="translate(671 1581)">
      <g id="TECH">
        <path d="M177.288 89.248Q173.387 93.73 167.66 96.3445Q161.933 98.959 154.463 98.959Q147.657 98.959 141.888 96.718Q136.12 94.477 131.887 90.3685Q127.654 86.26 125.247 80.533Q122.84 74.806 122.84 67.917Q122.84 60.862 125.288 55.135Q127.737 49.408 132.053 45.3825Q136.369 41.357 142.179 39.199Q147.989 37.041 154.712 37.041Q160.937 37.041 166.954 39.2405Q172.972 41.44 176.707 45.673L167.079 55.301Q165.087 52.562 161.85 51.234Q158.613 49.906 155.21 49.906Q151.475 49.906 148.362 51.2755Q145.25 52.645 143.009 55.052Q140.768 57.459 139.523 60.7375Q138.278 64.016 138.278 67.917Q138.278 71.901 139.523 75.221Q140.768 78.541 142.967 80.9065Q145.167 83.272 148.238 84.6Q151.309 85.928 154.961 85.928Q159.194 85.928 162.348 84.268Q165.502 82.608 167.411 79.952L177.288 89.248ZM52.124 97.382L52.124 50.736L68.724 50.736L68.724 38.618L21.331 38.618L21.331 50.736L37.931 50.736L37.931 97.382L52.124 97.382ZM75.198 38.618L75.198 97.382L116.2 97.382L116.2 85.264L88.893 85.264L88.893 73.063L113.295 73.063L113.295 61.692L88.893 61.692L88.893 50.57L114.706 50.57L114.706 38.618L75.198 38.618ZM220.448 72.814L220.448 97.382L234.641 97.382L234.641 38.618L220.448 38.618L220.448 60.862L197.54 60.862L197.54 38.618L183.347 38.618L183.347 97.382L197.54 97.382L197.54 72.814L220.448 72.814Z" />
      </g>
      <g id="TO">
        <path d="M351.588 80.367Q353.912 74.723 353.912 68Q353.912 61.277 351.588 55.633Q349.264 49.989 345.156 45.8805Q341.047 41.772 335.445 39.448Q329.842 37.124 323.285 37.124Q316.728 37.124 311.126 39.448Q305.523 41.772 301.415 45.8805Q297.306 49.989 294.982 55.633Q292.658 61.277 292.658 68Q292.658 74.723 294.982 80.367Q297.306 86.011 301.415 90.1195Q305.523 94.228 311.126 96.552Q316.728 98.876 323.285 98.876Q329.842 98.876 335.445 96.552Q341.047 94.228 345.156 90.1195Q349.264 86.011 351.588 80.367ZM261.367 97.382L267.343 97.382L267.343 43.93L287.014 43.93L287.014 38.618L241.696 38.618L241.696 43.93L261.367 43.93L261.367 97.382ZM345.944 58.2631Q347.604 62.9033 347.604 68.0415Q347.604 73.1797 345.944 77.8199Q344.284 82.4602 341.13 85.9403Q337.976 89.4205 333.453 91.4922Q328.929 93.564 323.285 93.564Q317.641 93.564 313.118 91.4922Q308.594 89.4205 305.44 85.9403Q302.286 82.4602 300.626 77.8199Q298.966 73.1797 298.966 68.0415Q298.966 62.9033 300.626 58.2631Q302.286 53.6229 305.44 50.1012Q308.594 46.5795 313.118 44.5078Q317.641 42.436 323.285 42.436Q328.929 42.436 333.453 44.5078Q337.976 46.5795 341.13 50.1012Q344.284 53.6229 345.944 58.2631Z" />
      </g>
      <g id="REHAB">
        <path d="M396.076 97.382L383.317 74.059L378.48 74.059L378.48 97.382L364.619 97.382L364.619 38.618L387.029 38.618Q391.262 38.618 395.288 39.4895Q399.313 40.361 402.509 42.436Q405.704 44.511 407.613 47.914Q409.522 51.317 409.522 56.38Q409.522 62.356 406.285 66.423Q403.048 70.49 397.321 72.233L412.676 97.382L396.076 97.382ZM419.648 97.382L419.648 38.618L459.156 38.618L459.156 50.57L433.343 50.57L433.343 61.692L457.745 61.692L457.745 73.063L433.343 73.063L433.343 85.264L460.65 85.264L460.65 97.382L419.648 97.382ZM507.13 72.814L507.13 97.382L521.323 97.382L521.323 38.618L507.13 38.618L507.13 60.862L484.222 60.862L484.222 38.618L470.029 38.618L470.029 97.382L484.222 97.382L484.222 72.814L507.13 72.814ZM573.281 97.382L568.716 85.845L545.974 85.845L541.658 97.382L526.22 97.382L550.871 38.618L564.649 38.618L589.051 97.382L573.281 97.382ZM637.855 88.3765Q639.764 85.098 639.764 80.284Q639.764 77.379 638.81 75.055Q637.855 72.731 636.237 70.988Q634.618 69.245 632.419 68.1245Q630.219 67.004 627.729 66.589L627.729 66.423Q632.045 65.012 634.701 61.8165Q637.357 58.621 637.357 53.724Q637.357 49.242 635.531 46.337Q633.705 43.432 630.8 41.7305Q627.895 40.029 624.326 39.3235Q620.757 38.618 617.354 38.618L593.948 38.618L593.948 97.382L617.354 97.382Q621.587 97.382 625.613 96.5105Q629.638 95.639 632.792 93.647Q635.946 91.655 637.855 88.3765ZM621.38 51.2755Q623.662 52.645 623.662 55.633Q623.662 58.787 621.463 60.4055Q619.263 62.024 615.279 62.024L607.643 62.024L607.643 49.906L614.615 49.906Q619.097 49.906 621.38 51.2755ZM395.495 56.629Q395.495 54.554 394.619 53.2675Q393.743 51.981 392.367 51.2755Q390.991 50.57 389.281 50.321Q387.571 50.072 385.986 50.072L378.397 50.072L378.397 63.767L385.152 63.767Q386.905 63.767 388.74 63.4765Q390.575 63.186 392.076 62.439Q393.577 61.692 394.536 60.281Q395.495 58.87 395.495 56.629ZM557.511 54.305L550.041 74.474L564.815 74.474L557.511 54.305ZM622.832 73.893Q625.571 75.304 625.571 78.956Q625.571 81.114 624.658 82.4835Q623.745 83.853 622.293 84.6Q620.84 85.347 619.056 85.6375Q617.271 85.928 615.611 85.928L607.643 85.928L607.643 72.482L615.528 72.482Q620.093 72.482 622.832 73.893Z" />
      </g>
    </g>
    <g id="AWESOME-!" fill="#020202" transform="translate(671 842)">
      <path d="M399.761 67.221Q399.761 75.033 397.064 81.4965Q394.367 87.96 389.578 92.5635Q384.788 97.167 378.185 99.678Q371.582 102.189 363.863 102.189Q356.144 102.189 349.588 99.678Q343.031 97.167 338.242 92.5635Q333.452 87.96 330.755 81.4965Q328.058 75.033 328.058 67.221Q328.058 59.316 330.755 52.9455Q333.452 46.575 338.242 42.111Q343.031 37.647 349.588 35.229Q356.144 32.811 363.863 32.811Q371.582 32.811 378.185 35.229Q384.788 37.647 389.578 42.111Q394.367 46.575 397.064 52.9455Q399.761 59.316 399.761 67.221ZM305.599 47.5515Q308.9 49.086 310.946 51.69L321.083 40.995Q316.712 36.996 310.9 34.95Q305.087 32.904 299.507 32.904Q294.857 32.904 290.3 34.0665Q285.743 35.229 282.116 37.74Q278.489 40.251 276.257 44.157Q274.025 48.063 274.025 53.55Q274.025 58.014 275.466 61.1295Q276.908 64.245 279.28 66.4305Q281.651 68.616 284.673 70.011Q287.696 71.406 290.858 72.429Q294.113 73.452 296.671 74.3355Q299.228 75.219 300.948 76.2885Q302.669 77.358 303.599 78.66Q304.529 79.962 304.529 81.822Q304.529 83.775 303.785 85.17Q303.041 86.565 301.785 87.402Q300.53 88.239 298.856 88.611Q297.182 88.983 295.415 88.983Q291.509 88.983 287.556 86.9835Q283.604 84.984 281.186 82.008L270.77 92.61Q275.141 97.167 281.744 99.6315Q288.347 102.096 295.415 102.096Q300.251 102.096 304.808 100.794Q309.365 99.492 312.899 96.795Q316.433 94.098 318.526 89.9595Q320.618 85.821 320.618 80.148Q320.618 75.219 318.665 71.9175Q316.712 68.616 313.736 66.384Q310.76 64.152 307.133 62.8035Q303.506 61.455 300.158 60.339Q297.833 59.595 295.973 58.8975Q294.113 58.2 292.764 57.363Q291.416 56.526 290.719 55.41Q290.021 54.294 290.021 52.62Q290.021 50.667 290.905 49.4115Q291.788 48.156 293.09 47.3655Q294.392 46.575 296.02 46.296Q297.647 46.017 299.228 46.017Q302.297 46.017 305.599 47.5515ZM96.116 87.495L101.231 100.422L118.901 100.422L91.559 34.578L76.121 34.578L48.5 100.422L65.798 100.422L70.634 87.495L96.116 87.495ZM178.421 100.422L194.138 100.422L212.924 34.578L196.37 34.578L185.768 78.381L185.489 78.381L173.678 34.578L157.124 34.578L145.406 78.381L145.127 78.381L134.711 34.578L117.599 34.578L136.292 100.422L152.102 100.422L165.122 55.875L165.401 55.875L178.421 100.422ZM219.713 100.422L219.713 34.578L263.981 34.578L263.981 47.97L235.058 47.97L235.058 60.432L262.4 60.432L262.4 73.173L235.058 73.173L235.058 86.844L265.655 86.844L265.655 100.422L219.713 100.422ZM470.348 53.829L469.976 100.422L485.6 100.422L485.6 34.578L462.6 34.578L448.261 76.8L447.889 76.8L432.897 34.578L410.27 34.578L410.27 100.422L425.243 100.422L424.871 53.829L425.15 53.829L441.797 100.422L452.957 100.422L470.069 53.829L470.348 53.829ZM499.085 100.422L499.085 34.578L543.353 34.578L543.353 47.97L514.43 47.97L514.43 60.432L541.772 60.432L541.772 73.173L514.43 73.173L514.43 86.844L545.027 86.844L545.027 100.422L499.085 100.422ZM580.739 34.578L580.739 78.381L596.27 78.381L596.27 34.578L580.739 34.578ZM382.742 67.221Q382.742 62.943 381.347 59.223Q379.952 55.503 377.488 52.8525Q375.023 50.202 371.536 48.6675Q368.048 47.133 363.863 47.133Q359.678 47.133 356.237 48.6675Q352.796 50.202 350.285 52.8525Q347.774 55.503 346.426 59.223Q345.077 62.943 345.077 67.221Q345.077 71.685 346.472 75.4515Q347.867 79.218 350.332 81.915Q352.796 84.612 356.237 86.1465Q359.678 87.681 363.863 87.681Q368.048 87.681 371.489 86.1465Q374.93 84.612 377.441 81.915Q379.952 79.218 381.347 75.4515Q382.742 71.685 382.742 67.221ZM75.191 74.754L83.561 52.155L91.745 74.754L75.191 74.754ZM596.968 96.0045Q597.665 94.377 597.665 92.517Q597.665 90.75 596.968 89.1225Q596.27 87.495 595.015 86.3325Q593.759 85.17 592.085 84.4725Q590.411 83.775 588.551 83.775Q586.691 83.775 585.017 84.4725Q583.343 85.17 582.134 86.379Q580.925 87.588 580.228 89.2155Q579.53 90.843 579.53 92.61Q579.53 94.47 580.274 96.051Q581.018 97.632 582.227 98.841Q583.436 100.05 585.064 100.701Q586.691 101.352 588.551 101.352Q590.411 101.352 592.085 100.654Q593.759 99.957 595.015 98.7945Q596.27 97.632 596.968 96.0045Z" />
    </g>
    <g id="KEEP-IT-COMIN-!" fill="#020202" transform="translate(447 1314)">
      <path d="M606.464 91.308Q602.092 96.33 595.675 99.2595Q589.258 102.189 580.888 102.189Q573.262 102.189 566.799 99.678Q560.335 97.167 555.592 92.5635Q550.849 87.96 548.152 81.543Q545.455 75.126 545.455 67.407Q545.455 59.502 548.199 53.085Q550.943 46.668 555.779 42.1575Q560.615 37.647 567.124 35.229Q573.634 32.811 581.167 32.811Q588.142 32.811 594.885 35.2755Q601.628 37.74 605.813 42.483L595.024 53.271Q592.792 50.202 589.165 48.714Q585.538 47.226 581.725 47.226Q577.54 47.226 574.053 48.7605Q570.565 50.295 568.055 52.992Q565.543 55.689 564.148 59.3625Q562.753 63.036 562.753 67.407Q562.753 71.871 564.148 75.591Q565.543 79.311 568.008 81.9615Q570.472 84.612 573.913 86.1Q577.354 87.588 581.446 87.588Q586.189 87.588 589.723 85.728Q593.257 83.868 595.396 80.892L606.464 91.308ZM679.19 81.4965Q681.886 75.033 681.886 67.221Q681.886 59.316 679.19 52.9455Q676.492 46.575 671.703 42.111Q666.914 37.647 660.31 35.229Q653.708 32.811 645.989 32.811Q638.269 32.811 631.713 35.229Q625.156 37.647 620.367 42.111Q615.578 46.575 612.88 52.9455Q610.183 59.316 610.183 67.221Q610.183 75.033 612.88 81.4965Q615.578 87.96 620.367 92.5635Q625.156 97.167 631.713 99.678Q638.27 102.189 645.989 102.189Q653.708 102.189 660.31 99.678Q666.914 97.167 671.703 92.5635Q676.492 87.96 679.19 81.4965ZM195.589 70.104L220.048 100.422L240.788 100.422L210.749 64.896L239.113 34.578L219.212 34.578L195.682 61.362L195.404 61.362L195.404 34.578L179.872 34.578L179.872 100.422L195.404 100.422L195.404 70.104L195.589 70.104ZM245.995 34.578L245.995 100.422L291.938 100.422L291.938 86.844L261.34 86.844L261.34 73.173L288.682 73.173L288.682 60.432L261.34 60.432L261.34 47.97L290.263 47.97L290.263 34.578L245.995 34.578ZM302.447 100.422L302.447 34.578L346.715 34.578L346.715 47.97L317.792 47.97L317.792 60.432L345.134 60.432L345.134 73.173L317.792 73.173L317.792 86.844L348.388 86.844L348.388 100.422L302.447 100.422ZM406.7 64.5705Q408.839 60.618 408.839 54.852Q408.839 49.179 406.839 45.3195Q404.84 41.46 401.352 39.0885Q397.865 36.717 393.168 35.6475Q388.472 34.578 383.078 34.578L358.898 34.578L358.898 100.422L374.801 100.422L374.801 75.591L382.706 75.591Q387.821 75.591 392.564 74.475Q397.307 73.359 400.934 70.941Q404.561 68.523 406.7 64.5705ZM441.668 100.422L441.668 34.578L457.664 34.578L457.664 100.422L441.668 100.422ZM499.421 100.422L499.421 48.156L518.021 48.156L518.021 34.578L464.918 34.578L464.918 48.156L483.518 48.156L483.518 100.422L499.421 100.422ZM752.102 100.422L752.474 53.829L752.195 53.829L735.083 100.422L723.922 100.422L707.276 53.829L706.997 53.829L707.369 100.422L692.396 100.422L692.396 34.578L715.022 34.578L730.014 76.8L730.386 76.8L744.725 34.578L767.726 34.578L767.726 100.422L752.102 100.422ZM781.211 34.578L781.211 100.422L797.206 100.422L797.206 34.578L781.211 34.578ZM852.634 100.422L826.129 57.363L825.85 57.363L826.222 100.422L810.784 100.422L810.784 34.578L828.919 34.578L855.331 77.544L855.61 77.544L855.238 34.578L870.677 34.578L870.677 100.422L852.634 100.422ZM909.457 34.578L909.457 78.381L924.988 78.381L924.988 34.578L909.457 34.578ZM663.473 59.223Q664.867 62.943 664.867 67.221Q664.867 71.685 663.473 75.4515Q662.078 79.218 659.567 81.915Q657.055 84.612 653.615 86.1465Q650.174 87.681 645.989 87.681Q641.804 87.681 638.362 86.1465Q634.922 84.612 632.457 81.915Q629.992 79.218 628.597 75.4515Q627.203 71.685 627.203 67.221Q627.203 62.943 628.551 59.223Q629.899 55.503 632.411 52.8525Q634.922 50.202 638.362 48.6675Q641.804 47.133 645.989 47.133Q650.174 47.133 653.661 48.6675Q657.148 50.202 659.613 52.8525Q662.078 55.503 663.473 59.223ZM392.006 51.132Q392.936 52.62 392.936 54.945Q392.936 57.27 392.006 58.8045Q391.076 60.339 389.448 61.269Q387.821 62.199 385.775 62.571Q383.729 62.943 381.497 62.943L374.801 62.943L374.801 47.412L381.776 47.412Q383.915 47.412 385.914 47.691Q387.914 47.97 389.495 48.807Q391.076 49.644 392.006 51.132ZM925.686 96.0045Q926.383 94.377 926.383 92.517Q926.383 90.75 925.686 89.1225Q924.988 87.495 923.733 86.3325Q922.477 85.17 920.803 84.4725Q919.129 83.775 917.269 83.775Q915.409 83.775 913.735 84.4725Q912.061 85.17 910.852 86.379Q909.643 87.588 908.946 89.2155Q908.248 90.843 908.248 92.61Q908.248 94.47 908.992 96.051Q909.736 97.632 910.945 98.841Q912.154 100.05 913.782 100.701Q915.409 101.352 917.269 101.352Q919.129 101.352 920.803 100.654Q922.477 99.957 923.733 98.7945Q924.988 97.632 925.686 96.0045Z" />
    </g>
    <g id="ON" fill="#020202" transform="translate(918 1452)">
      <path d="M79.959 77.433Q81.873 72.846 81.873 67.302Q81.873 61.692 79.959 57.171Q78.045 52.65 74.646 49.482Q71.247 46.314 66.561 44.598Q61.875 42.882 56.397 42.882Q50.919 42.882 46.266 44.598Q41.613 46.314 38.214 49.482Q34.815 52.65 32.901 57.171Q30.987 61.692 30.987 67.302Q30.987 72.846 32.901 77.433Q34.815 82.02 38.214 85.287Q41.613 88.554 46.266 90.336Q50.919 92.118 56.397 92.118Q61.875 92.118 66.561 90.336Q71.247 88.554 74.646 85.287Q78.045 82.02 79.959 77.433ZM100.221 60.306L119.031 90.864L131.835 90.864L131.835 44.136L120.879 44.136L121.143 74.628L120.945 74.628L102.201 44.136L89.331 44.136L89.331 90.864L100.287 90.864L100.023 60.306L100.221 60.306ZM68.805 61.626Q69.795 64.266 69.795 67.302Q69.795 70.47 68.805 73.143Q67.815 75.816 66.033 77.73Q64.251 79.644 61.809 80.733Q59.367 81.822 56.397 81.822Q53.427 81.822 50.985 80.733Q48.543 79.644 46.794 77.73Q45.045 75.816 44.055 73.143Q43.065 70.47 43.065 67.302Q43.065 64.266 44.022 61.626Q44.979 58.986 46.761 57.105Q48.543 55.224 50.985 54.135Q53.427 53.046 56.397 53.046Q59.367 53.046 61.842 54.135Q64.317 55.224 66.066 57.105Q67.815 58.986 68.805 61.626Z" />
    </g>
    <path d="M0 1L1305 1" transform="translate(351 1201)" id="Line" fill="none" stroke="#1890FF" stroke-width="7" />
    <g id="title" transform="matrix(-1 0 0 1 1247 284)">
      <path d="M0 0L493 0L493 493L0 493L0 0Z" id="Background" fill="#39FF81" stroke="none" />
      <g clip-path="url(#mask_1)">
        <g id="Group" transform="translate(61.625 184.875)">
          <path d="M190.01 61.625C181.506 61.625 174.604 54.723 174.604 46.2188L174.604 30.8125L30.8125 30.8125L30.8125 46.2188C30.8125 54.723 23.9105 61.625 15.4063 61.625C6.902 61.625 0 54.723 0 46.2188L0 15.4063C0 6.90201 6.902 0 15.4063 0L190.01 0C198.515 0 205.417 6.90201 205.417 15.4063L205.417 46.2188C205.417 54.723 198.515 61.625 190.01 61.625L190.01 61.625Z" id="Shape" fill="#000000" stroke="none" />
        </g>
        <g id="Group" transform="translate(148.9271 190.0104)">
          <path d="M15.4063 195.146C6.902 195.146 0 188.244 0 179.74L0 15.4062C0 6.90201 6.902 0 15.4063 0C23.9105 0 30.8125 6.90201 30.8125 15.4062L30.8125 179.74C30.8125 188.244 23.9105 195.146 15.4063 195.146L15.4063 195.146Z" id="Shape" fill="#000000" stroke="none" />
        </g>
        <g id="Group" transform="translate(123.25 359.4792)">
          <path d="M66.7604 30.8125L15.4062 30.8125C6.902 30.8125 0 23.9105 0 15.4062C0 6.902 6.902 0 15.4062 0L66.7604 0C75.2646 0 82.1667 6.902 82.1667 15.4062C82.1667 23.9105 75.2646 30.8125 66.7604 30.8125L66.7604 30.8125Z" id="Shape" fill="#000000" stroke="none" />
        </g>
        <g id="Group" transform="translate(308.125 184.875)">
          <path d="M107.844 30.8125L15.4063 30.8125C6.90201 30.8125 0 23.9105 0 15.4063C0 6.90201 6.90201 0 15.4063 0L107.844 0C116.348 0 123.25 6.90201 123.25 15.4063C123.25 23.9105 116.348 30.8125 107.844 30.8125L107.844 30.8125Z" id="Shape" fill="#000000" stroke="none" />
        </g>
        <g id="Group" transform="translate(308.125 267.0417)">
          <path d="M107.844 30.8125L15.4063 30.8125C6.90201 30.8125 0 23.9105 0 15.4063C0 6.90201 6.90201 0 15.4063 0L107.844 0C116.348 0 123.25 6.90201 123.25 15.4063C123.25 23.9105 116.348 30.8125 107.844 30.8125L107.844 30.8125Z" id="Shape" fill="#000000" stroke="none" />
        </g>
        <g id="Group" transform="translate(308.125 349.2083)">
          <path d="M107.844 30.8125L15.4063 30.8125C6.90201 30.8125 0 23.9105 0 15.4063C0 6.90201 6.90201 0 15.4063 0L107.844 0C116.348 0 123.25 6.90201 123.25 15.4063C123.25 23.9105 116.348 30.8125 107.844 30.8125L107.844 30.8125Z" id="Shape" fill="#000000" stroke="none" />
        </g>
        <g id="Group" transform="translate(0 20.54169)">
          <path d="M56.4896 451.917L436.51 451.917C467.672 451.917 493 426.589 493 395.427L493 56.4896C493 25.3279 467.672 0 436.51 0L56.4896 0C25.3279 0 0 25.3279 0 56.4896L0 395.427C0 426.589 25.3279 451.917 56.4896 451.917ZM30.8125 56.4896C30.8125 42.3363 42.3364 30.8125 56.4896 30.8125L436.51 30.8125C450.664 30.8125 462.188 42.3363 462.188 56.4896L462.188 395.427C462.188 409.58 450.664 421.104 436.51 421.104L56.4896 421.104C42.3364 421.104 30.8125 409.58 30.8125 395.427L30.8125 56.4896Z" id="Shape" fill="#000000" fill-rule="evenodd" stroke="none" />
        </g>
        <g id="Group" transform="translate(0 92.4375)">
          <path d="M477.594 30.8125L15.4063 30.8125C6.902 30.8125 0 23.9105 0 15.4063C0 6.902 6.902 0 15.4063 0L477.594 0C486.098 0 493 6.902 493 15.4063C493 23.9105 486.098 30.8125 477.594 30.8125L477.594 30.8125Z" id="Shape" fill="#000000" stroke="none" />
        </g>
      </g>
    </g>
  </g>
</svg>