<?xml version="1.0" encoding="utf-8"?>
<svg width="1920px" height="1080px" viewBox="0 0 1920 1080" version="1.1" xmlns:xlink="http://www.w3.org/1999/xlink" xmlns="http://www.w3.org/2000/svg">
  <desc>Created with Lunacy</desc>
  <defs>
    <rect width="1920" height="1080" id="artboard_1" />
    <clipPath id="clip_1">
      <use xlink:href="#artboard_1" clip-rule="evenodd" />
    </clipPath>
  </defs>
  <g id="Full-HD" clip-path="url(#clip_1)">
    <use xlink:href="#artboard_1" stroke="none" fill="#000000" fill-opacity="0.921568632" />
    <g id="SEARCH" fill="#1890FF" transform="translate(118 309)">
      <path d="M106.794 34.846Q109.53 36.328 111.278 38.76L115.61 35.264Q113.634 32.604 109.758 30.666Q105.882 28.728 100.41 28.728Q97.446 28.728 94.406 29.564Q91.366 30.4 88.858 32.224Q86.35 34.048 84.792 36.86Q83.234 39.672 83.234 43.548Q83.234 47.196 84.488 49.704Q85.742 52.212 87.794 53.922Q89.846 55.632 92.43 56.696Q95.014 57.76 97.674 58.596Q100.258 59.432 102.614 60.268Q104.97 61.104 106.794 62.358Q108.618 63.612 109.72 65.474Q110.822 67.336 110.822 70.148Q110.822 72.732 109.72 74.67Q108.618 76.608 106.908 77.938Q105.198 79.268 103.07 79.914Q100.942 80.56 98.89 80.56Q94.634 80.56 91.48 78.622Q88.326 76.684 86.578 73.796L81.866 77.292Q83.31 79.268 85.21 80.788Q87.11 82.308 89.314 83.296Q91.518 84.284 93.95 84.778Q96.382 85.272 98.814 85.272Q102.006 85.272 105.16 84.36Q108.314 83.448 110.767 81.548Q113.221 79.648 114.757 76.722Q116.294 73.796 116.294 69.768Q116.294 65.74 114.854 63.118Q113.414 60.496 111.14 58.786Q108.866 57.076 106.024 56.012Q103.182 54.948 100.378 54.036Q98.1039 53.276 96.0198 52.516Q93.9357 51.756 92.3059 50.578Q90.6761 49.4 89.691 47.728Q88.706 46.056 88.706 43.472Q88.706 40.888 89.732 38.988Q90.758 37.088 92.43 35.834Q94.102 34.58 96.154 33.972Q98.206 33.364 100.182 33.364Q104.058 33.364 106.794 34.846ZM317.086 75.164Q315.718 77.216 313.78 79.0436Q311.842 80.8711 309.296 82.2611Q306.75 83.6511 303.672 84.4615Q300.594 85.272 296.946 85.272Q290.866 85.272 285.698 83.144Q280.53 81.016 276.806 77.254Q273.082 73.492 270.992 68.324Q268.902 63.156 268.902 57Q268.902 50.844 271.03 45.676Q273.158 40.508 276.92 36.746Q280.682 32.984 285.812 30.856Q290.942 28.728 296.946 28.728Q299.91 28.728 302.76 29.3455Q305.61 29.963 308.118 31.0828Q310.626 32.2026 312.678 33.7713Q314.73 35.34 316.098 37.316L311.538 40.66Q310.702 39.368 309.296 38.076Q307.89 36.784 305.99 35.796Q304.09 34.808 301.848 34.2Q299.606 33.592 297.022 33.592Q291.778 33.592 287.636 35.4861Q283.494 37.3801 280.606 40.5994Q277.718 43.8187 276.198 48.0611Q274.678 52.3034 274.678 57Q274.678 61.6966 276.236 65.9389Q277.794 70.1813 280.682 73.4006Q283.57 76.6199 287.712 78.5139Q291.854 80.408 297.022 80.408Q301.658 80.408 305.838 78.508Q310.018 76.608 312.83 72.428L317.086 75.164ZM162.35 79.04L133.546 79.04L133.546 58.292L159.614 58.292L159.614 53.428L133.546 53.428L133.546 34.96L161.438 34.96L161.438 30.096L128.074 30.096L128.074 83.904L162.35 83.904L162.35 79.04ZM172.686 83.904L166.682 83.904L189.938 30.096L195.258 30.096L218.362 83.904L212.282 83.904L206.354 69.768L178.538 69.768L172.686 83.904ZM226.266 83.904L231.738 83.904L231.738 58.748L240.858 58.748L255.754 83.904L262.442 83.904L246.71 58.292Q249.674 57.988 252.182 56.924Q254.69 55.86 256.514 54.074Q258.338 52.288 259.402 49.856Q260.466 47.424 260.466 44.46Q260.466 40.508 259.098 37.772Q257.73 35.036 255.26 33.326Q252.79 31.616 249.408 30.856Q246.026 30.096 242.074 30.096L226.266 30.096L226.266 83.904ZM331.982 30.096L326.51 30.096L326.51 83.904L331.982 83.904L331.982 58.444L361.318 58.444L361.318 83.904L366.79 83.904L366.79 30.096L361.318 30.096L361.318 53.428L331.982 53.428L331.982 30.096ZM241.238 54.036L231.738 54.036L231.738 34.808L241.466 34.808Q244.506 34.808 247.014 35.34Q249.522 35.872 251.27 37.012Q253.018 38.152 254.006 39.976Q254.994 41.8 254.994 44.46Q254.994 49.248 251.422 51.642Q247.85 54.036 241.238 54.036ZM204.302 64.752L192.446 36.176L180.59 64.752L204.302 64.752Z" />
    </g>
    <g id="TECHTOREHAB" transform="translate(0 342)">
      <g id="TECH" fill="#FFFFFF">
        <path d="M588 244.2Q578.6 255 564.8 261.3Q551 267.6 533 267.6Q516.6 267.6 502.7 262.2Q488.8 256.8 478.6 246.9Q468.4 237 462.6 223.2Q456.8 209.4 456.8 192.8Q456.8 175.8 462.7 162Q468.6 148.2 479 138.5Q489.4 128.8 503.4 123.6Q517.4 118.4 533.6 118.4Q548.6 118.4 563.1 123.7Q577.6 129 586.6 139.2L563.4 162.4Q558.6 155.8 550.8 152.6Q543 149.4 534.8 149.4Q525.8 149.4 518.3 152.7Q510.8 156 505.4 161.8Q500 167.6 497 175.5Q494 183.4 494 192.8Q494 202.4 497 210.4Q500 218.4 505.3 224.1Q510.6 229.8 518 233Q525.4 236.2 534.2 236.2Q544.4 236.2 552 232.2Q559.6 228.2 564.2 221.8L588 244.2ZM286.4 263.8L286.4 151.4L326.4 151.4L326.4 122.2L212.2 122.2L212.2 151.4L252.2 151.4L252.2 263.8L286.4 263.8ZM342 122.2L342 263.8L440.8 263.8L440.8 234.6L375 234.6L375 205.2L433.8 205.2L433.8 177.8L375 177.8L375 151L437.2 151L437.2 122.2L342 122.2ZM692 204.6L692 263.8L726.2 263.8L726.2 122.2L692 122.2L692 175.8L636.8 175.8L636.8 122.2L602.6 122.2L602.6 263.8L636.8 263.8L636.8 204.6L692 204.6Z" />
      </g>
      <g id="TO" fill="#FFFFFF">
        <path d="M1003.3 223.1Q1008.8 209.4 1008.8 193Q1008.8 176.6 1003.3 162.9Q997.8 149.2 988.1 139.3Q978.4 129.4 965.1 123.8Q951.8 118.2 936 118.2Q920.2 118.2 906.9 123.8Q893.6 129.4 883.9 139.3Q874.2 149.2 868.7 162.9Q863.2 176.6 863.2 193Q863.2 209.4 868.7 223.1Q874.2 236.8 883.9 246.7Q893.6 256.6 907 262.2Q920.4 267.8 936 267.8Q951.6 267.8 965 262.2Q978.4 256.6 988.1 246.7Q997.8 236.8 1003.3 223.1ZM797 263.8L797 126.2L845.2 126.2L845.2 122.2L744.4 122.2L744.4 126.2L792.6 126.2L792.6 263.8L797 263.8ZM999.4 165.3Q1004.4 178.2 1004.4 193Q1004.4 207.8 999.5 220.7Q994.6 233.6 985.6 243.2Q976.6 252.8 964 258.3Q951.4 263.8 936 263.8Q920.6 263.8 908 258.3Q895.4 252.8 886.4 243.2Q877.4 233.6 872.5 220.7Q867.6 207.8 867.6 193Q867.6 178.2 872.6 165.3Q877.6 152.4 886.7 142.8Q895.8 133.2 908.4 127.7Q921 122.2 936 122.2Q951 122.2 963.6 127.7Q976.2 133.2 985.3 142.8Q994.4 152.4 999.4 165.3Z" />
      </g>
      <g id="REHAB" fill="#FFFFFF">
        <path d="M1113.6 263.8L1082.86 207.6L1071.2 207.6L1071.2 263.8L1037.8 263.8L1037.8 122.2L1091.8 122.2Q1102 122.2 1111.7 124.3Q1121.4 126.4 1129.1 131.4Q1136.8 136.4 1141.4 144.6Q1146 152.8 1146 165Q1146 179.4 1138.2 189.2Q1130.4 199 1116.6 203.2L1153.6 263.8L1113.6 263.8ZM1170.4 263.8L1170.4 122.2L1265.6 122.2L1265.6 151L1203.4 151L1203.4 177.8L1262.2 177.8L1262.2 205.2L1203.4 205.2L1203.4 234.6L1269.2 234.6L1269.2 263.8L1170.4 263.8ZM1381.2 204.6L1381.2 263.8L1415.4 263.8L1415.4 122.2L1381.2 122.2L1381.2 175.8L1326 175.8L1326 122.2L1291.8 122.2L1291.8 263.8L1326 263.8L1326 204.6L1381.2 204.6ZM1540.6 263.8L1529.6 236L1474.8 236L1464.4 263.8L1427.2 263.8L1486.6 122.2L1519.8 122.2L1578.6 263.8L1540.6 263.8ZM1696.2 242.1Q1700.8 234.2 1700.8 222.6Q1700.8 215.6 1698.5 210Q1696.2 204.4 1692.3 200.2Q1688.4 196 1683.1 193.3Q1677.8 190.6 1671.8 189.6L1671.8 189.2Q1682.2 185.8 1688.6 178.1Q1695 170.4 1695 158.6Q1695 147.8 1690.6 140.8Q1686.2 133.8 1679.2 129.7Q1672.2 125.6 1663.6 123.9Q1655 122.2 1646.8 122.2L1590.4 122.2L1590.4 263.8L1646.8 263.8Q1657 263.8 1666.7 261.7Q1676.4 259.6 1684 254.8Q1691.6 250 1696.2 242.1ZM1656.5 152.7Q1662 156 1662 163.2Q1662 170.8 1656.7 174.7Q1651.4 178.6 1641.8 178.6L1623.4 178.6L1623.4 149.4L1640.2 149.4Q1651 149.4 1656.5 152.7ZM1112.2 165.6Q1112.2 160.6 1110.09 157.5Q1107.98 154.4 1104.66 152.7Q1101.35 151 1097.23 150.4Q1093.11 149.8 1089.29 149.8L1071 149.8L1071 182.8L1087.28 182.8Q1091.5 182.8 1095.92 182.1Q1100.34 181.4 1103.96 179.6Q1107.58 177.8 1109.89 174.4Q1112.2 171 1112.2 165.6ZM1502.6 160L1484.6 208.6L1520.2 208.6L1502.6 160ZM1660 207.2Q1666.6 210.6 1666.6 219.4Q1666.6 224.6 1664.4 227.9Q1662.2 231.2 1658.7 233Q1655.2 234.8 1650.9 235.5Q1646.6 236.2 1642.6 236.2L1623.4 236.2L1623.4 203.8L1642.4 203.8Q1653.4 203.8 1660 207.2Z" />
      </g>
    </g>
    <path d="M0 4L1506 0" transform="translate(218 640)" id="Line" fill="none" stroke="#39FF81" stroke-width="3" />
  </g>
</svg>