<?xml version="1.0" encoding="utf-8"?>
<svg width="1280px" height="243px" viewBox="0 0 1280 243" version="1.1" xmlns:xlink="http://www.w3.org/1999/xlink" xmlns="http://www.w3.org/2000/svg">
  <desc>Created with Lunacy</desc>
  <defs>
    <rect width="1280" height="243" id="artboard_1" />
    <clipPath id="clip_1">
      <use xlink:href="#artboard_1" clip-rule="evenodd" />
    </clipPath>
  </defs>
  <g id="HD" clip-path="url(#clip_1)">
    <use xlink:href="#artboard_1" stroke="none" fill="#FFFFFF" />
    <path d="M109 0L218 534L0 534L109 0Z" transform="matrix(1.117417E-08 1 -1 1.117417E-08 985.9999 10.00002)" id="Triangle" fill="#39FF81" stroke="none" />
    <g id="TECHTOREHAB" transform="translate(0 -1.525879E-05)">
      <g id="TECH">
        <path d="M328.712 164.252Q320.863 173.27 309.34 178.531Q297.817 183.791 282.787 183.791Q269.093 183.791 257.486 179.282Q245.88 174.773 237.363 166.507Q228.846 158.24 224.003 146.717Q219.16 135.194 219.16 121.333Q219.16 107.138 224.086 95.615Q229.013 84.092 237.697 75.9925Q246.381 67.893 258.071 63.551Q269.761 59.209 283.288 59.209Q295.813 59.209 307.92 63.6345Q320.028 68.06 327.543 76.577L308.171 95.949Q304.163 90.438 297.65 87.766Q291.137 85.094 284.29 85.094Q276.775 85.094 270.512 87.8495Q264.25 90.605 259.741 95.448Q255.232 100.291 252.727 106.888Q250.222 113.484 250.222 121.333Q250.222 129.349 252.727 136.029Q255.232 142.709 259.657 147.469Q264.083 152.228 270.262 154.9Q276.441 157.572 283.789 157.572Q292.306 157.572 298.652 154.232Q304.998 150.892 308.839 145.548L328.712 164.252ZM76.876 180.618L76.876 86.764L110.276 86.764L110.276 62.382L14.919 62.382L14.919 86.764L48.319 86.764L48.319 180.618L76.876 180.618ZM123.302 62.382L123.302 180.618L205.8 180.618L205.8 156.236L150.857 156.236L150.857 131.687L199.955 131.687L199.955 108.808L150.857 108.808L150.857 86.43L202.794 86.43L202.794 62.382L123.302 62.382ZM415.552 131.186L415.552 180.618L444.109 180.618L444.109 62.382L415.552 62.382L415.552 107.138L369.46 107.138L369.46 62.382L340.903 62.382L340.903 180.618L369.46 180.618L369.46 131.186L415.552 131.186Z" />
      </g>
      <g id="TO">
        <path d="M679.412 146.383Q684.088 135.027 684.088 121.5Q684.088 107.973 679.412 96.617Q674.736 85.261 666.469 76.9945Q658.203 68.728 646.93 64.052Q635.658 59.376 622.465 59.376Q609.272 59.376 598 64.052Q586.727 68.728 578.461 76.9945Q570.194 85.261 565.518 96.617Q560.842 107.973 560.842 121.5Q560.842 135.027 565.518 146.383Q570.194 157.739 578.461 166.006Q586.727 174.272 598 178.948Q609.272 183.624 622.465 183.624Q635.658 183.624 646.93 178.948Q658.203 174.272 666.469 166.006Q674.736 157.739 679.412 146.383ZM497.883 180.618L509.907 180.618L509.907 73.07L549.486 73.07L549.486 62.382L458.304 62.382L458.304 73.07L497.883 73.07L497.883 180.618ZM668.056 101.909Q671.396 111.245 671.396 121.584Q671.396 131.922 668.056 141.258Q664.716 150.595 658.37 157.597Q652.024 164.599 642.922 168.768Q633.821 172.936 622.465 172.936Q611.109 172.936 602.008 168.768Q592.906 164.599 586.56 157.597Q580.214 150.595 576.874 141.258Q573.534 131.922 573.534 121.584Q573.534 111.245 576.874 101.909Q580.214 92.5725 586.56 85.4867Q592.906 78.401 602.008 74.2325Q611.109 70.064 622.465 70.064Q633.821 70.064 642.922 74.2325Q652.024 78.401 658.37 85.4867Q664.716 92.5725 668.056 101.909Z" />
      </g>
      <g id="REHAB">
        <path d="M768.924 180.618L743.253 133.691L733.52 133.691L733.52 180.618L705.631 180.618L705.631 62.382L750.721 62.382Q759.238 62.382 767.338 64.1355Q775.437 65.889 781.867 70.064Q788.296 74.239 792.137 81.086Q795.978 87.933 795.978 98.12Q795.978 110.144 789.465 118.327Q782.952 126.51 771.429 130.017L802.324 180.618L768.924 180.618ZM816.352 180.618L816.352 62.382L895.844 62.382L895.844 86.43L843.907 86.43L843.907 108.808L893.005 108.808L893.005 131.687L843.907 131.687L843.907 156.236L898.85 156.236L898.85 180.618L816.352 180.618ZM992.37 131.186L992.37 180.618L1020.93 180.618L1020.93 62.382L992.37 62.382L992.37 107.138L946.278 107.138L946.278 62.382L917.721 62.382L917.721 180.618L946.278 180.618L946.278 131.186L992.37 131.186ZM1125.47 180.618L1116.28 157.405L1070.53 157.405L1061.84 180.618L1030.78 180.618L1080.38 62.382L1108.1 62.382L1157.2 180.618L1125.47 180.618ZM1255.4 162.499Q1259.24 155.902 1259.24 146.216Q1259.24 140.371 1257.32 135.695Q1255.4 131.019 1252.14 127.512Q1248.88 124.005 1244.46 121.751Q1240.03 119.496 1235.02 118.661L1235.02 118.327Q1243.71 115.488 1249.05 109.059Q1254.39 102.629 1254.39 92.776Q1254.39 83.758 1250.72 77.913Q1247.05 72.068 1241.2 68.6445Q1235.36 65.221 1228.17 63.8015Q1220.99 62.382 1214.15 62.382L1167.05 62.382L1167.05 180.618L1214.15 180.618Q1222.66 180.618 1230.76 178.865Q1238.86 177.111 1245.21 173.103Q1251.55 169.095 1255.4 162.499ZM1222.25 87.8495Q1226.84 90.605 1226.84 96.617Q1226.84 102.963 1222.41 106.22Q1217.99 109.476 1209.97 109.476L1194.61 109.476L1194.61 85.094L1208.64 85.094Q1217.65 85.094 1222.25 87.8495ZM767.755 98.621Q767.755 94.446 765.992 91.8575Q764.23 89.269 761.461 87.8495Q758.693 86.43 755.252 85.929Q751.812 85.428 748.623 85.428L733.353 85.428L733.353 112.983L746.945 112.983Q750.471 112.983 754.163 112.399Q757.855 111.814 760.875 110.311Q763.896 108.808 765.825 105.969Q767.755 103.13 767.755 98.621ZM1093.74 93.945L1078.71 134.526L1108.44 134.526L1093.74 93.945ZM1225.17 133.357Q1230.68 136.196 1230.68 143.544Q1230.68 147.886 1228.84 150.642Q1227.01 153.397 1224.08 154.9Q1221.16 156.403 1217.57 156.988Q1213.98 157.572 1210.64 157.572L1194.61 157.572L1194.61 130.518L1210.47 130.518Q1219.66 130.518 1225.17 133.357Z" />
      </g>
    </g>
  </g>
</svg>