<?xml version="1.0" encoding="utf-8"?>
<svg width="800px" height="800px" viewBox="0 0 800 800" version="1.1" xmlns:xlink="http://www.w3.org/1999/xlink" xmlns="http://www.w3.org/2000/svg">
  <desc>Created with Lunacy</desc>
  <defs>
    <rect width="800" height="800" id="artboard_1" />
    <clipPath id="clip_1">
      <use xlink:href="#artboard_1" clip-rule="evenodd" />
    </clipPath>
  </defs>
  <g id="Dribbble-Shot-HD" clip-path="url(#clip_1)">
    <use xlink:href="#artboard_1" stroke="none" fill="#FFFFFF" fill-opacity="0" />
    <g id="{" fill="#FFFFFF" transform="translate(54 -49)">
      <path d="M166.934 723.215Q74.5937 722.012 74.5938 629.973L74.5938 539.738Q74.5938 478.98 27.6719 475.973L27.6719 441.082Q74.5938 438.074 74.5938 376.113L74.5938 288.285Q74.5938 195.043 166.934 193.84L166.934 232.34Q119.109 233.543 119.109 291.895L119.109 380.023Q119.109 443.188 73.9922 457.625L73.9922 458.828Q119.109 472.363 119.109 535.828L119.109 622.754Q119.109 656.141 129.787 670.428Q140.465 684.715 166.934 685.316L166.934 723.215Z" />
    </g>
    <g id="{" fill="#FFFFFF" transform="matrix(-0.9998477 0.01745239 -0.01745239 -0.9998477 754.4934 858.0758)">
      <path d="M166.934 723.215Q74.5937 722.012 74.5938 629.973L74.5938 539.738Q74.5938 478.98 27.6719 475.973L27.6719 441.082Q74.5938 438.074 74.5938 376.113L74.5938 288.285Q74.5938 195.043 166.934 193.84L166.934 232.34Q119.109 233.543 119.109 291.895L119.109 380.023Q119.109 443.188 73.9922 457.625L73.9922 458.828Q119.109 472.363 119.109 535.828L119.109 622.754Q119.109 656.141 129.787 670.428Q140.465 684.715 166.934 685.316L166.934 723.215Z" />
    </g>
    <g id="spine-(2)" transform="translate(147.7494 183)">
      <path d="M0 0L493.251 0L493.251 485L0 485L0 0Z" id="Background" fill="none" stroke="none" />
      <g id="Group" transform="translate(138.7267 15.15625)">
        <path d="M0 0L23.1211 0L23.1211 15.1563L0 15.1563L0 0Z" transform="translate(0 15.15627)" id="Shape" fill="#FFFFFF" stroke="none" />
        <path d="M0 0L23.1211 0L23.1211 15.1563L0 15.1563L0 0Z" transform="translate(192.6761 15.1563)" id="Shape" fill="#FFFFFF" stroke="none" />
        <path d="M38.5351 0L38.5351 30.3125L53.9492 30.3125C55.9915 30.3125 57.9491 31.1082 59.3903 32.5253L60.716 33.8212C73.3247 46.2266 90.0721 53.0469 107.898 53.0469C125.717 53.0469 142.472 46.2266 155.073 33.8288L156.407 32.5253C157.848 31.1082 159.805 30.3125 161.848 30.3125L177.262 30.3125L177.262 0L38.5351 0ZM107.899 68.2031C122.396 68.2031 136.276 64.4595 148.523 57.571C149.578 60.6401 151.058 63.4819 152.831 66.1419C140.515 77.2287 124.708 83.3594 107.899 83.3594C91.0974 83.3594 75.2825 77.2287 62.959 66.1419C64.7316 63.4819 66.2114 60.6326 67.2672 57.571C79.5214 64.4595 93.4018 68.2031 107.899 68.2031ZM38.5351 82.5939L38.5351 128.828L53.9492 128.828C55.9915 128.828 57.9491 129.624 59.3903 131.041L60.716 132.337C73.3247 144.742 90.0721 151.562 107.898 151.562C125.717 151.562 142.472 144.742 155.073 132.344L156.407 131.041C157.848 129.624 159.805 128.828 161.848 128.828L177.262 128.828L177.262 82.5939C172.299 81.6012 167.744 79.5854 163.674 76.9103C148.453 90.8162 128.8 98.5155 107.898 98.5155C87.0047 98.5155 67.3517 90.8162 52.1226 76.9103C48.0533 79.5854 43.4984 81.6012 38.5351 82.5939ZM0 113.672L0 98.5156L23.1211 98.5156L23.1211 113.672L0 113.672ZM215.797 113.672L215.797 98.5156L192.675 98.5156L192.675 113.672L215.797 113.672ZM107.899 181.875C124.708 181.875 140.515 175.744 152.839 164.657C151.058 161.997 149.586 159.148 148.523 156.086C136.276 162.975 122.396 166.718 107.899 166.718C93.4018 166.718 79.5214 162.975 67.2672 156.086C66.2114 159.148 64.7316 161.997 62.959 164.657C75.2825 175.744 91.0974 181.875 107.899 181.875ZM177.262 181.109L177.262 227.343L161.848 227.343C159.805 227.343 157.848 228.139 156.407 229.556L155.073 230.86C142.472 243.258 125.717 250.078 107.898 250.078C90.0721 250.078 73.3247 243.257 60.716 230.852L59.3903 229.556C57.9491 228.139 55.9915 227.343 53.9492 227.343L38.5351 227.343L38.5351 181.109C43.4984 180.117 48.0533 178.101 52.1226 175.426C67.3517 189.332 87.0047 197.031 107.898 197.031C128.8 197.031 148.453 189.332 163.674 175.426C167.744 178.101 172.299 180.117 177.262 181.109ZM0 197.031L0 212.187L23.1211 212.187L23.1211 197.031L0 197.031ZM215.797 197.031L215.797 212.187L192.675 212.187L192.675 197.031L215.797 197.031ZM107.899 280.391C124.708 280.391 140.515 274.26 152.839 263.173C151.058 260.513 149.586 257.664 148.523 254.602C136.276 261.491 122.396 265.234 107.899 265.234C93.4018 265.234 79.5214 261.491 67.2672 254.602C66.2114 257.664 64.7316 260.513 62.959 263.173C75.2825 274.26 91.0974 280.391 107.899 280.391ZM177.262 279.625L177.262 325.859L161.848 325.859C159.805 325.859 157.848 326.655 156.407 328.072L155.073 329.375C142.472 341.773 125.717 348.593 107.898 348.593C90.0721 348.593 73.3247 341.773 60.716 329.368L59.3903 328.072C57.9491 326.655 55.9915 325.859 53.9492 325.859L38.5351 325.859L38.5351 279.625C43.4984 278.632 48.0533 276.616 52.1226 273.941C67.3517 287.847 87.0047 295.546 107.898 295.546C128.8 295.546 148.453 287.847 163.674 273.941C167.744 276.616 172.299 278.632 177.262 279.625ZM0 310.703L0 295.546L23.1211 295.546L23.1211 310.703L0 310.703ZM215.797 310.703L215.797 295.546L192.675 295.546L192.675 310.703L215.797 310.703ZM107.899 378.906C124.708 378.906 140.515 372.775 152.839 361.688C151.058 359.028 149.586 356.179 148.523 353.117C136.276 360.006 122.396 363.75 107.899 363.75C93.4018 363.75 79.5214 360.006 67.2672 353.117C66.2114 356.179 64.7316 359.028 62.959 361.688C75.2825 372.775 91.0974 378.906 107.899 378.906ZM177.262 378.14L177.262 424.374L161.848 424.374C159.805 424.374 157.848 425.17 156.407 426.587L155.073 427.89C142.472 440.288 125.717 447.109 107.898 447.109C90.0721 447.109 73.3247 440.288 60.716 427.883L59.3903 426.587C57.9491 425.17 55.9915 424.374 53.9492 424.374L38.5351 424.374L38.5351 378.14C43.4984 377.147 48.0533 375.132 52.1226 372.456C67.3517 386.362 87.0047 394.062 107.898 394.062C128.8 394.062 148.453 386.362 163.674 372.456C167.744 375.132 172.299 377.147 177.262 378.14ZM0 394.063L0 409.219L23.1211 409.219L23.1211 394.063L0 394.063ZM215.797 394.063L215.797 409.219L192.675 409.219L192.675 394.063L215.797 394.063Z" id="Shape" fill="#FFFFFF" fill-rule="evenodd" stroke="none" />
      </g>
    </g>
  </g>
</svg>