<?xml version="1.0" encoding="utf-8"?>
<svg width="1280px" height="173px" viewBox="0 0 1280 173" version="1.1" xmlns:xlink="http://www.w3.org/1999/xlink" xmlns="http://www.w3.org/2000/svg">
  <desc>Created with Lunacy</desc>
  <defs>
    <linearGradient x1="0.5" y1="0" x2="0.5" y2="1" id="gradient_1">
      <stop offset="0" stop-color="#27E6B2" />
      <stop offset="1" stop-color="#33A5E6" />
    </linearGradient>
    <rect width="1280" height="173" id="artboard_1" />
    <clipPath id="clip_1">
      <use xlink:href="#artboard_1" clip-rule="evenodd" />
    </clipPath>
  </defs>
  <g id="HD" clip-path="url(#clip_1)">
    <use xlink:href="#artboard_1" stroke="none" fill="#FFFFFF" />
    <g id="TECHTOPHYSIO" transform="translate(205 12)">
      <g id="TECH">
        <path d="M254.34 116.06L238.275 100.94C234.225 106.61 227.07 110.66 218.025 110.66C202.095 110.66 190.89 98.78 190.89 81.365C190.89 64.49 202.365 52.07 218.43 52.07C225.72 52.07 233.415 54.905 237.735 60.845L253.395 45.185C245.43 36.005 230.985 31.145 217.62 31.145C188.46 31.145 165.78 50.72 165.78 81.365C165.78 111.335 187.785 131.855 217.215 131.855C233.28 131.855 245.97 125.78 254.34 116.06ZM77.76 33.71L77.76 53.42L50.76 53.42L50.76 129.29L27.675 129.29L27.675 53.42L0.675 53.42L0.675 33.71L77.76 33.71ZM154.98 109.58L154.98 129.29L88.29 129.29L88.29 33.71L152.55 33.71L152.55 53.285L110.565 53.285L110.565 71.24L150.255 71.24L150.255 89.735L110.565 89.735L110.565 109.58L154.98 109.58ZM347.625 33.71L347.625 129.29L324.54 129.29L324.54 89.33L287.28 89.33L287.28 129.29L264.195 129.29L264.195 33.71L287.28 33.71L287.28 69.89L324.54 69.89L324.54 33.71L347.625 33.71Z" />
      </g>
      <g id="TO">
        <path d="M491.805 31.28C520.29 31.28 541.62 52.475 541.62 81.5C541.62 110.525 520.29 131.72 491.805 131.72C463.32 131.72 441.99 110.525 441.99 81.5C441.99 52.475 463.32 31.28 491.805 31.28ZM432.81 42.35L400.815 42.35L400.815 129.29L391.095 129.29L391.095 42.35L359.1 42.35L359.1 33.71L432.81 33.71L432.81 42.35ZM491.805 123.08C516.375 123.08 531.36 103.775 531.36 81.5C531.36 59.225 516.375 39.785 491.805 39.785C467.235 39.785 452.25 59.225 452.25 81.5C452.25 103.775 467.235 123.08 491.805 123.08Z" />
      </g>
      <g id="PHYSIO">
        <path d="M1009.13 31.145C1039.1 31.145 1061.24 50.45 1061.24 81.095C1061.24 111.335 1039.1 131.855 1009.13 131.855C979.29 131.855 957.15 111.335 957.15 81.095C957.15 50.45 979.29 31.145 1009.13 31.145ZM872.775 31.28C883.575 31.28 895.725 35.33 904.095 43.025L889.38 58.55C885.465 53.555 878.31 50.315 872.37 50.315C866.43 50.315 859.005 52.34 859.005 59.9C859.005 66.245 864.675 68.27 873.72 71.105C886.68 75.29 903.42 80.825 903.42 99.86C903.42 121.865 885.735 131.72 866.835 131.72C853.2 131.72 839.43 126.725 831.06 117.95L846.18 102.56C850.77 108.365 859.275 112.685 866.835 112.685C873.855 112.685 880.065 109.985 880.065 102.29C880.065 95 872.775 92.705 860.22 88.655C848.07 84.74 835.785 78.53 835.785 61.25C835.785 40.055 854.955 31.28 872.775 31.28ZM594.135 33.71C615.06 33.71 631.53 41.27 631.53 63.14C631.53 85.28 613.575 93.245 593.595 93.245L582.12 93.245L582.12 129.29L559.035 129.29L559.035 33.71L594.135 33.71ZM728.865 33.71L728.865 129.29L705.78 129.29L705.78 89.33L668.52 89.33L668.52 129.29L645.435 129.29L645.435 33.71L668.52 33.71L668.52 69.89L705.78 69.89L705.78 33.71L728.865 33.71ZM831.735 33.71L804.735 33.71L784.35 69.08L763.965 33.71L736.02 33.71L771.93 88.79L771.93 129.29L795.015 129.29L795.015 88.79L831.735 33.71ZM941.895 129.29L941.895 33.71L918.675 33.71L918.675 129.29L941.895 129.29ZM1009.13 110.795C1025.19 110.795 1036.53 98.375 1036.53 81.095C1036.53 64.355 1025.33 51.935 1009.13 51.935C992.925 51.935 981.855 64.355 981.855 81.095C981.855 98.375 993.06 110.795 1009.13 110.795ZM591.84 74.885C600.48 74.885 608.445 72.32 608.445 63.275C608.445 54.095 600.48 52.34 592.245 52.34L582.12 52.34L582.12 74.885L591.84 74.885Z" />
      </g>
    </g>
    <g id="massage-(1)" transform="translate(40 51)">
      <path d="M114.109 49.6752C115.152 49.3651 116.106 48.7993 116.895 48.0096C118.151 46.7574 118.843 45.09 118.843 43.3147C118.843 41.543 118.152 39.8756 116.897 38.6207L114.02 35.7438C115.042 35.4391 116.006 34.8842 116.811 34.0782C118.064 32.8251 118.754 31.1586 118.754 29.3851C118.754 27.6098 118.064 25.9424 116.811 24.6893L100.283 8.16019C96.1481 4.02656 90.5918 1.15232 85.0383 0.27736C78.6189 -0.735422 72.7444 1.04533 68.4965 5.29322L64.7274 9.06236C62.4035 11.3853 60.6155 14.1009 59.4205 17.0585C58.2254 14.1018 56.4365 11.3862 54.1136 9.06327L50.3453 5.29321C42.9739 -2.07915 32.6865 -0.687368 25.5163 3.07271C24.6631 3.52062 24.334 4.5742 24.7819 5.42741C25.2289 6.28061 26.2834 6.60974 27.1357 6.16183C33.2078 2.97751 41.845 1.72536 47.8791 7.75943L51.6464 11.5286C55.5362 15.4174 57.6778 20.5874 57.6778 26.0856L57.6778 49.6743C57.6778 51.9465 55.8281 53.7952 53.5541 53.7952C51.2828 53.7952 49.4341 51.9456 49.4341 49.6698L49.4468 37.5807L52.3736 34.653C53.0554 33.9721 53.0554 32.8677 52.3745 32.1868C51.6927 31.505 50.5883 31.505 49.9074 32.1859L21.6701 60.4241C21.0735 61.0198 20.2828 61.348 19.4432 61.348C18.6009 61.348 17.8112 61.0207 17.2155 60.4232C15.9878 59.1973 15.9869 57.2008 17.2146 55.9722C17.2182 55.9686 17.2209 55.964 17.2245 55.9604L35.295 37.8899C35.976 37.209 35.976 36.1046 35.295 35.4237C34.6141 34.7428 33.5098 34.7428 32.8288 35.4237L10.3917 57.8618C9.79687 58.4566 9.00533 58.7848 8.16391 58.7848C7.32159 58.7848 6.53095 58.4566 5.93525 57.8618C5.34136 57.267 5.01404 56.4763 5.01404 55.6349C5.01404 54.7917 5.34136 54.0001 5.93525 53.4053L27.2463 32.0952C27.9272 31.4143 27.9272 30.3099 27.2463 29.629C26.5653 28.9481 25.461 28.9481 24.7801 29.629L8.87385 45.5352C8.87113 45.5379 8.86841 45.5397 8.8666 45.5416C8.27181 46.1354 7.48026 46.4637 6.63703 46.4637C5.79561 46.4637 5.00497 46.1354 4.40837 45.5397C3.81539 44.9486 3.48897 44.1579 3.48897 43.3147C3.48897 42.4724 3.81629 41.6817 4.41018 41.0879L21.7734 23.7246C22.4544 23.0436 22.4544 21.9393 21.7734 21.2584C21.0916 20.5765 19.9873 20.5765 19.3063 21.2584L8.95274 31.6119C8.95274 31.6119 8.95183 31.6129 8.95183 31.6129C8.35704 32.2076 7.5664 32.535 6.72498 32.535C5.88356 32.535 5.09292 32.2076 4.49904 31.6119C3.90424 31.0181 3.57692 30.2265 3.57692 29.3851C3.57692 28.5419 3.90424 27.7503 4.49813 27.1564L21.0272 10.6273C21.2847 10.3698 21.545 10.1214 21.8006 9.88836C22.5133 9.23917 22.565 8.13662 21.9167 7.42396C21.2684 6.7122 20.165 6.66052 19.4532 7.3088C19.1567 7.579 18.8566 7.86461 18.561 8.16019L2.03191 24.6893C0.778854 25.9433 0.0888564 27.6107 0.0888564 29.3851C0.0888564 31.1586 0.778854 32.826 2.03191 34.0782C2.82164 34.8688 3.7764 35.4364 4.81819 35.7474L1.94396 38.6216C0.689997 39.8738 2.21362e-07 41.5412 2.21362e-07 43.3147C2.21362e-07 45.0909 0.690904 46.7583 1.94305 48.0078C2.7337 48.7984 3.68935 49.3651 4.73206 49.6752L3.46903 50.9391C2.21506 52.1922 1.52507 53.8596 1.52507 55.6349C1.52507 57.4084 2.21597 59.0749 3.46903 60.328C4.72299 61.5819 6.39041 62.2729 8.163 62.2729C9.9365 62.2729 11.6039 61.5819 12.8579 60.328L13.0846 60.1022C13.3883 61.1232 13.9423 62.0852 14.7474 62.8894C16.0005 64.1452 17.6679 64.8361 19.4423 64.8361C21.2149 64.8361 22.8814 64.1452 24.1363 62.8912L45.9551 41.0742L45.9451 49.6725C45.9451 53.8687 49.3588 57.2833 53.5541 57.2833C55.9124 57.2833 58.0241 56.2052 59.4205 54.517C60.8177 56.2052 62.9285 57.2833 65.2859 57.2833C69.4812 57.2833 72.8949 53.8687 72.8949 49.6661L72.8867 41.0733L86.7574 54.9449C87.4392 55.6259 88.5436 55.6259 89.2245 54.9449C89.9055 54.264 89.9055 53.1596 89.2245 52.4787L68.9326 32.1868C68.2517 31.5059 67.1473 31.5059 66.4664 32.1868C65.7846 32.8677 65.7846 33.9721 66.4664 34.653L69.396 37.5826L69.4068 49.6725C69.4068 51.9456 67.5581 53.7952 65.2859 53.7952C63.0137 53.7952 61.1649 51.9465 61.1649 49.6743L61.1649 26.0856C61.1649 20.5856 63.3057 15.4165 67.1936 11.5286L70.9627 7.75943C75.3684 3.35379 80.7533 3.13255 84.4952 3.72191C89.2644 4.47447 94.244 7.05584 97.8155 10.6264L114.345 27.1555C114.938 27.7503 115.266 28.5419 115.266 29.3851C115.266 30.2265 114.938 31.0181 114.345 31.6119C113.117 32.8396 111.121 32.8405 109.893 31.6165C109.891 31.6147 109.89 31.6129 109.888 31.6119L99.5346 21.2575C98.8537 20.5765 97.7493 20.5765 97.0684 21.2575C96.3865 21.9393 96.3865 23.0436 97.0684 23.7246L114.43 41.0869C115.026 41.6836 115.355 42.4742 115.355 43.3147C115.355 44.1561 115.026 44.9468 114.43 45.5416C113.836 46.1354 113.045 46.4628 112.204 46.4628C111.362 46.4628 110.571 46.1354 109.976 45.5416C109.969 45.5343 109.962 45.528 109.953 45.5207L94.0618 29.6281C93.3799 28.9472 92.2765 28.9472 91.5946 29.6281C90.9137 30.3099 90.9137 31.4143 91.5946 32.0943L112.906 53.4053C113.501 54.001 113.829 54.7926 113.829 55.634C113.829 56.4745 113.501 57.2652 112.905 57.8609C112.31 58.4566 111.519 58.7839 110.678 58.7839C109.837 58.7839 109.046 58.4566 108.451 57.8609L86.013 35.4237C85.3312 34.7428 84.2277 34.7428 83.5459 35.4237C82.865 36.1046 82.865 37.209 83.5459 37.8899L101.629 55.9722C101.63 55.9731 101.631 55.974 101.632 55.9749C102.855 57.2026 102.853 59.1973 101.627 60.4241C101.032 61.0198 100.239 61.348 99.3977 61.348C98.5581 61.348 97.7665 61.0198 97.1708 60.4241L94.1552 57.4075C93.4733 56.7266 92.369 56.7266 91.688 57.4075C91.0071 58.0894 91.0071 59.1928 91.688 59.8737L94.7046 62.8903C95.9595 64.1452 97.626 64.8361 99.3977 64.8361C101.171 64.8361 102.839 64.1452 104.093 62.8903C104.899 62.0852 105.454 61.1223 105.757 60.1004L105.985 60.328C107.239 61.581 108.906 62.2719 110.679 62.2719C112.451 62.2719 114.118 61.581 115.372 60.328C116.627 59.0731 117.318 57.4066 117.318 55.634C117.318 53.8605 116.627 52.1931 115.373 50.9391L114.109 49.6752Z" id="Shape" fill="url(#gradient_1)" stroke="none" />
      <path d="M21.2939 12.1814C29.2239 12.1814 36.822 8.80304 42.1389 2.91222C42.7845 2.19774 42.7283 1.0952 42.0129 0.44963C41.2984 -0.195939 40.195 -0.139724 39.5494 0.575661C34.8926 5.73387 28.2392 8.69333 21.2939 8.69333C14.3495 8.69333 7.69528 5.73387 3.03848 0.575661C2.39291 -0.139724 1.29037 -0.195939 0.574981 0.44963C-0.139497 1.09429 -0.195712 2.19774 0.44895 2.91222C5.76673 8.80304 13.364 12.1814 21.2939 12.1814L21.2939 12.1814Z" transform="translate(39.28086 62.05347)" id="Shape" fill="url(#gradient_1)" stroke="none" />
      <path d="M51.8798 0.43224C45.1059 6.36658 36.4079 9.63432 27.3863 9.63432C18.3655 9.63432 9.66666 6.36658 2.89362 0.43224C2.16917 -0.202449 1.06662 -0.129913 0.431932 0.595446C-0.202757 1.3199 -0.129314 2.42154 0.595138 3.05622C8.00468 9.54818 17.5196 13.1224 27.3863 13.1224C37.2539 13.1224 46.7678 9.54727 54.1783 3.05622C54.9027 2.42154 54.9753 1.3199 54.3406 0.595446C53.7059 -0.129006 52.6043 -0.202449 51.8798 0.43224L51.8798 0.43224Z" transform="translate(33.17153 73.71634)" id="Shape" fill="url(#gradient_1)" stroke="none" />
    </g>
    <g id="open-and-close-brackets-enclosing-a-hexagon" transform="translate(10 -3.621826)">
      <g id="Group" transform="translate(0 18.38229)">
        <g id="Group">
          <path d="M2.26947 69.219C1.01412 69.219 0 70.2331 0 71.4885C0 72.7426 1.01412 73.7575 2.26947 73.7575C4.9092 73.7575 6.98997 74.6086 8.63029 76.3594C13.4218 81.4767 12.7771 92.2167 12.7658 92.4807L12.7658 121.416C12.7658 128.706 14.7902 134.326 18.7773 138.114C23.5634 142.661 29.6048 142.981 31.2115 142.981C31.4343 142.981 31.5704 142.974 31.6061 142.974C32.8594 142.91 33.8214 141.841 33.7558 140.589C33.6903 139.333 32.6035 138.361 31.37 138.439C31.3111 138.464 25.9581 138.676 21.9021 134.823C18.8479 131.924 17.3043 127.413 17.3043 121.416L17.3001 92.6337C17.3366 92.1129 18.0902 79.828 11.9534 73.2679C11.3196 72.5896 10.6346 71.9958 9.90876 71.4885C10.6346 70.9808 11.3192 70.387 11.9534 69.7086C18.0902 63.1427 17.3366 50.8603 17.3043 50.4959L17.3043 21.5602C17.3043 15.5885 18.8379 11.0925 21.8655 8.19047C25.8757 4.34666 31.3023 4.52696 31.3821 4.53705C32.632 4.61354 33.6903 3.63598 33.7558 2.38735C33.8168 1.13536 32.8573 0.0703938 31.6062 0.00273027C31.2935 0.00693228 24.2304 -0.315416 18.7815 4.86402C14.7902 8.65403 12.77 14.2722 12.77 21.5602L12.7742 50.6476C12.978 53.6383 12.6292 62.3396 8.64164 66.6058C6.99459 68.3654 4.9134 69.219 2.26947 69.219L2.26947 69.219Z" id="Shape" fill="url(#gradient_1)" stroke="url(#gradient_1)" stroke-width="3" />
          <g id="Group" transform="translate(147.2428 1.260798)">
            <path d="M31.4861 69.221C28.8442 69.221 26.7656 68.3699 25.1252 66.6203C20.3337 61.5027 20.9763 50.7597 20.9893 50.4978L20.9893 21.5621C20.9893 14.2729 18.9594 8.65345 14.9744 4.86554C9.52895 -0.310534 2.44568 0.0021483 2.15318 0.00424851C0.896567 0.0706519 -0.0654366 1.13688 0.00348859 2.39013C0.0698872 3.64212 1.1336 4.60539 2.39063 4.53898C2.45031 4.51881 7.80248 4.30279 11.8581 8.15669C14.9164 11.0549 16.4529 15.5657 16.4529 21.5617L16.4572 50.3457C16.4198 50.8652 15.6662 63.148 21.8055 69.7102C22.4393 70.3906 23.1218 70.9823 23.8531 71.4854C23.1218 71.9998 22.4393 72.5869 21.8055 73.2674C15.6666 79.8366 16.4202 92.117 16.4534 92.478L16.4534 121.414C16.4534 127.387 14.9198 131.881 11.8917 134.789C7.87815 138.626 2.44192 138.44 2.37973 138.44C1.17187 138.373 0.0703361 139.34 0.00393749 140.587C-0.0561637 141.839 0.901633 142.906 2.15363 142.974C2.19355 142.974 2.32426 142.979 2.54784 142.979C4.14824 142.979 10.1896 142.659 14.9833 138.112C18.9771 134.322 20.9919 128.701 20.9919 121.415L20.9873 92.3326C20.7834 89.3407 21.1314 80.6394 25.1206 76.3732C26.7627 74.6198 28.8459 73.7687 31.4878 73.7687C32.749 73.7687 33.7572 72.7538 33.7572 71.4997C33.7551 70.2401 32.7402 69.221 31.4861 69.221L31.4861 69.221Z" id="Shape" fill="url(#gradient_1)" stroke="url(#gradient_1)" stroke-width="3" />
          </g>
        </g>
      </g>
      <g id="Group" />
      <g id="Group" />
      <g id="Group" />
      <g id="Group" />
      <g id="Group" />
      <g id="Group" />
      <g id="Group" />
      <g id="Group" />
      <g id="Group" />
      <g id="Group" />
      <g id="Group" />
      <g id="Group" />
      <g id="Group" />
      <g id="Group" />
      <g id="Group" />
    </g>
  </g>
</svg>