<?xml version="1.0" encoding="utf-8"?>
<svg width="1500px" height="200px" viewBox="0 0 1500 200" version="1.1" xmlns:xlink="http://www.w3.org/1999/xlink" xmlns="http://www.w3.org/2000/svg">
  <desc>Created with Lunacy</desc>
  <defs>
    <rect width="1500" height="200" id="artboard_1" />
    <clipPath id="clip_1">
      <use xlink:href="#artboard_1" clip-rule="evenodd" />
    </clipPath>
  </defs>
  <g id="Surface-Book" clip-path="url(#clip_1)">
    <use xlink:href="#artboard_1" stroke="none" fill="#FFFFFF" fill-opacity="0" />
    <g id="TECHTOREHAB" transform="translate(-25 0)">
      <g id="TECH" fill="#3C3C3C">
        <path d="M411.862 154.908L388.895 133.292C383.105 141.398 372.876 147.188 359.945 147.188C337.171 147.188 321.152 130.204 321.152 105.307C321.152 81.182 337.557 63.426 360.524 63.426C370.946 63.426 381.947 67.479 388.123 75.971L410.511 53.583C399.124 40.459 378.473 33.511 359.366 33.511C317.678 33.511 285.254 61.496 285.254 105.307C285.254 148.153 316.713 177.489 358.787 177.489C381.754 177.489 399.896 168.804 411.862 154.908ZM159.418 37.178L159.418 65.356L120.818 65.356L120.818 173.822L87.815 173.822L87.815 65.356L49.215 65.356L49.215 37.178L159.418 37.178ZM269.814 145.644L269.814 173.822L174.472 173.822L174.472 37.178L266.34 37.178L266.34 65.163L206.317 65.163L206.317 90.832L263.059 90.832L263.059 117.273L206.317 117.273L206.317 145.644L269.814 145.644ZM545.225 37.178L545.225 173.822L512.222 173.822L512.222 116.694L458.954 116.694L458.954 173.822L425.951 173.822L425.951 37.178L458.954 37.178L458.954 88.902L512.222 88.902L512.222 37.178L545.225 37.178Z" />
      </g>
      <g id="TO" fill="#3C3C3C">
        <path d="M751.349 33.704C792.072 33.704 822.566 64.005 822.566 105.5C822.566 146.995 792.072 177.296 751.349 177.296C710.626 177.296 680.132 146.995 680.132 105.5C680.132 64.005 710.626 33.704 751.349 33.704ZM667.008 49.53L621.267 49.53L621.267 173.822L607.371 173.822L607.371 49.53L561.63 49.53L561.63 37.178L667.008 37.178L667.008 49.53ZM751.349 164.944C786.475 164.944 807.898 137.345 807.898 105.5C807.898 73.655 786.475 45.863 751.349 45.863C716.223 45.863 694.8 73.655 694.8 105.5C694.8 137.345 716.223 164.944 751.349 164.944Z" />
      </g>
      <g id="REHAB" fill="#3C3C3C">
        <path d="M959.21 173.822L923.505 115.343C941.068 109.939 951.876 96.815 951.876 78.48C951.876 47.214 925.821 37.178 899.573 37.178L847.463 37.178L847.463 173.822L879.887 173.822L879.887 119.589L891.081 119.589L920.61 173.822L959.21 173.822ZM1070.76 173.822L1070.76 145.644L1007.27 145.644L1007.27 117.273L1064.01 117.273L1064.01 90.832L1007.27 90.832L1007.27 65.163L1067.29 65.163L1067.29 37.178L975.422 37.178L975.422 173.822L1070.76 173.822ZM1211.85 37.178L1211.85 173.822L1178.84 173.822L1178.84 116.694L1125.58 116.694L1125.58 173.822L1092.57 173.822L1092.57 37.178L1125.58 37.178L1125.58 88.902L1178.84 88.902L1178.84 37.178L1211.85 37.178ZM1369.33 173.822L1312.59 37.178L1280.55 37.178L1223.23 173.822L1259.13 173.822L1269.17 146.995L1322.05 146.995L1332.66 173.822L1369.33 173.822ZM1459.27 102.219C1474.91 104.921 1487.26 116.115 1487.26 134.064C1487.26 163.786 1461.2 173.822 1435.15 173.822L1380.72 173.822L1380.72 37.178L1435.15 37.178C1456.38 37.178 1481.66 44.705 1481.66 72.304C1481.66 87.358 1472.59 97.394 1459.27 101.833L1459.27 102.219ZM1430.32 91.604C1442.67 91.604 1449.82 86.393 1449.82 76.743C1449.82 67.479 1442.67 63.426 1428.78 63.426L1412.57 63.426L1412.57 91.604L1430.32 91.604ZM919.259 79.059C919.259 92.955 905.942 95.657 895.327 95.657L879.694 95.657L879.694 63.812L897.257 63.812C907.1 63.812 919.259 66.321 919.259 79.059ZM1312.98 120.554L1278.62 120.554L1295.99 73.655L1312.98 120.554ZM1431.09 147.188C1441.52 147.188 1454.25 144.293 1454.25 130.976C1454.25 119.589 1444.99 115.922 1430.9 115.922L1412.57 115.922L1412.57 147.188L1431.09 147.188Z" />
      </g>
    </g>
  </g>
</svg>