<?xml version="1.0" encoding="utf-8"?>
<svg width="1280px" height="163px" viewBox="0 0 1280 163" version="1.1" xmlns:xlink="http://www.w3.org/1999/xlink" xmlns="http://www.w3.org/2000/svg">
  <desc>Created with Lunacy</desc>
  <defs>
    <rect width="1280" height="163" id="artboard_1" />
    <clipPath id="clip_1">
      <use xlink:href="#artboard_1" clip-rule="evenodd" />
    </clipPath>
  </defs>
  <g id="HD" clip-path="url(#clip_1)">
    <use xlink:href="#artboard_1" stroke="none" fill="#FFFFFF" />
    <g id="TECHTOREHAB" transform="translate(7 -20)">
      <g id="TECH" fill="#3C3C3C">
        <path d="M320.28 146.02L300.05 126.98C294.95 134.12 285.94 139.22 274.55 139.22C254.49 139.22 240.38 124.26 240.38 102.33C240.38 81.08 254.83 65.44 275.06 65.44C284.24 65.44 293.93 69.01 299.37 76.49L319.09 56.77C309.06 45.21 290.87 39.09 274.04 39.09C237.32 39.09 208.76 63.74 208.76 102.33C208.76 140.07 236.47 165.91 273.53 165.91C293.76 165.91 309.74 158.26 320.28 146.02ZM97.92 42.32L97.92 67.14L63.92 67.14L63.92 162.68L34.85 162.68L34.85 67.14L0.85 67.14L0.85 42.32L97.92 42.32ZM195.16 137.86L195.16 162.68L111.18 162.68L111.18 42.32L192.1 42.32L192.1 66.97L139.23 66.97L139.23 89.58L189.21 89.58L189.21 112.87L139.23 112.87L139.23 137.86L195.16 137.86ZM437.75 42.32L437.75 162.68L408.68 162.68L408.68 112.36L361.76 112.36L361.76 162.68L332.69 162.68L332.69 42.32L361.76 42.32L361.76 87.88L408.68 87.88L408.68 42.32L437.75 42.32Z" />
      </g>
      <g id="TO" fill="#3C3C3C">
        <path d="M619.31 39.26C655.18 39.26 682.04 65.95 682.04 102.5C682.04 139.05 655.18 165.74 619.31 165.74C583.44 165.74 556.58 139.05 556.58 102.5C556.58 65.95 583.44 39.26 619.31 39.26ZM545.02 53.2L504.73 53.2L504.73 162.68L492.49 162.68L492.49 53.2L452.2 53.2L452.2 42.32L545.02 42.32L545.02 53.2ZM619.31 154.86C650.25 154.86 669.12 130.55 669.12 102.5C669.12 74.45 650.25 49.97 619.31 49.97C588.37 49.97 569.5 74.45 569.5 102.5C569.5 130.55 588.37 154.86 619.31 154.86Z" />
      </g>
      <g id="REHAB" fill="#3C3C3C">
        <path d="M802.4 162.68L770.95 111.17C786.42 106.41 795.94 94.85 795.94 78.7C795.94 51.16 772.99 42.32 749.87 42.32L703.97 42.32L703.97 162.68L732.53 162.68L732.53 114.91L742.39 114.91L768.4 162.68L802.4 162.68ZM900.66 162.68L900.66 137.86L844.73 137.86L844.73 112.87L894.71 112.87L894.71 89.58L844.73 89.58L844.73 66.97L897.6 66.97L897.6 42.32L816.68 42.32L816.68 162.68L900.66 162.68ZM1024.93 42.32L1024.93 162.68L995.86 162.68L995.86 112.36L948.94 112.36L948.94 162.68L919.87 162.68L919.87 42.32L948.94 42.32L948.94 87.88L995.86 87.88L995.86 42.32L1024.93 42.32ZM1163.65 162.68L1113.67 42.32L1085.45 42.32L1034.96 162.68L1066.58 162.68L1075.42 139.05L1122 139.05L1131.35 162.68L1163.65 162.68ZM1242.87 99.61C1256.64 101.99 1267.52 111.85 1267.52 127.66C1267.52 153.84 1244.57 162.68 1221.62 162.68L1173.68 162.68L1173.68 42.32L1221.62 42.32C1240.32 42.32 1262.59 48.95 1262.59 73.26C1262.59 86.52 1254.6 95.36 1242.87 99.27L1242.87 99.61ZM1217.37 90.26C1228.25 90.26 1234.54 85.67 1234.54 77.17C1234.54 69.01 1228.25 65.44 1216.01 65.44L1201.73 65.44L1201.73 90.26L1217.37 90.26ZM767.21 79.21C767.21 91.45 755.48 93.83 746.13 93.83L732.36 93.83L732.36 65.78L747.83 65.78C756.5 65.78 767.21 67.99 767.21 79.21ZM1114.01 115.76L1083.75 115.76L1099.05 74.45L1114.01 115.76ZM1218.05 139.22C1227.23 139.22 1238.45 136.67 1238.45 124.94C1238.45 114.91 1230.29 111.68 1217.88 111.68L1201.73 111.68L1201.73 139.22L1218.05 139.22Z" />
      </g>
    </g>
  </g>
</svg>