<?xml version="1.0" encoding="utf-8"?>
<svg width="732px" height="161px" viewBox="0 0 732 161" version="1.1" xmlns:xlink="http://www.w3.org/1999/xlink" xmlns="http://www.w3.org/2000/svg">
  <desc>Created with Lunacy</desc>
  <defs>
    <rect width="732" height="161" id="artboard_1" />
    <clipPath id="clip_1">
      <use xlink:href="#artboard_1" clip-rule="evenodd" />
    </clipPath>
  </defs>
  <g id="Artboard" clip-path="url(#clip_1)">
    <use xlink:href="#artboard_1" stroke="none" fill="#FFFFFF" />
    <g id="TECHTOREHAB">
      <g id="TECH">
        <path d="M187.056 105.076L175.632 94.324C172.752 98.356 167.664 101.236 161.232 101.236C149.904 101.236 141.936 92.788 141.936 80.404C141.936 68.404 150.096 59.572 161.52 59.572C166.704 59.572 172.176 61.588 175.248 65.812L186.384 54.676C180.72 48.148 170.448 44.692 160.944 44.692C140.208 44.692 124.08 58.612 124.08 80.404C124.08 101.716 139.728 116.308 160.656 116.308C172.08 116.308 181.104 111.988 187.056 105.076ZM61.488 46.516L61.488 60.532L42.288 60.532L42.288 114.484L25.872 114.484L25.872 60.532L6.67199 60.532L6.67199 46.516L61.488 46.516ZM116.4 100.468L116.4 114.484L68.976 114.484L68.976 46.516L114.672 46.516L114.672 60.436L84.816 60.436L84.816 73.204L113.04 73.204L113.04 86.356L84.816 86.356L84.816 100.468L116.4 100.468ZM253.392 46.516L253.392 114.484L236.976 114.484L236.976 86.068L210.48 86.068L210.48 114.484L194.064 114.484L194.064 46.516L210.48 46.516L210.48 72.244L236.976 72.244L236.976 46.516L253.392 46.516Z" />
      </g>
      <g id="TO">
        <path d="M355.92 44.788C376.176 44.788 391.344 59.86 391.344 80.5C391.344 101.14 376.176 116.212 355.92 116.212C335.664 116.212 320.496 101.14 320.496 80.5C320.496 59.86 335.664 44.788 355.92 44.788ZM313.968 52.66L291.216 52.66L291.216 114.484L284.304 114.484L284.304 52.66L261.552 52.66L261.552 46.516L313.968 46.516L313.968 52.66ZM355.92 110.068C373.392 110.068 384.048 96.34 384.048 80.5C384.048 64.66 373.392 50.836 355.92 50.836C338.448 50.836 327.792 64.66 327.792 80.5C327.792 96.34 338.448 110.068 355.92 110.068Z" />
      </g>
      <g id="REHAB">
        <path d="M459.312 114.484L441.552 85.396C450.288 82.708 455.664 76.18 455.664 67.06C455.664 51.508 442.704 46.516 429.648 46.516L403.728 46.516L403.728 114.484L419.856 114.484L419.856 87.508L425.424 87.508L440.112 114.484L459.312 114.484ZM514.8 114.484L514.8 100.468L483.216 100.468L483.216 86.356L511.44 86.356L511.44 73.204L483.216 73.204L483.216 60.436L513.072 60.436L513.072 46.516L467.376 46.516L467.376 114.484L514.8 114.484ZM584.976 46.516L584.976 114.484L568.56 114.484L568.56 86.068L542.064 86.068L542.064 114.484L525.648 114.484L525.648 46.516L542.064 46.516L542.064 72.244L568.56 72.244L568.56 46.516L584.976 46.516ZM663.312 114.484L635.088 46.516L619.152 46.516L590.64 114.484L608.496 114.484L613.488 101.14L639.792 101.14L645.072 114.484L663.312 114.484ZM708.048 78.868C715.824 80.212 721.968 85.78 721.968 94.708C721.968 109.492 709.008 114.484 696.048 114.484L668.976 114.484L668.976 46.516L696.048 46.516C706.608 46.516 719.184 50.26 719.184 63.988C719.184 71.476 714.672 76.468 708.048 78.676L708.048 78.868ZM693.648 73.588C699.792 73.588 703.344 70.996 703.344 66.196C703.344 61.588 699.792 59.572 692.88 59.572L684.816 59.572L684.816 73.588L693.648 73.588ZM439.44 67.348C439.44 74.26 432.816 75.604 427.536 75.604L419.76 75.604L419.76 59.764L428.496 59.764C433.392 59.764 439.44 61.012 439.44 67.348ZM635.28 87.988L618.192 87.988L626.832 64.66L635.28 87.988ZM694.032 101.236C699.216 101.236 705.552 99.796 705.552 93.172C705.552 87.508 700.944 85.684 693.936 85.684L684.816 85.684L684.816 101.236L694.032 101.236Z" />
      </g>
    </g>
  </g>
</svg>