<?xml version="1.0" encoding="utf-8"?>
<svg width="1280px" height="262px" viewBox="0 0 1280 262" version="1.1" xmlns:xlink="http://www.w3.org/1999/xlink" xmlns="http://www.w3.org/2000/svg">
  <desc>Created with Lunacy</desc>
  <defs>
    <rect width="1280" height="262" id="artboard_1" />
    <clipPath id="clip_1">
      <use xlink:href="#artboard_1" clip-rule="evenodd" />
    </clipPath>
  </defs>
  <g id="HD" clip-path="url(#clip_1)">
    <use xlink:href="#artboard_1" stroke="none" fill="#141414" />
    <path d="M101.5 0L203 176L0 176L101.5 0Z" transform="matrix(0.5591929 0.8290375 -0.8290375 0.5591929 611.9106 -37.29459)" id="Triangle" fill="#2422F8" fill-opacity="0.698039234" stroke="none" />
    <g id="TECHTOREHAB" transform="translate(0 -3.051758E-05)">
      <g id="TECH" fill="#FFFFFF">
        <path d="M326.848 174.008L306.856 155.192C301.816 162.248 292.912 167.288 281.656 167.288C261.832 167.288 247.888 152.504 247.888 130.832C247.888 109.832 262.168 94.376 282.16 94.376C291.232 94.376 300.808 97.904 306.184 105.296L325.672 85.808C315.76 74.384 297.784 68.336 281.152 68.336C244.864 68.336 216.64 92.696 216.64 130.832C216.64 168.128 244.024 193.664 280.648 193.664C300.64 193.664 316.432 186.104 326.848 174.008ZM107.104 71.528L107.104 96.056L73.504 96.056L73.504 190.472L44.776 190.472L44.776 96.056L11.176 96.056L11.176 71.528L107.104 71.528ZM203.2 165.944L203.2 190.472L120.208 190.472L120.208 71.528L200.176 71.528L200.176 95.888L147.928 95.888L147.928 118.232L197.32 118.232L197.32 141.248L147.928 141.248L147.928 165.944L203.2 165.944ZM442.936 71.528L442.936 190.472L414.208 190.472L414.208 140.744L367.84 140.744L367.84 190.472L339.112 190.472L339.112 71.528L367.84 71.528L367.84 116.552L414.208 116.552L414.208 71.528L442.936 71.528Z" />
      </g>
      <g id="TO" fill="#FFFFFF">
        <path d="M622.36 68.504C657.808 68.504 684.352 94.88 684.352 131C684.352 167.12 657.808 193.496 622.36 193.496C586.912 193.496 560.368 167.12 560.368 131C560.368 94.88 586.912 68.504 622.36 68.504ZM548.944 82.28L509.128 82.28L509.128 190.472L497.032 190.472L497.032 82.28L457.216 82.28L457.216 71.528L548.944 71.528L548.944 82.28ZM622.36 182.744C652.936 182.744 671.584 158.72 671.584 131C671.584 103.28 652.936 79.088 622.36 79.088C591.784 79.088 573.136 103.28 573.136 131C573.136 158.72 591.784 182.744 622.36 182.744Z" />
      </g>
      <g id="REHAB" fill="#FFFFFF">
        <path d="M803.296 190.472L772.216 139.568C787.504 134.864 796.912 123.44 796.912 107.48C796.912 80.264 774.232 71.528 751.384 71.528L706.024 71.528L706.024 190.472L734.248 190.472L734.248 143.264L743.992 143.264L769.696 190.472L803.296 190.472ZM900.4 190.472L900.4 165.944L845.128 165.944L845.128 141.248L894.52 141.248L894.52 118.232L845.128 118.232L845.128 95.888L897.376 95.888L897.376 71.528L817.408 71.528L817.408 190.472L900.4 190.472ZM1023.21 71.528L1023.21 190.472L994.48 190.472L994.48 140.744L948.112 140.744L948.112 190.472L919.384 190.472L919.384 71.528L948.112 71.528L948.112 116.552L994.48 116.552L994.48 71.528L1023.21 71.528ZM1160.3 190.472L1110.9 71.528L1083.02 71.528L1033.12 190.472L1064.37 190.472L1073.1 167.12L1119.14 167.12L1128.38 190.472L1160.3 190.472ZM1238.58 128.144C1252.19 130.496 1262.94 140.24 1262.94 155.864C1262.94 181.736 1240.26 190.472 1217.58 190.472L1170.21 190.472L1170.21 71.528L1217.58 71.528C1236.06 71.528 1258.07 78.08 1258.07 102.104C1258.07 115.208 1250.18 123.944 1238.58 127.808L1238.58 128.144ZM1213.38 118.904C1224.14 118.904 1230.35 114.368 1230.35 105.968C1230.35 97.904 1224.14 94.376 1212.04 94.376L1197.93 94.376L1197.93 118.904L1213.38 118.904ZM768.52 107.984C768.52 120.08 756.928 122.432 747.688 122.432L734.08 122.432L734.08 94.712L749.368 94.712C757.936 94.712 768.52 96.896 768.52 107.984ZM1111.24 144.104L1081.34 144.104L1096.46 103.28L1111.24 144.104ZM1214.06 167.288C1223.13 167.288 1234.22 164.768 1234.22 153.176C1234.22 143.264 1226.15 140.072 1213.89 140.072L1197.93 140.072L1197.93 167.288L1214.06 167.288Z" />
      </g>
    </g>
  </g>
</svg>